<svg width="28" height="33" viewBox="0 0 28 33" fill="none" xmlns="http://www.w3.org/2000/svg">
<path d="M18.3913 18.0328C17.7272 16.9493 16.7063 16.2053 15.3285 15.8008V15.7297C16.2711 15.1828 17.0074 14.4145 17.5395 13.4265C18.0716 12.4386 18.3356 11.3958 18.3356 10.3022C18.3356 8.15962 17.5333 6.50901 15.9266 5.3544C14.3199 4.19979 12.1873 3.62248 9.53082 3.62248H1.83769C0.822938 3.62045 0 2.8114 0 1.81128V27.1945C0 28.5036 0.664125 29.1582 1.99238 29.1582H9.53082C12.3812 29.1582 14.7366 28.5382 16.5969 27.3002C18.4573 26.0622 19.3875 24.1453 19.3875 21.5495C19.3875 20.2871 19.0554 19.1142 18.3913 18.0308" fill="#5B31DD"/>
<path d="M27.5571 23.1797L23.8611 16.6077C23.4506 15.8922 23.1248 15.382 22.8834 15.073V15.0019C24.1148 14.3839 25.0697 13.4244 25.7462 12.1275C26.4227 10.8306 26.7609 9.46662 26.7609 8.03758C26.7609 6.20402 26.3381 4.65098 25.4925 3.37643C24.6469 2.10189 23.4754 1.17901 21.978 0.607799C20.9158 0.203277 19.2349 0 16.9414 0H1.83769C0.822938 0 0 0.811076 0 1.8112C0 2.81132 0.822938 3.6224 1.83769 3.6224H9.53081C12.1894 3.6224 14.3199 4.19971 15.9266 5.35432C17.5333 6.50893 18.3356 8.15751 18.3356 10.3021C18.3356 11.3977 18.0696 12.4385 17.5395 13.4265C17.0074 14.4144 16.2711 15.1828 15.3285 15.7296V15.8007C16.7063 16.2053 17.7251 16.9492 18.3913 18.0327C19.0554 19.1162 19.3875 20.2891 19.3875 21.5514C19.3875 23.1329 19.041 24.4603 18.3521 25.5377H26.1814C26.9548 25.5377 27.4746 25.3121 27.7386 24.8588C28.0046 24.4055 27.9448 23.8464 27.5571 23.1797Z" fill="#02D9F4"/>
<path d="M2.75391 25.6962V33L5.54447 31.3311L8.33503 33V25.6962C8.33503 25.1738 7.91841 24.751 7.40484 24.751H3.68409C3.17053 24.751 2.75391 25.1738 2.75391 25.6962Z" fill="#FA4AFF"/>
</svg>
