<?xml version="1.0" standalone="no"?>
<!DOCTYPE svg PUBLIC "-//W3C//DTD SVG 1.1//EN" "http://www.w3.org/Graphics/SVG/1.1/DTD/svg11.dtd" >
<svg xmlns="http://www.w3.org/2000/svg" xmlns:xlink="http://www.w3.org/1999/xlink" version="1.1">
<metadata>
Created by FontForge 20170731 at Tue Aug 29 18:33:52 2023
 By Aleksey,,,
Copyright 2022 The NT Somic project
</metadata>
<defs>
<font id="NTSomic-Medium" horiz-adv-x="1198" >
  <font-face 
    font-family="NT Somic Med"
    font-weight="400"
    font-stretch="normal"
    units-per-em="2048"
    panose-1="0 0 0 0 0 0 0 0 0 0"
    ascent="1638"
    descent="-410"
    x-height="1024"
    cap-height="1434"
    bbox="-182 -479 2367 2085"
    underline-thickness="102"
    underline-position="-358"
    unicode-range="U+000A-20BD"
  />
<missing-glyph horiz-adv-x="1921" 
d="M844 432l-207 -49q-51 -85 -51 -154q0 -110 94 -184t252 -74q184 0 299 107t115 278h-256q0 -52 -35 -86t-90 -34q-49 0 -79 28.5t-30 69.5q0 44 34 71t79 27h377v238h-412l-49 -176h-19v297h-262v-340h240v-19zM1116 1118q0 -18 -18 -31.5t-43.5 -24.5t-51 -25
t-43.5 -42t-18 -67q0 -91 87.5 -137t246.5 -46h70v228h-52q-40 0 -66 20t-26 51q0 22 16.5 42.5t39.5 37.5t46 36t39.5 47t16.5 61q0 70 -64.5 124t-191.5 54q-103 0 -178 -45l-60 -213h-16v239h-246v-561h262v119q0 97 43.5 153t110.5 56q46 0 71 -24.5t25 -51.5zM217 156
v1122q0 258 134 391t384 133h451q250 0 384 -133t134 -391v-1122q0 -259 -134 -392t-384 -133h-451q-250 0 -384 133t-134 392z" />
    <glyph glyph-name="yukrcyr_yukrcyr" unicode="&#x457;&#x457;" horiz-adv-x="989" 
d="M133 0v1024h227v-1024h-227zM629 0v1024h225v-1024h-225zM895 1356q0 58 40 98.5t97 40.5q58 0 98.5 -40.5t40.5 -98.5q0 -57 -40.5 -97t-98.5 -40q-57 0 -97 40t-40 97zM537 1356q0 58 40 98.5t97 40.5t97 -40.5t40 -98.5q0 -57 -40 -97t-97 -40t-97 40t-40 97z
M176 1356q0 58 40 98.5t99 40.5q57 0 97.5 -40.5t40.5 -98.5q0 -57 -40.5 -97t-97.5 -40q-58 0 -98.5 40t-40.5 97zM-182 1356q0 58 40 98.5t97 40.5q59 0 99 -40.5t40 -98.5q0 -57 -40.5 -97t-98.5 -40q-57 0 -97 40t-40 97z" />
    <glyph glyph-name="Yukrcyr_Yukrcyr" unicode="&#x407;&#x407;" horiz-adv-x="1179" 
d="M170 0v1434h250v-1434h-250zM760 0v1434h250v-1434h-250zM-150 1759q0 -60 42 -101.5t102 -41.5t101.5 41.5t41.5 101.5t-41.5 102t-101.5 42t-102 -42t-42 -102zM248 1759q0 -60 41.5 -101.5t101.5 -41.5t102 41.5t42 101.5t-42 102t-102 42t-101.5 -42t-41.5 -102z
M645 1759q0 -60 41.5 -101.5t101.5 -41.5t102 41.5t42 101.5t-42 102t-102 42t-101.5 -42t-41.5 -102zM1042 1759q0 -60 42 -101.5t102 -41.5t101.5 41.5t41.5 101.5t-41.5 102t-101.5 42t-102 -42t-42 -102z" />
    <glyph glyph-name="iukrcyr_yukrcyr" unicode="&#x456;&#x457;" horiz-adv-x="1009" 
d="M133 0v1024h229v-1024h-229zM631 0v1024h229v-1024h-229zM98 1356q0 57 40.5 97t97.5 40t97 -40t40 -97q0 -58 -40 -98.5t-97 -40.5t-97.5 40.5t-40.5 98.5zM455 1356q0 57 40.5 97t98.5 40q57 0 97 -40t40 -97q0 -58 -40 -98.5t-97 -40.5q-58 0 -98.5 40.5t-40.5 98.5z
M813 1356q0 57 40 97t97 40q58 0 99 -40t41 -97q0 -58 -40.5 -98.5t-99.5 -40.5q-57 0 -97 40.5t-40 98.5z" />
    <glyph glyph-name=".notdef" horiz-adv-x="1921" 
d="M844 432l-207 -49q-51 -85 -51 -154q0 -110 94 -184t252 -74q184 0 299 107t115 278h-256q0 -52 -35 -86t-90 -34q-49 0 -79 28.5t-30 69.5q0 44 34 71t79 27h377v238h-412l-49 -176h-19v297h-262v-340h240v-19zM1116 1118q0 -18 -18 -31.5t-43.5 -24.5t-51 -25
t-43.5 -42t-18 -67q0 -91 87.5 -137t246.5 -46h70v228h-52q-40 0 -66 20t-26 51q0 22 16.5 42.5t39.5 37.5t46 36t39.5 47t16.5 61q0 70 -64.5 124t-191.5 54q-103 0 -178 -45l-60 -213h-16v239h-246v-561h262v119q0 97 43.5 153t110.5 56q46 0 71 -24.5t25 -51.5zM217 156
v1122q0 258 134 391t384 133h451q250 0 384 -133t134 -391v-1122q0 -259 -134 -392t-384 -133h-451q-250 0 -384 133t-134 392z" />
    <glyph glyph-name="uni0000" horiz-adv-x="0" 
 />
    <glyph glyph-name="uni0000" horiz-adv-x="0" 
 />
    <glyph glyph-name="uni000D" unicode="&#xd;" horiz-adv-x="266" 
 />
    <glyph glyph-name="uni000A" unicode="&#xa;" horiz-adv-x="454" 
 />
    <glyph glyph-name="space" unicode=" " horiz-adv-x="532" 
 />
    <glyph glyph-name="exclam" unicode="!" horiz-adv-x="518" 
d="M111 133q0 63 42.5 105.5t104.5 42.5t105 -42.5t43 -105.5q0 -61 -43 -103t-105 -42t-104.5 42t-42.5 103zM143 397l-10 1037h252l-10 -1037h-232z" />
    <glyph glyph-name="quotedbl" unicode="&#x22;" horiz-adv-x="804" 
d="M139 870l-18 564h198l-18 -564h-162zM504 870l-19 564h199l-18 -564h-162z" />
    <glyph glyph-name="numbersign" unicode="#" horiz-adv-x="1359" 
d="M518 580h270l50 288h-273zM287 399h-232v181h260l50 288h-238v181h266l66 391l196 -29l-61 -362h272l66 391l196 -29l-61 -362h240v-181h-269l-47 -288h242v-181h-272l-68 -407l-197 28l64 379h-273l-67 -407l-197 28z" />
    <glyph glyph-name="dollar" unicode="$" horiz-adv-x="1333" 
d="M788 -27v-178h-231v180q-339 52 -477 353l205 114q56 -124 160.5 -186.5t242.5 -62.5q132 0 211.5 53.5t79.5 144.5q0 51 -28.5 89t-76.5 62.5t-110 44t-131 37.5t-137.5 38.5t-130.5 52t-110 73t-76.5 106t-28.5 146.5q0 167 109.5 280.5t297.5 139.5v178h231v-182
q143 -27 254.5 -105.5t176.5 -203.5l-205 -123q-52 108 -144.5 165.5t-210.5 57.5q-119 0 -189.5 -54t-70.5 -134q0 -47 28.5 -82t76.5 -57.5t110.5 -40.5t131.5 -36t138 -39t131.5 -54t110.5 -76.5t76.5 -111.5t28.5 -154q0 -180 -118.5 -296t-324.5 -139z" />
    <glyph glyph-name="percent" unicode="%" horiz-adv-x="1714" 
d="M289 49l143 -94l995 1450l-143 92zM432 729q-150 0 -242 104t-92 261q0 155 92 258.5t242 103.5q148 0 240 -103.5t92 -258.5q0 -157 -92 -261t-240 -104zM432 907q65 0 106.5 51.5t41.5 135.5q0 83 -41.5 134.5t-106.5 51.5q-66 0 -107.5 -51.5t-41.5 -134.5
q0 -84 41.5 -135.5t107.5 -51.5zM1284 -23q-149 0 -241.5 104t-92.5 259q0 157 92 261t242 104q148 0 240 -104t92 -261q0 -155 -92 -259t-240 -104zM1284 154q65 0 106.5 51.5t41.5 134.5q0 84 -41.5 135t-106.5 51q-66 0 -107.5 -51t-41.5 -135q0 -83 41.5 -134.5
t107.5 -51.5z" />
    <glyph glyph-name="ampersand" unicode="&#x26;" horiz-adv-x="1449" 
d="M872 268l-348 383q-92 -46 -141 -100t-49 -133q0 -104 81 -168t208 -64q133 0 249 82zM588 883q112 50 170.5 101.5t58.5 127.5q0 72 -51.5 114t-126.5 42q-78 0 -125 -48t-47 -120q0 -44 26 -92.5t95 -124.5zM647 1462q179 0 283 -100t104 -252q0 -73 -24.5 -131.5
t-73 -103t-96.5 -74t-119 -62.5l299 -315q67 96 121 233l190 -77q-71 -186 -162 -314l146 -155l-164 -150l-131 143q-168 -133 -406 -133q-241 0 -383.5 120t-142.5 310q0 77 24 140t70 110t95 80t116 66q-145 171 -145 315q0 69 27 131.5t76.5 111.5t126.5 78t169 29z" />
    <glyph glyph-name="quotesingle" unicode="'" horiz-adv-x="434" 
d="M135 870l-18 564h198l-18 -564h-162z" />
    <glyph glyph-name="parenleft" unicode="(" horiz-adv-x="620" 
d="M104 592q0 263 86.5 514t241.5 446l174 -137q-132 -177 -203 -387.5t-71 -435.5t71 -435.5t203 -387.5l-174 -138q-155 195 -241.5 446.5t-86.5 514.5z" />
    <glyph glyph-name="parenright" unicode=")" horiz-adv-x="620" 
d="M516 592q0 -265 -84.5 -516t-238.5 -445l-179 138q275 373 275 823q0 224 -71.5 435t-203.5 388l179 137q154 -194 238.5 -444.5t84.5 -515.5z" />
    <glyph glyph-name="asterisk" unicode="*" horiz-adv-x="878" 
d="M774 1053l-86 -125l-186 143l14 -244h-151l12 244l-187 -143l-86 125l207 121l-207 120l86 123l187 -141l-12 242h149l-12 -242l186 141l86 -123l-205 -120z" />
    <glyph glyph-name="plus" unicode="+" horiz-adv-x="1120" 
d="M68 639v211h378v405h228v-405h379v-211h-379v-406h-228v406h-378z" />
    <glyph glyph-name="comma" unicode="," horiz-adv-x="534" 
d="M111 135q0 62 42.5 104t106.5 42q72 0 117 -57.5t45 -151.5q0 -203 -209 -406l-100 96q114 117 149 226q-65 0 -108 41t-43 106z" />
    <glyph glyph-name="hyphen" unicode="-" horiz-adv-x="735" 
d="M100 449v198h535v-198h-535z" />
    <glyph glyph-name="period" unicode="." horiz-adv-x="518" 
d="M111 133q0 63 42.5 105.5t104.5 42.5t105 -42.5t43 -105.5q0 -61 -43 -103t-105 -42t-104.5 42t-42.5 103z" />
    <glyph glyph-name="slash" unicode="/" horiz-adv-x="958" 
d="M272 -383l-227 68l643 1890l227 -66z" />
    <glyph glyph-name="zero" unicode="0" horiz-adv-x="1411" 
d="M1303 717q0 -337 -161 -543.5t-437 -206.5t-437.5 206.5t-161.5 543.5q0 223 71.5 392t207.5 263t320 94q276 0 437 -206t161 -543zM354 717q0 -233 91.5 -373.5t259.5 -140.5t259 140.5t91 373.5t-91 373.5t-259 140.5t-259.5 -140.5t-91.5 -373.5z" />
    <glyph glyph-name="one" unicode="1" horiz-adv-x="841" 
d="M672 0h-242v1159l-283 -190l-116 198l395 267h246v-1434z" />
    <glyph glyph-name="two" unicode="2" horiz-adv-x="1159" 
d="M1077 0h-1020v231l553 461q109 92 160 169t51 157q0 99 -70.5 162t-185.5 63q-106 0 -187.5 -56t-127.5 -159l-207 105q169 333 528 333q226 0 361 -120t135 -320q0 -129 -70.5 -241.5t-251.5 -262.5l-358 -299h690v-223z" />
    <glyph glyph-name="three" unicode="3" horiz-adv-x="1224" 
d="M604 -33q-410 0 -565 365l211 100q95 -237 352 -237q134 0 215.5 62t81.5 171q0 92 -61 144.5t-174 52.5h-275v225h270q95 0 151 49.5t56 132.5q0 96 -73 153.5t-191 57.5q-220 0 -317 -207l-205 105q78 160 213 242.5t319 82.5q224 0 362 -112.5t138 -298.5
q0 -115 -54.5 -197t-154.5 -119q116 -40 179 -127.5t63 -210.5q0 -196 -150.5 -315t-390.5 -119z" />
    <glyph glyph-name="four" unicode="4" horiz-adv-x="1318" 
d="M782 1159l-481 -614h481v614zM1014 0h-232v332h-700v258l659 844h273v-889h203v-213h-203v-332z" />
    <glyph glyph-name="five" unicode="5" horiz-adv-x="1220" 
d="M578 -33q-371 0 -519 309l209 105q46 -92 125 -141.5t182 -49.5q135 0 219.5 77t84.5 204q0 120 -77 196t-222 76q-172 0 -261 -122l-186 90l39 723h872v-220h-671l-17 -337q104 73 271 73q226 0 359.5 -132t133.5 -355q0 -236 -150.5 -366t-391.5 -130z" />
    <glyph glyph-name="six" unicode="6" horiz-adv-x="1271" 
d="M668 190q122 0 201 75t79 196q0 120 -78.5 193t-201.5 73t-202 -72.5t-79 -191.5q0 -122 79 -197.5t202 -75.5zM668 -33q-266 0 -414 192.5t-148 555.5q0 359 153.5 555t436.5 196q328 0 480 -274l-193 -127q-87 178 -289 178q-167 0 -261.5 -120.5t-94.5 -338.5
q0 -22 2 -30q60 87 156 132.5t217 45.5q212 0 345.5 -132t133.5 -341q0 -218 -146 -355t-378 -137z" />
    <glyph glyph-name="seven" unicode="7" horiz-adv-x="1103" 
d="M227 0l572 1202h-738v232h1002v-232l-571 -1202h-265z" />
    <glyph glyph-name="eight" unicode="8" horiz-adv-x="1228" 
d="M614 186q131 0 208 62t77 164q0 100 -77.5 161.5t-207.5 61.5t-207 -61.5t-77 -161.5q0 -102 76.5 -164t207.5 -62zM614 834q116 0 184 56.5t68 149.5q0 94 -68.5 152.5t-183.5 58.5t-183.5 -58.5t-68.5 -152.5q0 -93 68 -149.5t184 -56.5zM614 -33q-238 0 -386 116.5
t-148 307.5q0 123 62.5 212t176.5 134q-100 49 -152 132.5t-52 191.5q0 180 138 292.5t361 112.5t361.5 -112.5t138.5 -292.5q0 -108 -52 -191.5t-153 -132.5q114 -45 177 -134t63 -212q0 -191 -148.5 -307.5t-386.5 -116.5z" />
    <glyph glyph-name="nine" unicode="9" horiz-adv-x="1271" 
d="M604 1243q-123 0 -201.5 -75t-78.5 -195t78.5 -193t201.5 -73t202 72.5t79 191.5q0 122 -79 197t-202 75zM604 1466q266 0 413.5 -192t147.5 -555q0 -360 -153.5 -556t-436.5 -196q-327 0 -479 275l193 127q43 -88 117 -133.5t172 -45.5q167 0 261.5 120.5t94.5 338.5
q0 23 -2 31q-60 -87 -156 -132.5t-217 -45.5q-212 0 -345.5 132t-133.5 341q0 218 146 354.5t378 136.5z" />
    <glyph glyph-name="colon" unicode=":" horiz-adv-x="569" 
d="M123 952q0 63 42.5 105.5t104.5 42.5t105 -42.5t43 -105.5q0 -61 -43 -103t-105 -42t-104.5 42t-42.5 103zM123 133q0 63 42.5 105.5t104.5 42.5t105 -42.5t43 -105.5q0 -61 -43 -103t-105 -42t-104.5 42t-42.5 103z" />
    <glyph glyph-name="semicolon" unicode=";" horiz-adv-x="583" 
d="M123 952q0 63 42.5 105.5t104.5 42.5t105 -42.5t43 -105.5q0 -61 -43 -103t-105 -42t-104.5 42t-42.5 103zM115 135q0 62 42.5 104t106.5 42q72 0 117 -57.5t45 -151.5q0 -203 -209 -406l-100 96q114 117 149 226q-65 0 -108 41t-43 106z" />
    <glyph glyph-name="less" unicode="&#x3c;" horiz-adv-x="1089" 
d="M942 197l-821 424v213l821 419l80 -196l-670 -328l670 -332z" />
    <glyph glyph-name="equal" unicode="=" horiz-adv-x="1169" 
d="M100 358v203h967v-203h-967zM100 799v200h967v-200h-967z" />
    <glyph glyph-name="greater" unicode="&#x3e;" horiz-adv-x="1089" 
d="M971 834v-213l-821 -424l-82 200l669 332l-669 328l82 196z" />
    <glyph glyph-name="question" unicode="?" horiz-adv-x="1247" 
d="M436 133q0 63 43 105.5t105 42.5t104.5 -42.5t42.5 -105.5q0 -61 -42.5 -103t-104.5 -42t-105 42t-43 103zM473 397v64q0 77 22 140.5t57.5 106t78.5 78t85.5 64.5t78 58.5t57.5 68t22 84.5q0 85 -69 136.5t-184 51.5q-112 0 -198.5 -52.5t-135.5 -152.5l-195 111
q74 150 211.5 230.5t323.5 80.5q223 0 356 -112t133 -293q0 -71 -23 -128.5t-59.5 -96.5t-80.5 -72.5t-88 -64.5t-80.5 -64.5t-59.5 -80.5t-23 -105v-52h-229z" />
    <glyph glyph-name="at" unicode="@" horiz-adv-x="1867" 
d="M717 575q0 -101 60.5 -163t156.5 -62t156.5 62t60.5 163q0 102 -61 165t-156 63q-96 0 -156.5 -63t-60.5 -165zM520 575q0 173 107.5 290.5t265.5 117.5q173 0 258 -145v133h195v-418q0 -77 26.5 -120.5t75.5 -43.5q113 0 113 217q0 273 -172.5 445t-444.5 172
q-281 0 -455 -181t-174 -467q0 -191 83 -340t227 -230t323 -81q135 0 257.5 48.5t205.5 136.5l131 -160q-109 -111 -261.5 -170.5t-328.5 -59.5q-241 0 -434 109t-302.5 304.5t-109.5 440.5q0 184 63.5 343t174.5 271t266.5 176t333.5 64q174 0 326 -61.5t259.5 -168
t169.5 -256.5t62 -320q0 -202 -83.5 -312t-231.5 -110q-189 0 -252 174q-40 -97 -117.5 -150t-181.5 -53q-159 0 -267 115.5t-108 289.5z" />
    <glyph glyph-name="A" unicode="A" horiz-adv-x="1394" 
d="M694 1147l-200 -594h401zM563 1434h268l521 -1434h-269l-112 334h-553l-113 -334h-262z" />
    <glyph glyph-name="B" unicode="B" horiz-adv-x="1323" 
d="M770 631h-356v-412h356q100 0 160.5 56.5t60.5 150.5q0 92 -60.5 148.5t-160.5 56.5zM414 1214v-370h321q87 0 142 51.5t55 134.5q0 81 -55 132.5t-142 51.5h-321zM170 0v1434h586q192 0 310 -100.5t118 -270.5q0 -110 -53.5 -190.5t-153.5 -118.5q130 -38 198 -130
t68 -225q0 -181 -123.5 -290t-331.5 -109h-618z" />
    <glyph glyph-name="C" unicode="C" horiz-adv-x="1556" 
d="M848 -33q-160 0 -298.5 57t-235.5 156.5t-152.5 238.5t-55.5 298q0 213 94.5 384t264 268t383.5 97q220 0 389 -104t254 -291l-221 -117q-57 132 -165.5 202.5t-254.5 70.5q-215 0 -350 -142t-135 -368t135 -368t350 -142q146 0 254.5 70t165.5 202l221 -117
q-85 -187 -254 -291t-389 -104z" />
    <glyph glyph-name="D" unicode="D" horiz-adv-x="1492" 
d="M170 0v1434h504q206 0 369.5 -93.5t253 -257t89.5 -366.5t-89.5 -366.5t-253 -257t-369.5 -93.5h-504zM649 1202h-229v-971h229q217 0 347 135t130 351t-129.5 350.5t-347.5 134.5z" />
    <glyph glyph-name="E" unicode="E" 
d="M168 0v1434h924v-232h-672v-342h596v-231h-596v-398h672v-231h-924z" />
    <glyph glyph-name="F" unicode="F" 
d="M170 0v1434h922v-232h-672v-364h596v-230h-596v-608h-250z" />
    <glyph glyph-name="G" unicode="G" horiz-adv-x="1632" 
d="M1534 651q0 -314 -184.5 -499t-493.5 -185q-221 0 -393 98.5t-264.5 269.5t-92.5 384t93 383.5t262.5 267t384.5 96.5q212 0 378.5 -93.5t254.5 -260.5l-213 -131q-63 122 -172.5 188t-249.5 66q-216 0 -351 -145t-135 -373t136.5 -373t363.5 -145q177 0 289.5 93
t134.5 257h-561v225h807q6 -70 6 -123z" />
    <glyph glyph-name="H" unicode="H" horiz-adv-x="1505" 
d="M170 0v1434h252v-560h663v560h250v-1434h-250v645h-663v-645h-252z" />
    <glyph glyph-name="I" unicode="I" horiz-adv-x="589" 
d="M168 0v1434h252v-1434h-252z" />
    <glyph glyph-name="J" unicode="J" horiz-adv-x="1251" 
d="M596 211q110 0 176 72t66 192v959h252v-971q0 -223 -135 -357.5t-359 -134.5q-223 0 -357.5 134.5t-134.5 357.5v65l252 25v-78q0 -120 65.5 -192t174.5 -72z" />
    <glyph glyph-name="K" unicode="K" horiz-adv-x="1382" 
d="M1051 0l-400 678l-231 -266v-412h-250v1434h250v-686l571 686h312l-494 -572l530 -862h-288z" />
    <glyph glyph-name="L" unicode="L" horiz-adv-x="1167" 
d="M170 0v1434h250v-1203h672v-231h-922z" />
    <glyph glyph-name="M" unicode="M" horiz-adv-x="1847" 
d="M496 1434l432 -932l432 932h319v-1434h-241v1081l-432 -901h-162l-434 901v-1081h-240v1434h326z" />
    <glyph glyph-name="N" unicode="N" horiz-adv-x="1529" 
d="M170 0v1434h262l692 -1043v1043h238v-1434h-262l-690 1042v-1042h-240z" />
    <glyph glyph-name="O" unicode="O" horiz-adv-x="1695" 
d="M850 -33q-214 0 -384 97t-265 268t-95 385t95 385t265 267.5t384 96.5q212 0 381 -96.5t263.5 -268t94.5 -384.5q0 -214 -94.5 -385t-263.5 -268t-381 -97zM852 207q210 0 343.5 143.5t133.5 368.5q0 222 -133.5 365t-343.5 143q-216 0 -351.5 -143t-135.5 -365
q0 -225 135.5 -368.5t351.5 -143.5z" />
    <glyph glyph-name="P" unicode="P" horiz-adv-x="1304" 
d="M414 1208v-487h311q110 0 178 68t68 176t-68 175.5t-178 67.5h-311zM414 0h-246v1434h571q216 0 350 -129.5t134 -339.5q0 -211 -134 -340t-350 -129h-325v-496z" />
    <glyph glyph-name="Q" unicode="Q" horiz-adv-x="1712" 
d="M858 209q135 0 244 61l-180 215l159 138l172 -207q86 131 86 301q0 220 -135 364t-346 144q-213 0 -348 -144t-135 -364q0 -221 134.5 -364.5t348.5 -143.5zM858 -33q-213 0 -383 97.5t-265 268.5t-95 384t95 384t265 268t383 97q212 0 381 -97t263.5 -268t94.5 -384
q0 -299 -176 -500l144 -170l-158 -137l-143 170q-180 -113 -406 -113z" />
    <glyph glyph-name="R" unicode="R" horiz-adv-x="1333" 
d="M414 1208v-475h321q102 0 169 64.5t67 171.5t-67 173t-169 66h-321zM1010 0l-332 508h-264v-508h-244v1434h571q217 0 349.5 -127.5t132.5 -337.5q0 -159 -77 -271.5t-214 -160.5l358 -537h-280z" />
    <glyph glyph-name="S" unicode="S" horiz-adv-x="1320" 
d="M680 -33q-441 0 -614 383l219 109q125 -262 401 -262q132 0 213.5 53.5t81.5 144.5q0 51 -29 89.5t-78 63t-112.5 44t-133.5 37.5t-140 38.5t-133.5 51.5t-112.5 72.5t-78 106t-29 146.5q0 190 141.5 306t376.5 116q195 0 343 -85t229 -248l-211 -111q-50 105 -142.5 162
t-216.5 57q-123 0 -196.5 -52.5t-73.5 -129.5q0 -46 29 -80.5t78.5 -56t113 -39.5t134 -35.5t141 -38.5t134 -54t113 -77t78.5 -112t29 -154q0 -204 -150 -324.5t-405 -120.5z" />
    <glyph glyph-name="T" unicode="T" horiz-adv-x="1263" 
d="M76 1434h1114v-232h-428v-1202h-258v1202h-428v232z" />
    <glyph glyph-name="U" unicode="U" horiz-adv-x="1478" 
d="M739 -33q-168 0 -297.5 67t-204.5 200.5t-75 316.5v883h252v-863q0 -177 87.5 -271.5t239.5 -94.5q149 0 236.5 95t87.5 271v863h252v-883q0 -183 -75 -316.5t-205 -200.5t-298 -67z" />
    <glyph glyph-name="V" unicode="V" horiz-adv-x="1394" 
d="M834 0h-275l-516 1434h279l378 -1127l379 1127h273z" />
    <glyph glyph-name="W" unicode="W" horiz-adv-x="2084" 
d="M729 0h-276l-410 1434h279l286 -1059l295 1059h281l297 -1057l286 1057h275l-410 -1434h-276l-314 1110z" />
    <glyph glyph-name="X" unicode="X" horiz-adv-x="1323" 
d="M330 0h-287l457 739l-426 695h286l306 -516l305 516h278l-426 -695l457 -739h-295l-328 559z" />
    <glyph glyph-name="Y" unicode="Y" horiz-adv-x="1304" 
d="M778 0h-252v573l-483 861h276l336 -641l336 641h273l-486 -861v-573z" />
    <glyph glyph-name="Z" unicode="Z" horiz-adv-x="1370" 
d="M170 1202v232h1067v-248l-823 -955h823v-231h-1104v248l823 954h-786z" />
    <glyph glyph-name="bracketleft" unicode="[" horiz-adv-x="706" 
d="M143 -352v1888h500v-217h-272v-1454h272v-217h-500z" />
    <glyph glyph-name="backslash" unicode="\" horiz-adv-x="958" 
d="M913 -315l-227 -68l-643 1892l227 66z" />
    <glyph glyph-name="bracketright" unicode="]" horiz-adv-x="706" 
d="M563 -352h-500v217h271v1454h-271v217h500v-1888z" />
    <glyph glyph-name="asciicircum" unicode="^" horiz-adv-x="1173" 
d="M1130 549h-227l-317 651l-318 -651h-225l430 885h225z" />
    <glyph glyph-name="underscore" unicode="_" horiz-adv-x="1169" 
d="M92 -270v219h985v-219h-985z" />
    <glyph glyph-name="grave" unicode="`" horiz-adv-x="540" 
d="M295 1202l-229 328h258l188 -328h-217z" />
    <glyph glyph-name="a" unicode="a" horiz-adv-x="1122" 
d="M768 446v17l-197 -8q-272 -11 -272 -156q0 -63 49 -100t131 -37q124 0 206.5 80t82.5 204zM989 0h-221v154q-53 -89 -140.5 -136t-203.5 -47q-162 0 -256 88t-94 226q0 152 119 241.5t344 96.5l231 10v10q0 99 -62.5 159t-168.5 60q-179 0 -254 -157l-181 90
q56 123 169.5 190.5t271.5 67.5q205 0 325.5 -111.5t120.5 -302.5v-639z" />
    <glyph glyph-name="b" unicode="b" horiz-adv-x="1286" 
d="M666 186q132 0 217.5 93.5t85.5 234.5t-85.5 232.5t-217.5 91.5t-218 -91.5t-86 -232.5t86 -234.5t218 -93.5zM721 -29q-237 0 -359 195v-166h-229v1479h229v-621q122 195 359 195q212 0 348.5 -154t136.5 -387t-136.5 -387t-348.5 -154z" />
    <glyph glyph-name="c" unicode="c" horiz-adv-x="1155" 
d="M621 -29q-236 0 -387.5 153t-151.5 388t151.5 388t387.5 153q162 0 284 -76.5t182 -214.5l-200 -105q-38 88 -107.5 134.5t-161.5 46.5q-133 0 -217 -92t-84 -234t84 -234t217 -92q92 0 161.5 46.5t107.5 134.5l200 -105q-60 -138 -182 -214.5t-284 -76.5z" />
    <glyph glyph-name="d" unicode="d" horiz-adv-x="1286" 
d="M621 186q132 0 217.5 93.5t85.5 234.5t-85.5 232.5t-217.5 91.5t-218 -91.5t-86 -232.5t86 -234.5t218 -93.5zM565 -29q-141 0 -252 70.5t-172 194t-61 276.5t61 276.5t172 194t252 70.5q237 0 359 -195v621h229v-1479h-229v166q-122 -195 -359 -195z" />
    <glyph glyph-name="e" unicode="e" 
d="M319 623h566q-12 105 -85.5 168t-185.5 63q-111 0 -189.5 -62.5t-105.5 -168.5zM627 -29q-241 0 -394 152t-153 391q0 237 152 388t386 151q224 0 362 -139.5t138 -364.5q0 -51 -8 -103h-799q20 -123 105 -196.5t213 -73.5q185 0 276 148l166 -131q-75 -108 -189 -165
t-255 -57z" />
    <glyph glyph-name="f" unicode="f" horiz-adv-x="755" 
d="M428 1069v-45h268v-209h-268v-815h-229v815h-168v209h168v51q0 416 405 416h88v-213h-71q-102 0 -147.5 -50.5t-45.5 -158.5z" />
    <glyph glyph-name="g" unicode="g" horiz-adv-x="1095" 
d="M315 698q0 -76 61 -122t161 -46t159.5 45.5t59.5 122.5t-59.5 122.5t-159.5 45.5t-161 -46t-61 -122zM258 -121q0 -60 71 -92.5t199 -32.5q141 0 226.5 37.5t85.5 99.5q0 57 -73.5 87t-209.5 30q-143 0 -221 -34t-78 -95zM1057 1036l-150 -143q62 -83 62 -195
q0 -156 -119 -255t-313 -99q-82 0 -166 23q-43 -29 -43 -74q0 -47 56 -70t185 -24q248 -2 377 -78t129 -221q0 -158 -147 -248t-402 -90q-232 0 -358.5 75t-126.5 213q0 87 52 150t147 94q-99 64 -99 170q0 93 88 172q-127 99 -127 262q0 157 119.5 256t315.5 99
q140 0 245 -54l152 158z" />
    <glyph glyph-name="h" unicode="h" horiz-adv-x="1175" 
d="M362 0h-229v1479h229v-598q94 172 304 172q173 0 278 -113t105 -299v-641h-230v580q0 124 -54.5 192t-156.5 68q-108 0 -177 -73t-69 -189v-578z" />
    <glyph glyph-name="i" unicode="i" horiz-adv-x="497" 
d="M133 0v1024h229v-1024h-229zM106 1356q0 61 41.5 101t102.5 40q59 0 99 -40t40 -101q0 -60 -40 -99.5t-99 -39.5q-61 0 -102.5 39.5t-41.5 99.5z" />
    <glyph glyph-name="j" unicode="j" horiz-adv-x="497" 
d="M133 27v997h229v-1028q0 -205 -96.5 -311.5t-283.5 -106.5h-70v219h41q100 0 140 53.5t40 176.5zM109 1356q0 -60 40.5 -99.5t100.5 -39.5t99.5 39.5t39.5 99.5q0 61 -39.5 101t-99.5 40t-100.5 -40t-40.5 -101z" />
    <glyph glyph-name="k" unicode="k" horiz-adv-x="1103" 
d="M362 584l406 440h287l-402 -422l414 -602h-264l-293 453l-148 -154v-299h-229v1434h229v-850z" />
    <glyph glyph-name="l" unicode="l" horiz-adv-x="497" 
d="M362 0h-229v1479h229v-1479z" />
    <glyph glyph-name="m" unicode="m" horiz-adv-x="1755" 
d="M362 0h-229v1024h229v-139q91 168 289 168q103 0 180.5 -49t120.5 -140q42 93 122.5 141t187.5 48q165 0 265.5 -108.5t100.5 -291.5v-653h-229v598q0 117 -49.5 179.5t-141.5 62.5q-97 0 -155 -66t-58 -176v-598h-229v598q0 117 -49.5 179.5t-141.5 62.5q-97 0 -155 -66
t-58 -176v-598z" />
    <glyph glyph-name="n" unicode="n" horiz-adv-x="1175" 
d="M362 0h-229v1024h229v-147q95 176 306 176q172 0 276.5 -113t104.5 -299v-641h-230v580q0 124 -54.5 192t-156.5 68q-109 0 -177.5 -72.5t-68.5 -189.5v-578z" />
    <glyph glyph-name="o" unicode="o" horiz-adv-x="1239" 
d="M621 -29q-235 0 -387 154t-152 387t152 387t387 154t386.5 -154t151.5 -387t-151.5 -387t-386.5 -154zM621 186q132 0 217.5 92.5t85.5 233.5t-85.5 233.5t-217.5 92.5t-218 -92.5t-86 -233.5t86 -233.5t218 -92.5z" />
    <glyph glyph-name="p" unicode="p" horiz-adv-x="1286" 
d="M666 186q132 0 217.5 93.5t85.5 234.5t-85.5 232.5t-217.5 91.5t-218 -91.5t-86 -232.5t86 -234.5t218 -93.5zM721 -29q-237 0 -359 195v-576h-229v1434h229v-166q122 195 359 195q141 0 252 -70.5t172 -194t61 -276.5t-61 -276.5t-172 -194t-252 -70.5z" />
    <glyph glyph-name="q" unicode="q" horiz-adv-x="1286" 
d="M621 186q132 0 217.5 93.5t85.5 234.5t-85.5 232.5t-217.5 91.5t-218 -91.5t-86 -232.5t86 -234.5t218 -93.5zM565 -29q-141 0 -252 70.5t-172 194t-61 276.5t61 276.5t172 194t252 70.5q237 0 359 -195v166h229v-1434h-229v576q-122 -195 -359 -195z" />
    <glyph glyph-name="r" unicode="r" horiz-adv-x="753" 
d="M647 1036h64v-211h-58q-291 0 -291 -311v-514h-229v1024h229v-164q81 176 285 176z" />
    <glyph glyph-name="s" unicode="s" horiz-adv-x="1028" 
d="M530 -29q-163 0 -282 68.5t-182 198.5l174 106q90 -178 295 -178q89 0 144.5 34t55.5 89q0 41 -34 68.5t-88.5 44t-120.5 30.5t-132 35.5t-120.5 52t-88.5 86t-34 131.5q0 140 108 228t293 88q149 0 257 -60t167 -176l-174 -104q-79 149 -256 149q-82 0 -131 -32.5
t-49 -81.5q0 -38 34.5 -63.5t89.5 -40.5t121.5 -28.5t133 -35t121.5 -53t89.5 -88.5t34.5 -136q0 -151 -116.5 -241.5t-309.5 -90.5z" />
    <glyph glyph-name="t" unicode="t" horiz-adv-x="774" 
d="M434 815v-393q0 -113 49.5 -164t157.5 -51h74v-219h-103q-205 0 -306 103t-101 315v409h-174v209h174v287h229v-287h273v-209h-273z" />
    <glyph glyph-name="u" unicode="u" horiz-adv-x="1175" 
d="M813 1024h229v-1024h-229v147q-95 -176 -305 -176q-172 0 -276.5 113t-104.5 299v641h229v-580q0 -124 54.5 -192t156.5 -68q109 0 177.5 72.5t68.5 189.5v578z" />
    <glyph glyph-name="v" unicode="v" horiz-adv-x="1097" 
d="M668 0h-238l-395 1024h252l264 -741l264 741h248z" />
    <glyph glyph-name="w" unicode="w" horiz-adv-x="1656" 
d="M594 0h-225l-326 1024h238l215 -727l231 727h209l233 -725l213 725h232l-326 -1024h-225l-234 725z" />
    <glyph glyph-name="x" unicode="x" horiz-adv-x="1081" 
d="M1024 1024l-344 -502l367 -522h-267l-241 377l-244 -377h-260l366 522l-344 502h258l230 -358l227 358h252z" />
    <glyph glyph-name="y" unicode="y" horiz-adv-x="1095" 
d="M274 -410l166 422l-405 1012h241l277 -741l268 741h240l-555 -1434h-232z" />
    <glyph glyph-name="z" unicode="z" horiz-adv-x="1007" 
d="M86 0v217l565 598h-542v209h811v-217l-568 -598h570v-209h-836z" />
    <glyph glyph-name="braceleft" unicode="{" horiz-adv-x="856" 
d="M793 -135v-217h-80q-216 0 -324 115t-108 339v230q0 69 -41 109t-113 40h-33v219h35q70 0 111 40.5t41 109.5v229q0 224 108.5 340.5t323.5 116.5h80v-217h-68q-113 0 -164 -67t-51 -201v-248q0 -78 -46.5 -136t-123.5 -75q76 -17 123 -76t47 -137v-246q0 -134 51 -201
t164 -67h68z" />
    <glyph glyph-name="bar" unicode="|" horiz-adv-x="616" 
d="M424 -352h-234v1888h234v-1888z" />
    <glyph glyph-name="braceright" unicode="}" horiz-adv-x="856" 
d="M141 -352h-78v217h68q113 0 164 67t51 201v246q0 78 47 137t123 76q-77 17 -123.5 75t-46.5 136v248q0 134 -51 201t-164 67h-68v217h78q216 0 324 -116t108 -341v-229q0 -69 41 -109.5t113 -40.5h35v-219h-35q-72 0 -113 -40t-41 -109v-230q0 -454 -432 -454z" />
    <glyph glyph-name="asciitilde" unicode="~" horiz-adv-x="1234" 
d="M76 647q122 213 338 213q64 0 122 -21.5t93.5 -47t83 -47t92.5 -21.5q62 0 115.5 34.5t74.5 90.5l166 -115q-123 -215 -338 -215q-64 0 -122.5 21.5t-96 47t-87 47t-97.5 21.5q-59 0 -106.5 -33.5t-75.5 -91.5z" />
    <glyph glyph-name="exclamdown" unicode="&#xa1;" horiz-adv-x="518" 
d="M111 891q0 61 42.5 103t104.5 42t105 -42t43 -103q0 -63 -43 -105.5t-105 -42.5t-104.5 42.5t-42.5 105.5zM133 -410l10 1037h232l10 -1037h-252z" />
    <glyph glyph-name="cent" unicode="&#xa2;" horiz-adv-x="1155" 
d="M733 -18v-316h-223v316q-193 34 -311.5 179t-118.5 351t118.5 351t311.5 179v326h223v-326q122 -23 213.5 -95t140.5 -185l-200 -105q-38 87 -108 134t-161 47q-133 0 -217 -92t-84 -234t84 -234t217 -92q91 0 161 47t108 134l200 -105q-49 -113 -140.5 -185t-213.5 -95z
" />
    <glyph glyph-name="sterling" unicode="&#xa3;" horiz-adv-x="1210" 
d="M268 588h-205v200h142q-41 109 -41 211q0 210 140 338.5t368 128.5q183 0 309.5 -88.5t185.5 -257.5l-213 -78q-72 203 -280 203q-129 0 -201 -72t-72 -196q0 -64 37 -189h508v-200h-452q6 -41 6 -82q0 -170 -103 -281h774v-225h-1108v197q213 55 213 297q0 55 -8 94z
" />
    <glyph glyph-name="yen" unicode="&#xa5;" horiz-adv-x="1234" 
d="M1094 614v-292h-373v-322h-209v322h-371v292h361l-459 820h250l325 -635l326 635h248l-461 -820h363z" />
    <glyph glyph-name="dieresis" unicode="&#xa8;" horiz-adv-x="849" 
d="M63 1356q0 61 41 101t101 40t100.5 -40t40.5 -101q0 -60 -40.5 -99.5t-100.5 -39.5t-101 39.5t-41 99.5zM508 1356q0 61 41 101t100 40q60 0 99.5 -40t39.5 -101q0 -60 -39.5 -99.5t-99.5 -39.5q-59 0 -100 40t-41 99z" />
    <glyph glyph-name="copyright" unicode="&#xa9;" horiz-adv-x="1900" 
d="M950 -66q180 0 322.5 83.5t221.5 229t79 326.5t-79 326.5t-221.5 229t-322.5 83.5q-179 0 -322 -83.5t-221.5 -229t-78.5 -326.5t78.5 -326.5t221.5 -229t322 -83.5zM956 125q-195 0 -319.5 126.5t-124.5 321.5q0 196 125 322.5t319 126.5q132 0 231 -63t152 -177
l-180 -94q-63 135 -207 135q-100 0 -165.5 -72t-65.5 -178q0 -105 65.5 -177t165.5 -72q144 0 207 135l180 -94q-53 -114 -152 -177t-231 -63zM950 1362q167 0 312 -60t247.5 -164.5t161 -250.5t58.5 -314q0 -224 -100 -404t-278.5 -282t-400.5 -102q-167 0 -311.5 60
t-247 164t-161 250t-58.5 314t58.5 314t161 250.5t247 164.5t311.5 60z" />
    <glyph glyph-name="ordfeminine" unicode="&#xaa;" horiz-adv-x="647" 
d="M467 961v10l-117 -4q-135 -6 -135 -82q0 -35 25 -53.5t69 -18.5q68 0 113 42t45 106zM606 711h-139v84q-61 -103 -193 -103q-92 0 -146 49t-54 129q0 90 69.5 141.5t198.5 55.5l125 6q-1 53 -36 84t-91 31q-95 0 -133 -84l-117 57q77 150 258 150q120 0 189 -64.5
t69 -175.5v-360z" />
    <glyph glyph-name="guillemotleft" unicode="&#xab;" horiz-adv-x="1222" 
d="M973 -23l-428 535l428 535l168 -123l-334 -412l334 -412zM500 -23l-428 535l428 535l168 -123l-334 -412l334 -412z" />
    <glyph glyph-name="macron" unicode="&#xaf;" horiz-adv-x="722" 
d="M61 1231v182h601v-182h-601z" />
    <glyph glyph-name="plusminus" unicode="&#xb1;" horiz-adv-x="1210" 
d="M113 797v204h383v408h219v-408h383v-204h-383v-408h-219v408h-383zM113 33v207h985v-207h-985z" />
    <glyph glyph-name="twosuperior" unicode="&#xb2;" horiz-adv-x="663" 
d="M616 664h-561v139l291 248q103 86 103 153q0 47 -33.5 75t-87.5 28q-113 0 -160 -113l-133 68q94 190 297 190q127 0 201.5 -65.5t74.5 -176.5q0 -65 -40.5 -123.5t-141.5 -142.5l-160 -133h350v-147z" />
    <glyph glyph-name="threesuperior" unicode="&#xb3;" horiz-adv-x="702" 
d="M354 645q-233 0 -319 207l137 68q49 -127 180 -127q64 0 105 29t41 83q0 41 -28.5 63.5t-80.5 22.5h-151v139h149q41 0 66.5 21.5t25.5 58.5q0 44 -34 70.5t-89 26.5q-117 0 -161 -109l-136 70q90 184 303 184q122 0 198.5 -61.5t76.5 -159.5q0 -58 -27.5 -102.5
t-77.5 -67.5q59 -25 91 -72t32 -110q0 -105 -84 -169.5t-217 -64.5z" />
    <glyph glyph-name="acute" unicode="&#xb4;" horiz-adv-x="518" 
d="M41 1202l180 328h258l-221 -328h-217z" />
    <glyph glyph-name="uni00B5" unicode="&#xb5;" horiz-adv-x="1294" 
d="M362 -410h-229v1434h229v-580q0 -124 54.5 -192t156.5 -68q109 0 177.5 72.5t68.5 189.5v578h230v-606q0 -112 42 -165.5t136 -53.5h26v-211h-49q-218 0 -297 166q-47 -88 -131 -135.5t-194 -47.5q-129 0 -220 64v-445z" />
    <glyph glyph-name="periodcentered" unicode="&#xb7;" horiz-adv-x="518" 
d="M113 592q0 63 42.5 105t104.5 42t105 -42t43 -105t-43 -105.5t-105 -42.5t-104.5 42.5t-42.5 105.5z" />
    <glyph glyph-name="cedilla" unicode="&#xb8;" horiz-adv-x="620" 
d="M141 -442q-117 0 -227 63l66 152q71 -52 147 -52q74 0 114 40.5t40 107.5q0 65 -48 141l160 45q60 -105 60 -202q0 -127 -81 -211t-231 -84z" />
    <glyph glyph-name="onesuperior" unicode="&#xb9;" horiz-adv-x="481" 
d="M371 664h-156v587l-139 -96l-72 133l215 146h152v-770z" />
    <glyph glyph-name="guillemotright" unicode="&#xbb;" horiz-adv-x="1222" 
d="M250 1047l428 -535l-428 -535l-168 123l334 412l-334 412zM723 1047l428 -535l-428 -535l-168 123l334 412l-334 412z" />
    <glyph glyph-name="questiondown" unicode="&#xbf;" horiz-adv-x="1243" 
d="M786 891q0 -63 -42.5 -105.5t-104.5 -42.5t-104.5 42.5t-42.5 105.5q0 61 42.5 103t104.5 42t104.5 -42t42.5 -103zM750 627v-64q0 -68 -17.5 -125.5t-45.5 -97t-64 -75t-74 -60.5t-74 -53t-64 -53.5t-45.5 -60.5t-17.5 -75q0 -85 69.5 -136.5t184.5 -51.5
q112 0 198.5 52.5t135.5 152.5l194 -111q-74 -150 -211 -230.5t-323 -80.5q-223 0 -356.5 112t-133.5 293q0 71 23 128.5t59.5 96.5t80.5 72.5t88 64.5t80.5 64.5t59.5 80.5t23 105v52h230z" />
    <glyph glyph-name="Agrave" unicode="&#xc0;" horiz-adv-x="1394" 
d="M895 553l-201 594l-200 -594h401zM43 0l520 1434h268l521 -1434h-269l-112 334h-553l-113 -334h-262zM594 1915l227 -309h-246l-264 309h283z" />
    <glyph glyph-name="Aacute" unicode="&#xc1;" horiz-adv-x="1394" 
d="M895 553l-201 594l-200 -594h401zM43 0l520 1434h268l521 -1434h-269l-112 334h-553l-113 -334h-262zM829 1606h-245l227 309h283z" />
    <glyph glyph-name="Acircumflex" unicode="&#xc2;" horiz-adv-x="1394" 
d="M895 553l-201 594l-200 -594h401zM43 0l520 1434h268l521 -1434h-269l-112 334h-553l-113 -334h-262zM510 1606h-246l336 309h193l335 -309h-243l-189 155z" />
    <glyph glyph-name="Atilde" unicode="&#xc3;" horiz-adv-x="1394" 
d="M895 553l-201 594l-200 -594h401zM43 0l520 1434h268l521 -1434h-269l-112 334h-553l-113 -334h-262zM473 1622h-180q0 153 73 225t185 72q48 0 86.5 -13.5t62 -32.5t44 -37.5t43.5 -32t49 -13.5q86 0 86 129h178q0 -156 -70 -228.5t-182 -72.5q-48 0 -86.5 13.5
t-62.5 33t-44.5 38.5t-43.5 32.5t-48 13.5q-43 0 -66.5 -33.5t-23.5 -93.5z" />
    <glyph glyph-name="Adieresis" unicode="&#xc4;" horiz-adv-x="1394" 
d="M895 553l-201 594l-200 -594h401zM43 0l520 1434h268l521 -1434h-269l-112 334h-553l-113 -334h-262zM317 1741q0 63 43 105t105 42q63 0 106 -42t43 -105q0 -62 -43 -104t-106 -42q-62 0 -105 42.5t-43 103.5zM780 1741q0 63 43 105t105 42q63 0 106 -42t43 -105
q0 -62 -43 -104t-106 -42q-62 0 -105 42.5t-43 103.5z" />
    <glyph glyph-name="Aring" unicode="&#xc5;" horiz-adv-x="1394" 
d="M895 553l-201 594l-200 -594h401zM698 1739q40 0 69.5 29.5t29.5 72.5q0 42 -29.5 71.5t-69.5 29.5t-69 -29.5t-29 -71.5q0 -44 29 -73t69 -29zM43 0l520 1434h268l521 -1434h-269l-112 334h-553l-113 -334h-262zM698 1595q-108 0 -178.5 69.5t-70.5 176.5q0 106 71 175
t178 69q106 0 178 -69.5t72 -174.5q0 -107 -71.5 -176.5t-178.5 -69.5z" />
    <glyph glyph-name="AE" unicode="&#xc6;" horiz-adv-x="2029" 
d="M999 1174l-362 -621h362v621zM1923 0h-924v334h-491l-195 -334h-270l870 1434h1010v-230h-672v-344h594v-229h-594v-400h672v-231z" />
    <glyph glyph-name="Ccedilla" unicode="&#xc7;" horiz-adv-x="1556" 
d="M719 -471q-117 0 -227 63l65 152q69 -51 148 -51q74 0 113.5 40t39.5 107q0 60 -39 127q-207 7 -370 106t-253 267.5t-90 376.5q0 213 94.5 384t264 268t383.5 97q220 0 389 -104t254 -291l-221 -117q-57 132 -165.5 202.5t-254.5 70.5q-215 0 -350 -142t-135 -368
t135 -368t350 -142q146 0 254.5 70t165.5 202l221 -117q-70 -154 -198.5 -252.5t-297.5 -129.5q35 -82 35 -156q0 -127 -80.5 -211t-230.5 -84z" />
    <glyph glyph-name="Egrave" unicode="&#xc8;" 
d="M168 0v1434h924v-232h-672v-342h596v-231h-596v-398h672v-231h-924zM819 1606h-246l-264 309h283z" />
    <glyph glyph-name="Eacute" unicode="&#xc9;" 
d="M168 0v1434h924v-232h-672v-342h596v-231h-596v-398h672v-231h-924zM494 1606l227 309h283l-265 -309h-245z" />
    <glyph glyph-name="Ecircumflex" unicode="&#xca;" 
d="M168 0v1434h924v-232h-672v-342h596v-231h-596v-398h672v-231h-924zM211 1606l336 309h192l336 -309h-244l-188 155l-186 -155h-246z" />
    <glyph glyph-name="Edieresis" unicode="&#xcb;" 
d="M168 0v1434h924v-232h-672v-342h596v-231h-596v-398h672v-231h-924zM264 1741q0 63 43 105t105 42q63 0 106 -42t43 -105q0 -62 -43 -104t-106 -42q-62 0 -105 42.5t-43 103.5zM727 1741q0 63 42.5 105t104.5 42q63 0 106.5 -42t43.5 -105q0 -61 -43.5 -103.5
t-106.5 -42.5q-62 0 -104.5 42.5t-42.5 103.5z" />
    <glyph glyph-name="Igrave" unicode="&#xcc;" horiz-adv-x="589" 
d="M168 0v1434h252v-1434h-252zM426 1606h-246l-264 309h283z" />
    <glyph glyph-name="Iacute" unicode="&#xcd;" horiz-adv-x="589" 
d="M168 0v1434h252v-1434h-252zM174 1606l227 309h283l-264 -309h-246z" />
    <glyph glyph-name="Icircumflex" unicode="&#xce;" horiz-adv-x="589" 
d="M168 0v1434h252v-1434h-252zM-137 1606l336 309h192l336 -309h-244l-188 155l-186 -155h-246z" />
    <glyph glyph-name="Idieresis" unicode="&#xcf;" horiz-adv-x="589" 
d="M168 0v1434h252v-1434h-252zM-84 1741q0 63 42.5 105t104.5 42q63 0 106.5 -42t43.5 -105q0 -61 -43.5 -103.5t-106.5 -42.5q-62 0 -104.5 42.5t-42.5 103.5zM379 1741q0 63 42.5 105t104.5 42q63 0 106.5 -42t43.5 -105q0 -61 -43.5 -103.5t-106.5 -42.5
q-62 0 -104.5 42.5t-42.5 103.5z" />
    <glyph glyph-name="Eth" unicode="&#xd0;" horiz-adv-x="1579" 
d="M766 616h-260v-385h229q217 0 347 135t130 351t-129.5 350.5t-347.5 134.5h-229v-354h260v-232zM256 616h-188v232h188v586h504q206 0 369.5 -93.5t253.5 -257t90 -366.5t-90 -366.5t-253.5 -257t-369.5 -93.5h-504v616z" />
    <glyph glyph-name="Ntilde" unicode="&#xd1;" horiz-adv-x="1529" 
d="M170 0v1434h262l692 -1043v1043h238v-1434h-262l-690 1042v-1042h-240zM543 1622h-181q0 153 73.5 225t185.5 72q48 0 86.5 -13.5t62 -32.5t43.5 -37.5t43 -32t49 -13.5q86 0 86 129h178q0 -156 -69.5 -228.5t-181.5 -72.5q-48 0 -86.5 13.5t-62.5 33t-44.5 38.5
t-43.5 32.5t-48 13.5q-43 0 -66.5 -33.5t-23.5 -93.5z" />
    <glyph glyph-name="Ograve" unicode="&#xd2;" horiz-adv-x="1695" 
d="M850 -33q-214 0 -384 97t-265 268t-95 385t95 385t265 267.5t384 96.5q212 0 381 -96.5t263.5 -268t94.5 -384.5q0 -214 -94.5 -385t-263.5 -268t-381 -97zM852 207q210 0 343.5 143.5t133.5 368.5q0 222 -133.5 365t-343.5 143q-216 0 -351.5 -143t-135.5 -365
q0 -225 135.5 -368.5t351.5 -143.5zM991 1606h-246l-264 309h283z" />
    <glyph glyph-name="Oacute" unicode="&#xd3;" horiz-adv-x="1695" 
d="M850 -33q-214 0 -384 97t-265 268t-95 385t95 385t265 267.5t384 96.5q212 0 381 -96.5t263.5 -268t94.5 -384.5q0 -214 -94.5 -385t-263.5 -268t-381 -97zM852 207q210 0 343.5 143.5t133.5 368.5q0 222 -133.5 365t-343.5 143q-216 0 -351.5 -143t-135.5 -365
q0 -225 135.5 -368.5t351.5 -143.5zM715 1606l227 309h283l-264 -309h-246z" />
    <glyph glyph-name="Ocircumflex" unicode="&#xd4;" horiz-adv-x="1695" 
d="M852 207q210 0 343.5 143.5t133.5 368.5q0 222 -133.5 365t-343.5 143q-216 0 -351.5 -143t-135.5 -365q0 -225 135.5 -368.5t351.5 -143.5zM850 -33q-214 0 -384 97t-265 268t-95 385t95 385t265 267.5t384 96.5q212 0 381 -96.5t263.5 -268t94.5 -384.5
q0 -214 -94.5 -385t-263.5 -268t-381 -97zM662 1606h-246l336 309h192l336 -309h-244l-188 155z" />
    <glyph glyph-name="Otilde" unicode="&#xd5;" horiz-adv-x="1695" 
d="M852 207q210 0 343.5 143.5t133.5 368.5q0 222 -133.5 365t-343.5 143q-216 0 -351.5 -143t-135.5 -365q0 -225 135.5 -368.5t351.5 -143.5zM850 -33q-214 0 -384 97t-265 268t-95 385t95 385t265 267.5t384 96.5q212 0 381 -96.5t263.5 -268t94.5 -384.5
q0 -214 -94.5 -385t-263.5 -268t-381 -97zM625 1622h-181q0 153 73 225t185 72q48 0 86.5 -13.5t62 -32.5t44 -37.5t43.5 -32t49 -13.5q86 0 86 129h178q0 -156 -70 -228.5t-182 -72.5q-48 0 -86.5 13.5t-62.5 33t-44 38.5t-43 32.5t-48 13.5q-43 0 -66.5 -33.5t-23.5 -93.5
z" />
    <glyph glyph-name="Odieresis" unicode="&#xd6;" horiz-adv-x="1695" 
d="M850 -33q-214 0 -384 97t-265 268t-95 385t95 385t265 267.5t384 96.5q212 0 381 -96.5t263.5 -268t94.5 -384.5q0 -214 -94.5 -385t-263.5 -268t-381 -97zM852 207q210 0 343.5 143.5t133.5 368.5q0 222 -133.5 365t-343.5 143q-216 0 -351.5 -143t-135.5 -365
q0 -225 135.5 -368.5t351.5 -143.5zM469 1741q0 63 42.5 105t104.5 42q63 0 106.5 -42t43.5 -105q0 -61 -43.5 -103.5t-106.5 -42.5q-62 0 -104.5 42.5t-42.5 103.5zM932 1741q0 63 42.5 105t104.5 42q63 0 106.5 -42t43.5 -105q0 -61 -43.5 -103.5t-106.5 -42.5
q-62 0 -104.5 42.5t-42.5 103.5z" />
    <glyph glyph-name="multiply" unicode="&#xd7;" horiz-adv-x="972" 
d="M63 1018l150 149l272 -280l287 295l154 -154l-297 -287l280 -270l-149 -149l-271 280l-288 -297l-154 156l297 287z" />
    <glyph glyph-name="Oslash" unicode="&#xd8;" horiz-adv-x="1695" 
d="M432 449l694 696q-118 82 -274 82q-215 0 -350 -142.5t-135 -365.5q0 -155 65 -270zM1264 989l-697 -696q122 -86 285 -86q211 0 345 144t134 368q0 152 -67 270zM399 109l-188 -189l-160 160l191 190q-136 195 -136 447q0 213 95.5 384.5t265.5 268t383 96.5
q252 0 446 -139l187 189l159 -160l-188 -191q135 -193 135 -448q0 -214 -94.5 -385t-263.5 -268t-381 -97q-260 0 -451 142z" />
    <glyph glyph-name="Ugrave" unicode="&#xd9;" horiz-adv-x="1478" 
d="M739 -33q-168 0 -297.5 67t-204.5 200.5t-75 316.5v883h252v-863q0 -177 87.5 -271.5t239.5 -94.5q149 0 236.5 95t87.5 271v863h252v-883q0 -183 -75 -316.5t-205 -200.5t-298 -67zM905 1606h-246l-264 309h283z" />
    <glyph glyph-name="Uacute" unicode="&#xda;" horiz-adv-x="1478" 
d="M739 -33q-168 0 -297.5 67t-204.5 200.5t-75 316.5v883h252v-863q0 -177 87.5 -271.5t239.5 -94.5q149 0 236.5 95t87.5 271v863h252v-883q0 -183 -75 -316.5t-205 -200.5t-298 -67zM584 1606l227 309h283l-265 -309h-245z" />
    <glyph glyph-name="Ucircumflex" unicode="&#xdb;" horiz-adv-x="1478" 
d="M739 -33q-168 0 -297.5 67t-204.5 200.5t-75 316.5v883h252v-863q0 -177 87.5 -271.5t239.5 -94.5q149 0 236.5 95t87.5 271v863h252v-883q0 -183 -75 -316.5t-205 -200.5t-298 -67zM307 1606l336 309h193l335 -309h-243l-189 155l-186 -155h-246z" />
    <glyph glyph-name="Udieresis" unicode="&#xdc;" horiz-adv-x="1478" 
d="M739 -33q-168 0 -297.5 67t-204.5 200.5t-75 316.5v883h252v-863q0 -177 87.5 -271.5t239.5 -94.5q149 0 236.5 95t87.5 271v863h252v-883q0 -183 -75 -316.5t-205 -200.5t-298 -67zM360 1741q0 63 43 105t105 42q63 0 106 -42t43 -105q0 -62 -43 -104t-106 -42
q-62 0 -105 42.5t-43 103.5zM823 1741q0 63 43 105t105 42q63 0 106 -42t43 -105q0 -62 -43 -104t-106 -42q-62 0 -105 42.5t-43 103.5z" />
    <glyph glyph-name="Yacute" unicode="&#xdd;" horiz-adv-x="1304" 
d="M778 0h-252v573l-483 861h276l336 -641l336 641h273l-486 -861v-573zM532 1606l228 309h282l-264 -309h-246z" />
    <glyph glyph-name="Thorn" unicode="&#xde;" horiz-adv-x="1304" 
d="M414 995v-487h311q110 0 178 68t68 176t-67 175.5t-179 67.5h-311zM414 0h-244v1434h244v-213h325q216 0 350 -129.5t134 -339.5q0 -212 -133.5 -340.5t-350.5 -128.5h-325v-283z" />
    <glyph glyph-name="agrave" unicode="&#xe0;" horiz-adv-x="1126" 
d="M770 446v17l-197 -8q-272 -11 -272 -156q0 -63 49 -100t131 -37q124 0 206.5 80t82.5 204zM991 639v-639h-221v154q-53 -89 -140.5 -136t-203.5 -47q-162 0 -256 88t-94 226q0 152 119 241.5t344 96.5l231 10v10q0 99 -62.5 159t-168.5 60q-179 0 -254 -157l-181 90
q56 123 169.5 190.5t271.5 67.5q205 0 325.5 -111.5t120.5 -302.5zM702 1202h-217l-229 328h258z" />
    <glyph glyph-name="aacute" unicode="&#xe1;" horiz-adv-x="1126" 
d="M770 446v17l-197 -8q-272 -11 -272 -156q0 -63 49 -100t131 -37q124 0 206.5 80t82.5 204zM991 639v-639h-221v154q-53 -89 -140.5 -136t-203.5 -47q-162 0 -256 88t-94 226q0 152 119 241.5t344 96.5l231 10v10q0 99 -62.5 159t-168.5 60q-179 0 -254 -157l-181 90
q56 123 169.5 190.5t271.5 67.5q205 0 325.5 -111.5t120.5 -302.5zM633 1202h-217l180 328h258z" />
    <glyph glyph-name="acircumflex" unicode="&#xe2;" horiz-adv-x="1126" 
d="M770 446v17l-197 -8q-272 -11 -272 -156q0 -63 49 -100t131 -37q124 0 206.5 80t82.5 204zM991 639v-639h-221v154q-53 -89 -140.5 -136t-203.5 -47q-162 0 -256 88t-94 226q0 152 119 241.5t344 96.5l231 10v10q0 99 -62.5 159t-168.5 60q-179 0 -254 -157l-181 90
q56 123 169.5 190.5t271.5 67.5q205 0 325.5 -111.5t120.5 -302.5zM393 1202h-213l291 328h172l291 -328h-213l-164 172z" />
    <glyph glyph-name="atilde" unicode="&#xe3;" horiz-adv-x="1126" 
d="M770 446v17l-197 -8q-272 -11 -272 -156q0 -63 49 -100t131 -37q124 0 206.5 80t82.5 204zM991 639v-639h-221v154q-53 -89 -140.5 -136t-203.5 -47q-162 0 -256 88t-94 226q0 152 119 241.5t344 96.5l231 10v10q0 99 -62.5 159t-168.5 60q-179 0 -254 -157l-181 90
q56 123 169.5 190.5t271.5 67.5q205 0 325.5 -111.5t120.5 -302.5zM428 1325q-37 0 -57.5 -31.5t-20.5 -91.5h-151q0 149 61 218t156 69q42 0 75 -12.5t53.5 -30.5t38.5 -36.5t38 -31t43 -12.5q73 0 73 123h152q0 -149 -59.5 -219t-155.5 -70q-42 0 -74.5 13t-53 31
t-38 36.5t-37.5 31.5t-43 13z" />
    <glyph glyph-name="adieresis" unicode="&#xe4;" horiz-adv-x="1126" 
d="M770 446v17l-197 -8q-272 -11 -272 -156q0 -63 49 -100t131 -37q124 0 206.5 80t82.5 204zM991 639v-639h-221v154q-53 -89 -140.5 -136t-203.5 -47q-162 0 -256 88t-94 226q0 152 119 241.5t344 96.5l231 10v10q0 99 -62.5 159t-168.5 60q-179 0 -254 -157l-181 90
q56 123 169.5 190.5t271.5 67.5q205 0 325.5 -111.5t120.5 -302.5zM188 1356q0 61 41 101t101 40t100.5 -40t40.5 -101q0 -60 -40.5 -99.5t-100.5 -39.5t-101 39.5t-41 99.5zM633 1356q0 61 41 101t100 40q60 0 99.5 -40t39.5 -101q0 -60 -39.5 -99.5t-99.5 -39.5
q-59 0 -100 40t-41 99z" />
    <glyph glyph-name="aring" unicode="&#xe5;" horiz-adv-x="1126" 
d="M770 446v17l-197 -8q-272 -11 -272 -156q0 -63 49 -100t131 -37q124 0 206.5 80t82.5 204zM569 1321q43 0 72 29.5t29 74.5t-29 75t-72 30q-44 0 -73 -29.5t-29 -75.5t29 -75t73 -29zM991 639v-639h-221v154q-53 -89 -140.5 -136t-203.5 -47q-162 0 -256 88t-94 226
q0 152 119 241.5t344 96.5l231 10v10q0 99 -62.5 159t-168.5 60q-179 0 -254 -157l-181 90q56 123 169.5 190.5t271.5 67.5q205 0 325.5 -111.5t120.5 -302.5zM569 1186q-107 0 -177 67t-70 172t70.5 172.5t176.5 67.5q105 0 175.5 -67.5t70.5 -172.5t-70.5 -172t-175.5 -67
z" />
    <glyph glyph-name="ae" unicode="&#xe6;" horiz-adv-x="1888" 
d="M770 446v19l-197 -8q-272 -11 -272 -158q0 -63 49 -100t131 -37q124 0 206.5 80t82.5 204zM1008 623h567q-14 105 -87 168t-185 63q-111 0 -189 -62.5t-106 -168.5zM1325 -29q-152 0 -272.5 65.5t-188.5 182.5q-53 -120 -158.5 -184t-254.5 -64q-172 0 -273.5 86.5
t-101.5 225.5q0 152 119 241.5t344 96.5l231 8v14q0 99 -62.5 159t-168.5 60q-179 0 -254 -157l-181 90q55 123 166.5 190.5t266.5 67.5q128 0 223.5 -46.5t150.5 -132.5q71 85 175.5 132t228.5 47q221 0 356 -139.5t135 -364.5q0 -41 -6 -100h-801q21 -125 106 -199
t214 -74q90 0 160.5 38t113.5 110l166 -131q-73 -109 -184.5 -165.5t-249.5 -56.5z" />
    <glyph glyph-name="ccedilla" unicode="&#xe7;" horiz-adv-x="1155" 
d="M494 -442q-118 0 -228 63l66 152q71 -52 147 -52q74 0 114 40.5t40 107.5q0 47 -25 102q-231 4 -378.5 156.5t-147.5 384.5q0 235 151.5 388t387.5 153q162 0 284 -76.5t182 -214.5l-200 -105q-38 88 -107.5 134.5t-161.5 46.5q-133 0 -217 -92t-84 -234t84 -234t217 -92
q92 0 161.5 46.5t107.5 134.5l200 -105q-44 -102 -124.5 -171.5t-186.5 -98.5q29 -69 29 -139q0 -127 -80.5 -211t-230.5 -84z" />
    <glyph glyph-name="egrave" unicode="&#xe8;" 
d="M319 623h566q-12 105 -85.5 168t-185.5 63q-111 0 -189.5 -62.5t-105.5 -168.5zM627 -29q-241 0 -394 152t-153 391q0 237 152 388t386 151q224 0 362 -139.5t138 -364.5q0 -51 -8 -103h-799q20 -123 105 -196.5t213 -73.5q185 0 276 148l166 -131q-75 -108 -189 -165
t-255 -57zM553 1202l-229 328h258l188 -328h-217z" />
    <glyph glyph-name="eacute" unicode="&#xe9;" 
d="M319 623h566q-12 105 -85.5 168t-185.5 63q-111 0 -189.5 -62.5t-105.5 -168.5zM627 -29q-241 0 -394 152t-153 391q0 237 152 388t386 151q224 0 362 -139.5t138 -364.5q0 -51 -8 -103h-799q20 -123 105 -196.5t213 -73.5q185 0 276 148l166 -131q-75 -108 -189 -165
t-255 -57zM479 1202l180 328h259l-222 -328h-217z" />
    <glyph glyph-name="ecircumflex" unicode="&#xea;" 
d="M319 623h566q-12 105 -85.5 168t-185.5 63q-111 0 -189.5 -62.5t-105.5 -168.5zM627 -29q-241 0 -394 152t-153 391q0 237 152 388t386 151q224 0 362 -139.5t138 -364.5q0 -51 -8 -103h-799q20 -123 105 -196.5t213 -73.5q185 0 276 148l166 -131q-75 -108 -189 -165
t-255 -57zM225 1202l291 328h172l291 -328h-213l-164 172l-164 -172h-213z" />
    <glyph glyph-name="edieresis" unicode="&#xeb;" 
d="M319 623h566q-12 105 -85.5 168t-185.5 63q-111 0 -189.5 -62.5t-105.5 -168.5zM627 -29q-241 0 -394 152t-153 391q0 237 152 388t386 151q224 0 362 -139.5t138 -364.5q0 -51 -8 -103h-799q20 -123 105 -196.5t213 -73.5q185 0 276 148l166 -131q-75 -108 -189 -165
t-255 -57zM252 1356q0 61 40.5 101t100.5 40t101 -40t41 -101q0 -60 -41 -99.5t-101 -39.5t-100.5 39.5t-40.5 99.5zM696 1356q0 61 41.5 101t100.5 40q60 0 99.5 -40t39.5 -101q0 -60 -39.5 -99.5t-99.5 -39.5q-59 0 -100.5 40t-41.5 99z" />
    <glyph glyph-name="igrave" unicode="&#xec;" horiz-adv-x="497" 
d="M133 0v1024h229v-1024h-229zM162 1202l-230 328h258l189 -328h-217z" />
    <glyph glyph-name="iacute" unicode="&#xed;" horiz-adv-x="497" 
d="M133 0v1024h229v-1024h-229zM127 1202l180 328h258l-221 -328h-217z" />
    <glyph glyph-name="icircumflex" unicode="&#xee;" horiz-adv-x="497" 
d="M133 0v1024h229v-1024h-229zM-129 1202l291 328h172l291 -328h-213l-164 172l-164 -172h-213z" />
    <glyph glyph-name="idieresis" unicode="&#xef;" horiz-adv-x="497" 
d="M133 0v1024h229v-1024h-229zM-113 1356q0 61 41 101t101 40t100.5 -40t40.5 -101q0 -60 -40.5 -99.5t-100.5 -39.5t-101 39.5t-41 99.5zM332 1356q0 61 41 101t100 40q60 0 99.5 -40t39.5 -101q0 -60 -39.5 -99.5t-99.5 -39.5q-59 0 -100 40t-41 99z" />
    <glyph glyph-name="eth" unicode="&#xf0;" horiz-adv-x="1210" 
d="M592 178q124 0 204.5 82.5t80.5 212.5q0 128 -80.5 209.5t-204.5 81.5t-203.5 -81.5t-79.5 -209.5q0 -131 78.5 -213t204.5 -82zM393 975l-110 121l166 153q-115 34 -263 49l33 205q219 -20 399 -94l205 188l109 -120l-158 -150q346 -228 346 -709q0 -308 -141.5 -477.5
t-388.5 -169.5q-226 0 -368 139t-142 361q0 216 135 356t346 140q221 0 348 -158q-37 255 -288 377z" />
    <glyph glyph-name="ntilde" unicode="&#xf1;" horiz-adv-x="1175" 
d="M362 0h-229v1024h229v-147q95 176 306 176q172 0 276.5 -113t104.5 -299v-641h-230v580q0 124 -54.5 192t-156.5 68q-109 0 -177.5 -72.5t-68.5 -189.5v-578zM471 1325q-37 0 -57.5 -31.5t-20.5 -91.5h-151q0 149 61 218t156 69q42 0 75 -12.5t53.5 -30.5t38.5 -36.5
t38 -31t43 -12.5q73 0 73 123h152q0 -149 -59.5 -219t-155.5 -70q-42 0 -74.5 13t-53 31t-38 36.5t-37.5 31.5t-43 13z" />
    <glyph glyph-name="ograve" unicode="&#xf2;" horiz-adv-x="1239" 
d="M621 -29q-235 0 -387 154t-152 387t152 387t387 154t386.5 -154t151.5 -387t-151.5 -387t-386.5 -154zM621 186q132 0 217.5 92.5t85.5 233.5t-85.5 233.5t-217.5 92.5t-218 -92.5t-86 -233.5t86 -233.5t218 -92.5zM557 1202l-229 328h258l188 -328h-217z" />
    <glyph glyph-name="oacute" unicode="&#xf3;" horiz-adv-x="1239" 
d="M621 -29q-235 0 -387 154t-152 387t152 387t387 154t386.5 -154t151.5 -387t-151.5 -387t-386.5 -154zM621 186q132 0 217.5 92.5t85.5 233.5t-85.5 233.5t-217.5 92.5t-218 -92.5t-86 -233.5t86 -233.5t218 -92.5zM508 1202l180 328h258l-221 -328h-217z" />
    <glyph glyph-name="ocircumflex" unicode="&#xf4;" horiz-adv-x="1239" 
d="M621 -29q-235 0 -387 154t-152 387t152 387t387 154t386.5 -154t151.5 -387t-151.5 -387t-386.5 -154zM621 186q132 0 217.5 92.5t85.5 233.5t-85.5 233.5t-217.5 92.5t-218 -92.5t-86 -233.5t86 -233.5t218 -92.5zM244 1202l291 328h172l290 -328h-213l-163 172
l-164 -172h-213z" />
    <glyph glyph-name="otilde" unicode="&#xf5;" horiz-adv-x="1239" 
d="M621 -29q-235 0 -387 154t-152 387t152 387t387 154t386.5 -154t151.5 -387t-151.5 -387t-386.5 -154zM621 186q132 0 217.5 92.5t85.5 233.5t-85.5 233.5t-217.5 92.5t-218 -92.5t-86 -233.5t86 -233.5t218 -92.5zM504 1325q-37 0 -57.5 -31.5t-20.5 -91.5h-152
q0 149 61 218t157 69q42 0 75 -12.5t53.5 -30.5t38 -36.5t37.5 -31t43 -12.5q74 0 74 123h152q0 -149 -59.5 -219t-155.5 -70q-42 0 -74.5 13t-53 31t-38 36.5t-37.5 31.5t-43 13z" />
    <glyph glyph-name="odieresis" unicode="&#xf6;" horiz-adv-x="1239" 
d="M621 -29q-235 0 -387 154t-152 387t152 387t387 154t386.5 -154t151.5 -387t-151.5 -387t-386.5 -154zM621 186q132 0 217.5 92.5t85.5 233.5t-85.5 233.5t-217.5 92.5t-218 -92.5t-86 -233.5t86 -233.5t218 -92.5zM258 1356q0 61 40.5 101t100.5 40t101 -40t41 -101
q0 -60 -41 -99.5t-101 -39.5t-100.5 39.5t-40.5 99.5zM702 1356q0 61 41.5 101t100.5 40q60 0 99.5 -40t39.5 -101q0 -60 -39.5 -99.5t-99.5 -39.5q-59 0 -100.5 40t-41.5 99z" />
    <glyph glyph-name="divide" unicode="&#xf7;" horiz-adv-x="1169" 
d="M100 610v203h967v-203h-967zM436 322q0 -62 43 -104t105 -42t104.5 41.5t42.5 104.5q0 62 -42.5 103.5t-104.5 41.5t-105 -41.5t-43 -103.5zM436 1102q0 -61 43 -103.5t105 -42.5t104.5 42.5t42.5 103.5q0 63 -42.5 105t-104.5 42t-105 -42t-43 -105z" />
    <glyph glyph-name="oslash" unicode="&#xf8;" horiz-adv-x="1239" 
d="M350 356l434 435q-73 47 -163 47q-132 0 -218 -92.5t-86 -233.5q0 -82 33 -156zM889 670l-434 -434q76 -50 166 -50q132 0 217.5 92.5t85.5 233.5q0 90 -35 158zM154 -80l-131 131l149 150q-90 136 -90 311q0 233 152 387t387 154q179 0 317 -95l147 148l132 -131
l-150 -148q92 -137 92 -315q0 -233 -151.5 -387t-386.5 -154q-183 0 -320 97z" />
    <glyph glyph-name="ugrave" unicode="&#xf9;" horiz-adv-x="1175" 
d="M813 1024h229v-1024h-229v147q-95 -176 -305 -176q-172 0 -276.5 113t-104.5 299v641h229v-580q0 -124 54.5 -192t156.5 -68q109 0 177.5 72.5t68.5 189.5v578zM506 1202l-230 328h259l188 -328h-217z" />
    <glyph glyph-name="uacute" unicode="&#xfa;" horiz-adv-x="1175" 
d="M813 1024h229v-1024h-229v147q-95 -176 -305 -176q-172 0 -276.5 113t-104.5 299v641h229v-580q0 -124 54.5 -192t156.5 -68q109 0 177.5 72.5t68.5 189.5v578zM477 1202l180 328h258l-221 -328h-217z" />
    <glyph glyph-name="ucircumflex" unicode="&#xfb;" horiz-adv-x="1175" 
d="M813 1024h229v-1024h-229v147q-95 -176 -305 -176q-172 0 -276.5 113t-104.5 299v641h229v-580q0 -124 54.5 -192t156.5 -68q109 0 177.5 72.5t68.5 189.5v578zM211 1202l291 328h172l291 -328h-213l-164 172l-164 -172h-213z" />
    <glyph glyph-name="udieresis" unicode="&#xfc;" horiz-adv-x="1175" 
d="M813 1024h229v-1024h-229v147q-95 -176 -305 -176q-172 0 -276.5 113t-104.5 299v641h229v-580q0 -124 54.5 -192t156.5 -68q109 0 177.5 72.5t68.5 189.5v578zM225 1356q0 61 41 101t101 40t100.5 -40t40.5 -101q0 -60 -40.5 -99.5t-100.5 -39.5t-101 39.5t-41 99.5z
M670 1356q0 61 41 101t100 40q60 0 99.5 -40t39.5 -101q0 -60 -39.5 -99.5t-99.5 -39.5q-59 0 -100 40t-41 99z" />
    <glyph glyph-name="yacute" unicode="&#xfd;" horiz-adv-x="1095" 
d="M274 -410l166 422l-405 1012h241l277 -741l268 741h240l-555 -1434h-232zM414 1202l180 328h258l-221 -328h-217z" />
    <glyph glyph-name="thorn" unicode="&#xfe;" horiz-adv-x="1286" 
d="M666 186q132 0 217.5 93.5t85.5 234.5t-85.5 232.5t-217.5 91.5t-218 -91.5t-86 -232.5t86 -234.5t218 -93.5zM721 -29q-237 0 -359 195v-576h-229v1889h229v-621q122 195 359 195q141 0 252 -70.5t172 -194t61 -276.5t-61 -276.5t-172 -194t-252 -70.5z" />
    <glyph glyph-name="ydieresis" unicode="&#xff;" horiz-adv-x="1095" 
d="M274 -410l166 422l-405 1012h241l277 -741l268 741h240l-555 -1434h-232zM186 1356q0 61 41 101t101 40t100.5 -40t40.5 -101q0 -60 -40.5 -99.5t-100.5 -39.5t-101 39.5t-41 99.5zM631 1356q0 61 41 101t100 40q60 0 99.5 -40t39.5 -101q0 -60 -39.5 -99.5t-99.5 -39.5
q-59 0 -100 40t-41 99z" />
    <glyph glyph-name="Amacron" unicode="&#x100;" horiz-adv-x="1394" 
d="M895 553l-201 594l-200 -594h401zM43 0l520 1434h268l521 -1434h-269l-112 334h-553l-113 -334h-262zM1034 1638h-672v181h672v-181z" />
    <glyph glyph-name="amacron" unicode="&#x101;" horiz-adv-x="1122" 
d="M768 446v17l-197 -8q-272 -11 -272 -156q0 -63 49 -100t131 -37q124 0 206.5 80t82.5 204zM989 639v-639h-221v154q-53 -89 -140.5 -136t-203.5 -47q-162 0 -256 88t-94 226q0 152 119 241.5t344 96.5l231 10v10q0 99 -62.5 159t-168.5 60q-179 0 -254 -157l-181 90
q56 123 169.5 190.5t271.5 67.5q205 0 325.5 -111.5t120.5 -302.5zM860 1231h-600v182h600v-182z" />
    <glyph glyph-name="Abreve" unicode="&#x102;" horiz-adv-x="1394" 
d="M895 553l-201 594l-200 -594h401zM43 0l520 1434h268l521 -1434h-269l-112 334h-553l-113 -334h-262zM696 1597q-175 0 -282.5 85.5t-126.5 234.5h211q8 -68 60 -109t138 -41t140 41.5t63 108.5h209q-17 -149 -126 -234.5t-286 -85.5z" />
    <glyph glyph-name="abreve" unicode="&#x103;" horiz-adv-x="1122" 
d="M768 446v17l-197 -8q-272 -11 -272 -156q0 -63 49 -100t131 -37q124 0 206.5 80t82.5 204zM989 639v-639h-221v154q-53 -89 -140.5 -136t-203.5 -47q-162 0 -256 88t-94 226q0 152 119 241.5t344 96.5l231 10v10q0 99 -62.5 159t-168.5 60q-179 0 -254 -157l-181 90
q56 123 169.5 190.5t271.5 67.5q205 0 325.5 -111.5t120.5 -302.5zM559 1206q-155 0 -252.5 85t-109.5 233h194q7 -70 53.5 -110t114.5 -40q70 0 117.5 40t54.5 110h195q-12 -147 -111 -232.5t-256 -85.5z" />
    <glyph glyph-name="Aogonek" unicode="&#x104;" horiz-adv-x="1394" 
d="M694 1147l-202 -594h403zM950 -238q0 135 146 238h-13l-112 334h-553l-113 -334h-262l520 1434h268l521 -1434h-2q-126 -57 -177 -101.5t-51 -101.5q0 -52 34 -82t93 -30q66 0 119 39l49 -154q-79 -49 -192 -49q-126 0 -200.5 65.5t-74.5 175.5z" />
    <glyph glyph-name="aogonek" unicode="&#x105;" horiz-adv-x="1122" 
d="M766 446v17l-195 -8q-272 -11 -272 -156q0 -63 48 -100t130 -37q124 0 206.5 80t82.5 204zM604 -231q0 74 38 133t124 116v136q-53 -89 -140 -136t-202 -47q-162 0 -257 88t-95 226q0 152 119 241.5t344 96.5l231 10v10q0 99 -61.5 159t-169.5 60q-86 0 -150.5 -40
t-101.5 -117l-183 90q58 123 171 190.5t272 67.5q205 0 325.5 -111.5t120.5 -302.5v-639h-2q-117 -55 -164 -98t-47 -97q0 -51 31.5 -79.5t85.5 -28.5q64 0 113 39l49 -154q-76 -49 -187 -49q-121 0 -192.5 64t-71.5 172z" />
    <glyph glyph-name="Cacute" unicode="&#x106;" horiz-adv-x="1556" 
d="M848 -33q-160 0 -298.5 57t-235.5 156.5t-152.5 238.5t-55.5 298q0 213 94.5 384t264 268t383.5 97q220 0 389 -104t254 -291l-221 -117q-57 132 -165.5 202.5t-254.5 70.5q-215 0 -350 -142t-135 -368t135 -368t350 -142q146 0 254.5 70t165.5 202l221 -117
q-85 -187 -254 -291t-389 -104zM715 1606l227 309h283l-264 -309h-246z" />
    <glyph glyph-name="cacute" unicode="&#x107;" horiz-adv-x="1155" 
d="M621 -29q-236 0 -387.5 153t-151.5 388t151.5 388t387.5 153q162 0 284 -76.5t182 -214.5l-200 -105q-38 88 -107.5 134.5t-161.5 46.5q-133 0 -217 -92t-84 -234t84 -234t217 -92q92 0 161.5 46.5t107.5 134.5l200 -105q-60 -138 -182 -214.5t-284 -76.5zM508 1202
l180 328h258l-221 -328h-217z" />
    <glyph glyph-name="Ccircumflex" unicode="&#x108;" horiz-adv-x="1556" 
d="M848 -33q-160 0 -298.5 57t-235.5 156.5t-152.5 238.5t-55.5 298q0 213 94.5 384t264 268t383.5 97q220 0 389 -104t254 -291l-221 -117q-57 132 -165.5 202.5t-254.5 70.5q-215 0 -350 -142t-135 -368t135 -368t350 -142q146 0 254.5 70t165.5 202l221 -117
q-85 -187 -254 -291t-389 -104zM416 1606l336 309h192l336 -309h-244l-188 155l-186 -155h-246z" />
    <glyph glyph-name="ccircumflex" unicode="&#x109;" horiz-adv-x="1155" 
d="M621 -29q-236 0 -387.5 153t-151.5 388t151.5 388t387.5 153q162 0 284 -76.5t182 -214.5l-200 -105q-38 88 -107.5 134.5t-161.5 46.5q-133 0 -217 -92t-84 -234t84 -234t217 -92q92 0 161.5 46.5t107.5 134.5l200 -105q-60 -138 -182 -214.5t-284 -76.5zM233 1202
l291 328h172l291 -328h-213l-164 172l-164 -172h-213z" />
    <glyph glyph-name="Cdotaccent" unicode="&#x10a;" horiz-adv-x="1556" 
d="M848 -33q-160 0 -298.5 57t-235.5 156.5t-152.5 238.5t-55.5 298q0 213 94.5 384t264 268t383.5 97q220 0 389 -104t254 -291l-221 -117q-57 132 -165.5 202.5t-254.5 70.5q-215 0 -350 -142t-135 -368t135 -368t350 -142q146 0 254.5 70t165.5 202l221 -117
q-85 -187 -254 -291t-389 -104zM700 1776q0 63 43 105t105 42q63 0 106 -42t43 -105t-43 -105.5t-106 -42.5q-62 0 -105 42.5t-43 105.5z" />
    <glyph glyph-name="cdotaccent" unicode="&#x10b;" horiz-adv-x="1155" 
d="M621 -29q-236 0 -387.5 153t-151.5 388t151.5 388t387.5 153q162 0 284 -76.5t182 -214.5l-200 -105q-38 88 -107.5 134.5t-161.5 46.5q-133 0 -217 -92t-84 -234t84 -234t217 -92q92 0 161.5 46.5t107.5 134.5l200 -105q-60 -138 -182 -214.5t-284 -76.5zM467 1354
q0 61 41.5 102t103.5 41q60 0 101 -41t41 -102t-41 -102.5t-101 -41.5q-62 0 -103.5 41.5t-41.5 102.5z" />
    <glyph glyph-name="Ccaron" unicode="&#x10c;" horiz-adv-x="1556" 
d="M848 -33q-160 0 -298.5 57t-235.5 156.5t-152.5 238.5t-55.5 298q0 213 94.5 384t264 268t383.5 97q220 0 389 -104t254 -291l-221 -117q-57 132 -165.5 202.5t-254.5 70.5q-215 0 -350 -142t-135 -368t135 -368t350 -142q146 0 254.5 70t165.5 202l221 -117
q-85 -187 -254 -291t-389 -104zM414 1917h243l189 -154l188 154h244l-336 -311h-192z" />
    <glyph glyph-name="ccaron" unicode="&#x10d;" horiz-adv-x="1155" 
d="M621 -29q-236 0 -387.5 153t-151.5 388t151.5 388t387.5 153q162 0 284 -76.5t182 -214.5l-200 -105q-38 88 -107.5 134.5t-161.5 46.5q-133 0 -217 -92t-84 -234t84 -234t217 -92q92 0 161.5 46.5t107.5 134.5l200 -105q-60 -138 -182 -214.5t-284 -76.5zM535 1202
l-291 328h213l164 -172l163 172h213l-290 -328h-172z" />
    <glyph glyph-name="Dcaron" unicode="&#x10e;" horiz-adv-x="1492" 
d="M649 1202h-229v-971h229q217 0 347 135t130 351t-129.5 350.5t-347.5 134.5zM674 0h-504v1434h504q206 0 369.5 -93.5t253 -257t89.5 -366.5t-89.5 -366.5t-253 -257t-369.5 -93.5zM575 1606l-335 311h243l189 -154l188 154h244l-336 -311h-193z" />
    <glyph glyph-name="dcaron" unicode="&#x10f;" horiz-adv-x="1685" 
d="M621 186q132 0 217.5 93.5t85.5 234.5t-85.5 232.5t-217.5 91.5t-218 -91.5t-86 -232.5t86 -234.5t218 -93.5zM565 -29q-141 0 -252 70.5t-172 194t-61 276.5t61 276.5t172 194t252 70.5q237 0 359 -195v621h229v-1479h-229v166q-122 -195 -359 -195zM1260 1352
q0 62 42.5 103.5t106.5 41.5q72 0 117 -57.5t45 -151.5q0 -202 -209 -405l-100 96q115 117 149 225q-65 0 -108 41.5t-43 106.5z" />
    <glyph glyph-name="Dcroat" unicode="&#x110;" horiz-adv-x="1579" 
d="M766 616h-260v-385h229q217 0 347 135t130 351t-129.5 350.5t-347.5 134.5h-229v-354h260v-232zM256 616h-188v232h188v586h504q206 0 369.5 -93.5t253.5 -257t90 -366.5t-90 -366.5t-253.5 -257t-369.5 -93.5h-504v616z" />
    <glyph glyph-name="dcroat" unicode="&#x111;" horiz-adv-x="1286" 
d="M621 186q132 0 217.5 93.5t85.5 234.5t-85.5 232.5t-217.5 91.5t-218 -91.5t-86 -232.5t86 -234.5t218 -93.5zM924 1165h-154v199h154v115h229v-115h152v-199h-152v-1165h-229v166q-122 -195 -359 -195q-141 0 -252 70.5t-172 194t-61 276.5t61 276.5t172 194t252 70.5
q237 0 359 -195v307z" />
    <glyph glyph-name="Emacron" unicode="&#x112;" 
d="M168 0v1434h924v-232h-672v-342h596v-231h-596v-398h672v-231h-924zM305 1638v181h672v-181h-672z" />
    <glyph glyph-name="emacron" unicode="&#x113;" 
d="M319 623h566q-12 105 -85.5 168t-185.5 63q-111 0 -189.5 -62.5t-105.5 -168.5zM627 -29q-241 0 -394 152t-153 391q0 237 152 388t386 151q224 0 362 -139.5t138 -364.5q0 -51 -8 -103h-799q20 -123 105 -196.5t213 -73.5q185 0 276 148l166 -131q-75 -108 -189 -165
t-255 -57zM299 1231v182h600v-182h-600z" />
    <glyph glyph-name="Ebreve" unicode="&#x114;" 
d="M168 0v1434h924v-232h-672v-342h596v-231h-596v-398h672v-231h-924zM633 1597q-175 0 -283 85.5t-127 234.5h211q8 -68 60.5 -109t138.5 -41t140 41.5t63 108.5h208q-17 -149 -125.5 -234.5t-285.5 -85.5z" />
    <glyph glyph-name="ebreve" unicode="&#x115;" 
d="M319 623h566q-12 105 -85.5 168t-185.5 63q-111 0 -189.5 -62.5t-105.5 -168.5zM627 -29q-241 0 -394 152t-153 391q0 237 152 388t386 151q224 0 362 -139.5t138 -364.5q0 -51 -8 -103h-799q20 -123 105 -196.5t213 -73.5q185 0 276 148l166 -131q-75 -108 -189 -165
t-255 -57zM614 1206q-155 0 -252.5 85t-109.5 233h194q7 -70 53.5 -110t114.5 -40q70 0 117.5 40t54.5 110h195q-12 -147 -111 -232.5t-256 -85.5z" />
    <glyph glyph-name="Edotaccent" unicode="&#x116;" 
d="M168 0v1434h924v-232h-672v-342h596v-231h-596v-398h672v-231h-924zM502 1776q0 63 42.5 105t104.5 42q63 0 106.5 -42t43.5 -105t-43.5 -105.5t-106.5 -42.5q-62 0 -104.5 42.5t-42.5 105.5z" />
    <glyph glyph-name="edotaccent" unicode="&#x117;" 
d="M319 623h566q-12 105 -85.5 168t-185.5 63q-111 0 -189.5 -62.5t-105.5 -168.5zM627 -29q-241 0 -394 152t-153 391q0 237 152 388t386 151q224 0 362 -139.5t138 -364.5q0 -51 -8 -103h-799q20 -123 105 -196.5t213 -73.5q185 0 276 148l166 -131q-75 -108 -189 -165
t-255 -57zM469 1354q0 61 41.5 102t103.5 41q60 0 101 -41t41 -102t-41 -102.5t-101 -41.5q-62 0 -103.5 41.5t-41.5 102.5z" />
    <glyph glyph-name="Eogonek" unicode="&#x118;" 
d="M623 -240q0 137 141 240h-596v1434h924v-232h-672v-342h596v-231h-596v-398h672v-231h-74q-117 -47 -169 -95.5t-52 -109.5q0 -52 34 -81t93 -29q65 0 118 39l48 -154q-79 -49 -191 -49q-126 0 -201 65t-75 174z" />
    <glyph glyph-name="eogonek" unicode="&#x119;" 
d="M319 623h566q-12 105 -85.5 168t-185.5 63q-111 0 -189.5 -62.5t-105.5 -168.5zM541 -215q0 102 73 186q-236 5 -385 156t-149 387q0 237 152 388t386 151q224 0 362 -139.5t138 -364.5q0 -51 -8 -103h-799q20 -123 105 -196.5t213 -73.5q185 0 276 148l166 -131
q-70 -103 -186 -164q-93 -62 -131.5 -108t-38.5 -97q0 -54 32.5 -86.5t90.5 -32.5q65 0 112 37l49 -154q-82 -51 -188 -51q-122 0 -196 69t-74 179z" />
    <glyph glyph-name="Ecaron" unicode="&#x11a;" 
d="M168 0v1434h924v-232h-672v-342h596v-231h-596v-398h672v-231h-924zM168 1917h244l188 -154l188 154h244l-336 -311h-192z" />
    <glyph glyph-name="ecaron" unicode="&#x11b;" 
d="M319 623h566q-12 105 -85.5 168t-185.5 63q-111 0 -189.5 -62.5t-105.5 -168.5zM627 -29q-241 0 -394 152t-153 391q0 237 152 388t386 151q224 0 362 -139.5t138 -364.5q0 -51 -8 -103h-799q20 -123 105 -196.5t213 -73.5q185 0 276 148l166 -131q-75 -108 -189 -165
t-255 -57zM514 1202l-291 328h213l164 -172l164 172h213l-291 -328h-172z" />
    <glyph glyph-name="Gcircumflex" unicode="&#x11c;" horiz-adv-x="1632" 
d="M1534 651q0 -314 -184.5 -499t-493.5 -185q-221 0 -393 98.5t-264.5 269.5t-92.5 384t93 383.5t262.5 267t384.5 96.5q212 0 378.5 -93.5t254.5 -260.5l-213 -131q-63 122 -172.5 188t-249.5 66q-216 0 -351 -145t-135 -373t136.5 -373t363.5 -145q177 0 289.5 93
t134.5 257h-561v225h807q6 -70 6 -123zM403 1606l336 309h193l336 -309h-244l-188 155l-187 -155h-246z" />
    <glyph glyph-name="gcircumflex" unicode="&#x11d;" horiz-adv-x="1095" 
d="M315 698q0 -76 61 -122t161 -46t159.5 45.5t59.5 122.5t-59.5 122.5t-159.5 45.5t-161 -46t-61 -122zM258 -121q0 -60 71 -92.5t199 -32.5q141 0 226.5 37.5t85.5 99.5q0 57 -73.5 87t-209.5 30q-143 0 -221 -34t-78 -95zM934 1157l123 -121l-150 -143q62 -83 62 -195
q0 -156 -119 -255t-313 -99q-82 0 -166 23q-43 -29 -43 -74q0 -47 56 -70t185 -24q248 -2 377 -78t129 -221q0 -158 -147 -248t-402 -90q-232 0 -358.5 75t-126.5 213q0 87 52 150t147 94q-99 64 -99 170q0 93 88 172q-127 99 -127 262q0 157 119.5 256t315.5 99
q140 0 245 -54zM395 1202h-213l291 328h172l291 -328h-213l-164 172z" />
    <glyph glyph-name="Gbreve" unicode="&#x11e;" horiz-adv-x="1632" 
d="M1534 651q0 -314 -184.5 -499t-493.5 -185q-221 0 -393 98.5t-264.5 269.5t-92.5 384t93 383.5t262.5 267t384.5 96.5q212 0 378.5 -93.5t254.5 -260.5l-213 -131q-63 122 -172.5 188t-249.5 66q-216 0 -351 -145t-135 -373t136.5 -373t363.5 -145q177 0 289.5 93
t134.5 257h-561v225h807q6 -70 6 -123zM815 1597q-175 0 -282.5 85.5t-126.5 234.5h210q8 -68 60.5 -109t138.5 -41t140 41.5t63 108.5h209q-17 -149 -126 -234.5t-286 -85.5z" />
    <glyph glyph-name="gbreve" unicode="&#x11f;" horiz-adv-x="1095" 
d="M315 698q0 -76 61 -122t161 -46t159.5 45.5t59.5 122.5t-59.5 122.5t-159.5 45.5t-161 -46t-61 -122zM258 -121q0 -60 71 -92.5t199 -32.5q141 0 226.5 37.5t85.5 99.5q0 57 -73.5 87t-209.5 30q-143 0 -221 -34t-78 -95zM934 1157l123 -121l-150 -143q62 -83 62 -195
q0 -156 -119 -255t-313 -99q-82 0 -166 23q-43 -29 -43 -74q0 -47 56 -70t185 -24q248 -2 377 -78t129 -221q0 -158 -147 -248t-402 -90q-232 0 -358.5 75t-126.5 213q0 87 52 150t147 94q-99 64 -99 170q0 93 88 172q-127 99 -127 262q0 157 119.5 256t315.5 99
q140 0 245 -54zM551 1206q-156 0 -253.5 85.5t-109.5 232.5h195q7 -70 53.5 -110t114.5 -40q70 0 117.5 40t54.5 110h195q-12 -147 -111 -232.5t-256 -85.5z" />
    <glyph glyph-name="dotlessi" unicode="&#x131;" horiz-adv-x="497" 
d="M133 0v1024h229v-1024h-229z" />
    <glyph glyph-name="Lslash" unicode="&#x141;" horiz-adv-x="1193" 
d="M197 502l-183 -88v233l183 88v699h249v-578l420 201v-234l-420 -200v-392h672v-231h-921v502z" />
    <glyph glyph-name="lslash" unicode="&#x142;" horiz-adv-x="665" 
d="M217 559l-190 -119v232l190 119v688h229v-545l191 119v-232l-191 -119v-702h-229v559z" />
    <glyph glyph-name="ncaron" unicode="&#x148;" horiz-adv-x="1175" 
d="M362 0h-229v1024h229v-147q95 176 306 176q172 0 276.5 -113t104.5 -299v-641h-230v580q0 124 -54.5 192t-156.5 68q-109 0 -177.5 -72.5t-68.5 -189.5v-578zM502 1202l-291 328h213l164 -172l164 172h213l-291 -328h-172z" />
    <glyph glyph-name="Omacron" unicode="&#x14c;" horiz-adv-x="1695" 
d="M850 -33q-214 0 -384 97t-265 268t-95 385t95 385t265 267.5t384 96.5q212 0 381 -96.5t263.5 -268t94.5 -384.5q0 -214 -94.5 -385t-263.5 -268t-381 -97zM852 207q210 0 343.5 143.5t133.5 368.5q0 222 -133.5 365t-343.5 143q-216 0 -351.5 -143t-135.5 -365
q0 -225 135.5 -368.5t351.5 -143.5zM512 1638v181h672v-181h-672z" />
    <glyph glyph-name="omacron" unicode="&#x14d;" horiz-adv-x="1239" 
d="M621 -29q-235 0 -387 154t-152 387t152 387t387 154t386.5 -154t151.5 -387t-151.5 -387t-386.5 -154zM621 186q132 0 217.5 92.5t85.5 233.5t-85.5 233.5t-217.5 92.5t-218 -92.5t-86 -233.5t86 -233.5t218 -92.5zM319 1231v182h601v-182h-601z" />
    <glyph glyph-name="Obreve" unicode="&#x14e;" horiz-adv-x="1695" 
d="M852 207q210 0 343.5 143.5t133.5 368.5q0 222 -133.5 365t-343.5 143q-216 0 -351.5 -143t-135.5 -365q0 -225 135.5 -368.5t351.5 -143.5zM850 -33q-214 0 -384 97t-265 268t-95 385t95 385t265 267.5t384 96.5q212 0 381 -96.5t263.5 -268t94.5 -384.5
q0 -214 -94.5 -385t-263.5 -268t-381 -97zM848 1597q-175 0 -283 85.5t-127 234.5h211q8 -68 60.5 -109t138.5 -41t140 41.5t63 108.5h209q-17 -149 -126 -234.5t-286 -85.5z" />
    <glyph glyph-name="obreve" unicode="&#x14f;" horiz-adv-x="1239" 
d="M621 -29q-235 0 -387 154t-152 387t152 387t387 154t386.5 -154t151.5 -387t-151.5 -387t-386.5 -154zM621 186q132 0 217.5 92.5t85.5 233.5t-85.5 233.5t-217.5 92.5t-218 -92.5t-86 -233.5t86 -233.5t218 -92.5zM616 1206q-155 0 -252.5 85t-109.5 233h195
q7 -70 53 -110t114 -40q70 0 117.5 40t54.5 110h195q-12 -147 -111 -232.5t-256 -85.5z" />
    <glyph glyph-name="OE" unicode="&#x152;" horiz-adv-x="2277" 
d="M852 207q127 0 230 55.5t167 155.5v598q-64 100 -167 155.5t-230 55.5q-215 0 -350 -142.5t-135 -365.5q0 -225 134.5 -368.5t350.5 -143.5zM838 -33q-209 0 -376.5 97t-261.5 268.5t-94 384.5t94 384.5t261.5 268t376.5 96.5q231 0 411 -125v93h922v-232h-672v-342h596
v-231h-596v-398h672v-231h-922v92q-180 -125 -411 -125z" />
    <glyph glyph-name="oe" unicode="&#x153;" horiz-adv-x="2037" 
d="M621 186q132 0 217.5 92.5t85.5 233.5t-85.5 233.5t-217.5 92.5t-218 -92.5t-86 -233.5t86 -233.5t218 -92.5zM1157 623h567q-14 105 -87 168t-185 63q-111 0 -189 -62.5t-106 -168.5zM1470 -29q-136 0 -248 54t-184 151q-72 -97 -182.5 -151t-243.5 -54q-232 0 -382 154
t-150 387t150 387t382 154q133 0 243.5 -54t182.5 -151q71 98 181 151.5t245 53.5q221 0 356.5 -139.5t135.5 -364.5q0 -41 -6 -100h-801q21 -125 105.5 -199t213.5 -74q90 0 161 38t114 110l166 -131q-73 -108 -186 -165t-253 -57z" />
    <glyph glyph-name="Scaron" unicode="&#x160;" horiz-adv-x="1320" 
d="M680 -33q-441 0 -614 383l219 109q125 -262 401 -262q132 0 213.5 53.5t81.5 144.5q0 51 -29 89.5t-78 63t-112.5 44t-133.5 37.5t-140 38.5t-133.5 51.5t-112.5 72.5t-78 106t-29 146.5q0 190 141.5 306t376.5 116q195 0 343 -85t229 -248l-211 -111q-50 105 -142.5 162
t-216.5 57q-123 0 -196.5 -52.5t-73.5 -129.5q0 -46 29 -80.5t78.5 -56t113 -39.5t134 -35.5t141 -38.5t134 -54t113 -77t78.5 -112t29 -154q0 -204 -150 -324.5t-405 -120.5zM227 1917h244l188 -154l189 154h244l-336 -311h-193z" />
    <glyph glyph-name="scaron" unicode="&#x161;" horiz-adv-x="1028" 
d="M530 -29q-163 0 -282 68.5t-182 198.5l174 106q90 -178 295 -178q89 0 144.5 34t55.5 89q0 41 -34 68.5t-88.5 44t-120.5 30.5t-132 35.5t-120.5 52t-88.5 86t-34 131.5q0 140 108 228t293 88q149 0 257 -60t167 -176l-174 -104q-79 149 -256 149q-82 0 -131 -32.5
t-49 -81.5q0 -38 34.5 -63.5t89.5 -40.5t121.5 -28.5t133 -35t121.5 -53t89.5 -88.5t34.5 -136q0 -151 -116.5 -241.5t-309.5 -90.5zM428 1202l-291 328h213l164 -172l164 172h213l-291 -328h-172z" />
    <glyph glyph-name="tcaron" unicode="&#x165;" horiz-adv-x="960" 
d="M434 1311v-889q0 -113 49.5 -164t157.5 -51h127v-219h-156q-205 0 -306 103t-101 315v409h-174v209h174v287h229zM537 1352q0 62 42.5 103.5t106.5 41.5q72 0 117 -57.5t45 -151.5q0 -202 -209 -405l-100 96q115 117 149 225q-65 0 -108 41.5t-43 106.5z" />
    <glyph glyph-name="uring" unicode="&#x16f;" horiz-adv-x="1175" 
d="M590 1321q43 0 71.5 29.5t28.5 74.5q0 46 -28.5 75.5t-71.5 29.5q-44 0 -73.5 -29.5t-29.5 -75.5q0 -45 29.5 -74.5t73.5 -29.5zM813 446v578h229v-1024h-229v147q-95 -176 -305 -176q-172 0 -276.5 113t-104.5 299v641h229v-580q0 -124 54.5 -192t156.5 -68
q109 0 177.5 72.5t68.5 189.5zM590 1186q-107 0 -177.5 67t-70.5 172t70.5 172.5t177.5 67.5q105 0 175.5 -67.5t70.5 -172.5t-70.5 -172t-175.5 -67z" />
    <glyph glyph-name="Ycircumflex" unicode="&#x176;" horiz-adv-x="1304" 
d="M778 0h-252v573l-483 861h276l336 -641l336 641h273l-486 -861v-573zM221 1606l336 309h193l335 -309h-243l-189 155l-186 -155h-246z" />
    <glyph glyph-name="ycircumflex" unicode="&#x177;" horiz-adv-x="1095" 
d="M274 -410l166 422l-405 1012h241l277 -741l268 741h240l-555 -1434h-232zM172 1202l291 328h172l291 -328h-213l-164 172l-164 -172h-213z" />
    <glyph glyph-name="Ydieresis" unicode="&#x178;" horiz-adv-x="1304" 
d="M778 0h-252v573l-483 861h276l336 -641l336 641h273l-486 -861v-573zM291 1765q0 61 40.5 101.5t100.5 40.5t100.5 -40.5t40.5 -101.5q0 -60 -40.5 -99.5t-100.5 -39.5t-100.5 39.5t-40.5 99.5zM735 1765q0 61 41.5 101.5t100.5 40.5q60 0 99.5 -40.5t39.5 -101.5
q0 -60 -39.5 -99.5t-99.5 -39.5q-59 0 -100.5 40t-41.5 99z" />
    <glyph glyph-name="Zcaron" unicode="&#x17d;" horiz-adv-x="1370" 
d="M170 1202v232h1067v-248l-823 -955h823v-231h-1104v248l823 954h-786zM600 1612l-291 327h213l164 -172l164 172h213l-291 -327h-172z" />
    <glyph glyph-name="zcaron" unicode="&#x17e;" horiz-adv-x="1007" 
d="M86 0v217l565 598h-542v209h811v-217l-568 -598h570v-209h-836zM420 1202l-291 328h213l164 -172l164 172h213l-291 -328h-172z" />
    <glyph glyph-name="uni02BC" unicode="&#x2bc;" horiz-adv-x="534" 
d="M111 1300q0 62 42.5 104t106.5 42q72 0 117 -57.5t45 -151.5q0 -203 -209 -406l-100 97q115 117 149 225q-65 0 -108 41t-43 106z" />
    <glyph glyph-name="circumflex" unicode="&#x2c6;" horiz-adv-x="835" 
d="M41 1202l291 328h172l291 -328h-213l-164 172l-164 -172h-213z" />
    <glyph glyph-name="caron" unicode="&#x2c7;" horiz-adv-x="841" 
d="M332 1202l-291 328h213l164 -172l164 172h213l-291 -328h-172z" />
    <glyph glyph-name="uni02C9" unicode="&#x2c9;" horiz-adv-x="763" 
d="M61 1290v180h644v-180h-644z" />
    <glyph glyph-name="breve" unicode="&#x2d8;" horiz-adv-x="825" 
d="M410 1206q-156 0 -253.5 85.5t-109.5 232.5h195q7 -70 53.5 -110t114.5 -40q70 0 117.5 40t54.5 110h194q-12 -147 -110.5 -232.5t-255.5 -85.5z" />
    <glyph glyph-name="dotaccent" unicode="&#x2d9;" horiz-adv-x="407" 
d="M61 1354q0 61 42 102t104 41q60 0 100.5 -41t40.5 -102t-40.5 -102.5t-100.5 -41.5q-62 0 -104 41.5t-42 102.5z" />
    <glyph glyph-name="ring" unicode="&#x2da;" horiz-adv-x="616" 
d="M309 1186q-107 0 -177.5 67t-70.5 172t70.5 172.5t177.5 67.5q105 0 175.5 -67.5t70.5 -172.5t-70.5 -172t-175.5 -67zM309 1321q43 0 72 29.5t29 74.5t-29 75t-72 30q-44 0 -73 -29.5t-29 -75.5t29 -75t73 -29z" />
    <glyph glyph-name="ogonek" unicode="&#x2db;" horiz-adv-x="532" 
d="M66 -231q0 101 73.5 178t245.5 157l64 -104q-117 -55 -164 -98t-47 -99q0 -49 30.5 -77.5t83.5 -28.5q66 0 115 39l49 -154q-76 -49 -184 -49q-122 0 -194 64t-72 172z" />
    <glyph glyph-name="tilde" unicode="&#x2dc;" horiz-adv-x="772" 
d="M270 1325q-37 0 -57 -31.5t-20 -91.5h-152q0 149 61 218t156 69q42 0 75 -12.5t53.5 -30.5t38.5 -36.5t38 -31t43 -12.5q74 0 74 123h151q0 -149 -59.5 -219t-155.5 -70q-42 0 -74.5 13t-53 31t-38 36.5t-37.5 31.5t-43 13z" />
    <glyph glyph-name="uni0400" unicode="&#x400;" 
d="M168 0v1434h924v-232h-672v-342h596v-231h-596v-398h672v-231h-924zM606 1612l-229 327h258l188 -327h-217z" />
    <glyph glyph-name="uni0401" unicode="&#x401;" 
d="M168 0v1434h924v-232h-672v-342h596v-231h-596v-398h672v-231h-924zM264 1741q0 63 43 105t105 42q63 0 106 -42t43 -105q0 -62 -43 -104t-106 -42q-62 0 -105 42.5t-43 103.5zM727 1741q0 63 42.5 105t104.5 42q63 0 106.5 -42t43.5 -105q0 -61 -43.5 -103.5
t-106.5 -42.5q-62 0 -104.5 42.5t-42.5 103.5z" />
    <glyph glyph-name="uni0402" unicode="&#x402;" horiz-adv-x="1609" 
d="M623 551v-551h-252v1202h-291v232h1155v-232h-612v-403q152 98 354 98q254 0 397.5 -161t143.5 -431q0 -278 -154.5 -441t-435.5 -194l-35 244q182 23 275.5 122.5t93.5 266.5q0 168 -88.5 265.5t-243.5 97.5q-86 0 -166.5 -30.5t-140.5 -84.5z" />
    <glyph glyph-name="uni0403" unicode="&#x403;" horiz-adv-x="1118" 
d="M168 0v1434h874v-232h-622v-1202h-252zM467 1606l227 309h283l-264 -309h-246z" />
    <glyph glyph-name="uni0404" unicode="&#x404;" horiz-adv-x="1570" 
d="M850 -33q-214 0 -384 97.5t-265 268.5t-95 384t95 384t265 268t384 97q221 0 389.5 -104.5t253.5 -290.5l-227 -115q-60 131 -168 201t-250 70q-182 0 -308.5 -106.5t-162.5 -282.5h672v-226h-674q31 -182 158.5 -293.5t314.5 -111.5q142 0 250 69.5t168 200.5l227 -115
q-85 -186 -253.5 -290.5t-389.5 -104.5z" />
    <glyph glyph-name="uni0405" unicode="&#x405;" horiz-adv-x="1320" 
d="M680 -33q-441 0 -614 383l219 109q125 -262 401 -262q132 0 213.5 53.5t81.5 144.5q0 51 -29 89.5t-78 63t-112.5 44t-133.5 37.5t-140 38.5t-133.5 51.5t-112.5 72.5t-78 106t-29 146.5q0 190 141.5 306t376.5 116q195 0 343 -85t229 -248l-211 -111q-50 105 -142.5 162
t-216.5 57q-123 0 -196.5 -52.5t-73.5 -129.5q0 -46 29 -80.5t78.5 -56t113 -39.5t134 -35.5t141 -38.5t134 -54t113 -77t78.5 -112t29 -154q0 -204 -150 -324.5t-405 -120.5z" />
    <glyph glyph-name="uni0406" unicode="&#x406;" horiz-adv-x="620" 
d="M178 0v1434h252v-1434h-252z" />
    <glyph glyph-name="uni0407" unicode="&#x407;" horiz-adv-x="612" 
d="M180 0v1434h252v-1434h-252zM-74 1741q0 63 43 105t105 42q63 0 106 -42t43 -105q0 -62 -43 -104t-106 -42q-62 0 -105 42.5t-43 103.5zM389 1741q0 63 43.5 105t106.5 42q62 0 104.5 -42t42.5 -105q0 -61 -42.5 -103.5t-104.5 -42.5q-63 0 -106.5 42.5t-43.5 103.5z" />
    <glyph glyph-name="uni0408" unicode="&#x408;" horiz-adv-x="1251" 
d="M596 211q110 0 176 72t66 192v959h252v-971q0 -223 -135 -357.5t-359 -134.5q-223 0 -357.5 134.5t-134.5 357.5v65l252 25v-78q0 -120 65.5 -192t174.5 -72z" />
    <glyph glyph-name="uni0409" unicode="&#x409;" horiz-adv-x="2164" 
d="M92 -16h-41v262h23q91 0 139.5 56t71 198.5t22.5 412.5v521h967v-471h321q220 0 354 -132.5t134 -349.5t-133.5 -349t-354.5 -132h-565v1194h-481v-344q0 -332 -47.5 -521t-144.5 -267t-265 -78zM1573 737h-299v-512h299q118 0 189 70t71 186t-71 186t-189 70z" />
    <glyph glyph-name="uni040A" unicode="&#x40a;" horiz-adv-x="2191" 
d="M1300 696v-471h297q119 0 190 65t71 171t-71 170.5t-190 64.5h-297zM420 0h-250v1434h250v-512h635v512h245v-512h322q218 0 352.5 -127t134.5 -334t-134 -334t-353 -127h-567v696h-635v-696z" />
    <glyph glyph-name="uni040B" unicode="&#x40b;" horiz-adv-x="1628" 
d="M623 551v-551h-252v1202h-291v232h1155v-232h-612v-405q154 100 360 100q234 0 365 -133.5t131 -374.5v-389h-250v344q0 155 -77 238.5t-218 83.5q-179 0 -311 -115z" />
    <glyph glyph-name="uni040C" unicode="&#x40c;" horiz-adv-x="1363" 
d="M1315 1434l-481 -680l483 -754h-295l-401 639h-193v-639h-260v1434h260v-574h201l397 574h289zM571 1606l228 309h282l-264 -309h-246z" />
    <glyph glyph-name="uni040D" unicode="&#x40d;" horiz-adv-x="1529" 
d="M1360 0h-250v1051l-668 -1051h-274v1434h252v-1051l665 1051h275v-1434zM920 1606h-246l-264 309h282z" />
    <glyph glyph-name="uni040E" unicode="&#x40e;" horiz-adv-x="1275" 
d="M319 1434l334 -750l312 750h270l-633 -1434h-256l189 424l-492 1010h276zM641 1597q-175 0 -283 85.5t-127 234.5h211q8 -68 60.5 -109t138.5 -41t140 41.5t63 108.5h209q-17 -149 -126 -234.5t-286 -85.5z" />
    <glyph glyph-name="uni040F" unicode="&#x40f;" horiz-adv-x="1523" 
d="M170 1434h252v-1203h680v1203h252v-1434h-465v-295h-252v295h-467v1434z" />
    <glyph glyph-name="uni0410" unicode="&#x410;" horiz-adv-x="1394" 
d="M895 553l-201 594l-200 -594h401zM43 0l520 1434h268l521 -1434h-269l-112 334h-553l-113 -334h-262z" />
    <glyph glyph-name="uni0411" unicode="&#x411;" horiz-adv-x="1271" 
d="M160 0v1434h911v-236h-668v-328h338q204 0 328.5 -120.5t124.5 -313.5q0 -195 -123 -315.5t-326 -120.5h-585zM723 645h-320v-420h320q97 0 159 58t62 153q0 94 -62 151.5t-159 57.5z" />
    <glyph glyph-name="uni0412" unicode="&#x412;" horiz-adv-x="1308" 
d="M760 631h-357v-412h357q100 0 160.5 56.5t60.5 150.5q0 92 -60.5 148.5t-160.5 56.5zM725 1214h-322v-370h322q87 0 142 51.5t55 134.5q0 81 -55 132.5t-142 51.5zM778 0h-618v1434h585q192 0 310.5 -100.5t118.5 -270.5q0 -110 -53.5 -190.5t-153.5 -118.5
q130 -38 198 -130t68 -225q0 -181 -123.5 -290t-331.5 -109z" />
    <glyph glyph-name="uni0413" unicode="&#x413;" horiz-adv-x="1118" 
d="M168 0v1434h874v-232h-622v-1202h-252z" />
    <glyph glyph-name="uni0414" unicode="&#x414;" horiz-adv-x="1593" 
d="M475 231h600v973h-510v-209q0 -230 -22.5 -438.5t-67.5 -325.5zM1270 0h-944v-299h-250v530h135q113 192 113 807v398h1003v-1205h193v-530h-250v299z" />
    <glyph glyph-name="uni0415" unicode="&#x415;" 
d="M168 0v1434h924v-232h-672v-342h596v-231h-596v-398h672v-231h-924z" />
    <glyph glyph-name="uni0416" unicode="&#x416;" horiz-adv-x="1927" 
d="M1886 0h-287l-335 641h-170v-641h-260v641h-170l-336 -641h-285l414 752l-408 682h283l325 -576h177v576h260v-576h176l327 576h281l-408 -682z" />
    <glyph glyph-name="uni0417" unicode="&#x417;" horiz-adv-x="1286" 
d="M637 -33q-433 0 -598 367l215 115q109 -246 385 -246q139 0 225 62.5t86 166.5q0 90 -64.5 140.5t-178.5 50.5h-285v227h283q99 0 158 48.5t59 131.5q0 96 -78 152.5t-205 56.5q-242 0 -348 -213l-209 115q168 325 563 325q237 0 383 -113t146 -300q0 -113 -57 -195
t-159 -119q118 -40 182 -127t64 -209q0 -195 -156.5 -315.5t-410.5 -120.5z" />
    <glyph glyph-name="uni0418" unicode="&#x418;" horiz-adv-x="1529" 
d="M1360 0h-250v1051l-668 -1051h-274v1434h252v-1051l665 1051h275v-1434z" />
    <glyph glyph-name="uni0419" unicode="&#x419;" horiz-adv-x="1529" 
d="M1360 0h-250v1051l-668 -1051h-274v1434h252v-1051l665 1051h275v-1434zM764 1597q-175 0 -283 85.5t-127 234.5h211q8 -68 60.5 -109t138.5 -41t140 41.5t63 108.5h209q-17 -149 -126 -234.5t-286 -85.5z" />
    <glyph glyph-name="uni041A" unicode="&#x41a;" horiz-adv-x="1363" 
d="M1315 1434l-481 -680l483 -754h-295l-401 639h-193v-639h-260v1434h260v-574h201l397 574h289z" />
    <glyph glyph-name="uni041B" unicode="&#x41b;" horiz-adv-x="1503" 
d="M84 -16v262h20q91 0 140 56t71.5 198.5t22.5 412.5v521h995v-1434h-250v1194h-501v-344q0 -332 -48 -521t-145.5 -267t-265.5 -78h-39z" />
    <glyph glyph-name="uni041C" unicode="&#x41c;" horiz-adv-x="1869" 
d="M506 1434l432 -932l432 932h320v-1434h-242v1081l-432 -901h-162l-434 901v-1081h-240v1434h326z" />
    <glyph glyph-name="uni041D" unicode="&#x41d;" horiz-adv-x="1505" 
d="M170 0v1434h252v-560h663v560h250v-1434h-250v645h-663v-645h-252z" />
    <glyph glyph-name="uni041E" unicode="&#x41e;" horiz-adv-x="1695" 
d="M850 -33q-214 0 -384 97t-265 268t-95 385t95 385t265 267.5t384 96.5q212 0 381 -96.5t263.5 -268t94.5 -384.5q0 -214 -94.5 -385t-263.5 -268t-381 -97zM852 207q210 0 343.5 143.5t133.5 368.5q0 222 -133.5 365t-343.5 143q-216 0 -351.5 -143t-135.5 -365
q0 -225 135.5 -368.5t351.5 -143.5z" />
    <glyph glyph-name="uni041F" unicode="&#x41f;" horiz-adv-x="1521" 
d="M170 0v1434h1182v-1434h-252v1202h-680v-1202h-250z" />
    <glyph glyph-name="uni0420" unicode="&#x420;" horiz-adv-x="1314" 
d="M735 1208h-311v-487h311q110 0 178 68t68 176t-68 175.5t-178 67.5zM424 496v-496h-246v1434h572q216 0 349.5 -129.5t133.5 -339.5q0 -211 -133.5 -340t-349.5 -129h-326z" />
    <glyph glyph-name="uni0421" unicode="&#x421;" horiz-adv-x="1556" 
d="M848 -33q-160 0 -298.5 57t-235.5 156.5t-152.5 238.5t-55.5 298q0 213 94.5 384t264 268t383.5 97q220 0 389 -104t254 -291l-221 -117q-57 132 -165.5 202.5t-254.5 70.5q-215 0 -350 -142t-135 -368t135 -368t350 -142q146 0 254.5 70t165.5 202l221 -117
q-85 -187 -254 -291t-389 -104z" />
    <glyph glyph-name="uni0422" unicode="&#x422;" horiz-adv-x="1263" 
d="M76 1434h1114v-232h-428v-1202h-258v1202h-428v232z" />
    <glyph glyph-name="uni0423" unicode="&#x423;" horiz-adv-x="1275" 
d="M319 1434l334 -750l312 750h270l-633 -1434h-256l189 424l-492 1010h276z" />
    <glyph glyph-name="uni0424" unicode="&#x424;" horiz-adv-x="1806" 
d="M782 315v803q-186 -6 -304 -117.5t-118 -285.5t118 -284.5t304 -115.5zM1024 1118v-803q185 5 303.5 117t118.5 285t-118.5 284.5t-303.5 116.5zM1024 -53h-242v135q-311 17 -493.5 191.5t-182.5 443.5q0 268 182 442t494 193v135h242v-135q312 -19 494 -193t182 -442
t-182 -442t-494 -193v-135z" />
    <glyph glyph-name="uni0425" unicode="&#x425;" horiz-adv-x="1323" 
d="M330 0h-287l457 739l-426 695h286l306 -516l305 516h278l-426 -695l457 -739h-295l-328 559z" />
    <glyph glyph-name="uni0426" unicode="&#x426;" horiz-adv-x="1622" 
d="M170 1434h252v-1203h680v1203h252v-1203h192v-526h-252v295h-1124v1434z" />
    <glyph glyph-name="uni0427" unicode="&#x427;" horiz-adv-x="1460" 
d="M1290 1434v-1434h-252v594q-163 -105 -376 -105q-241 0 -376.5 137.5t-135.5 391.5v416h249v-394q0 -147 80.5 -227t229.5 -80q94 0 182 32t147 87v582h252z" />
    <glyph glyph-name="uni0428" unicode="&#x428;" horiz-adv-x="1951" 
d="M170 0v1434h250v-1203h430v1203h252v-1203h428v1203h252v-1434h-1612z" />
    <glyph glyph-name="uni0429" unicode="&#x429;" horiz-adv-x="2050" 
d="M170 0v1434h250v-1203h430v1203h252v-1203h428v1203h252v-1203h192v-530h-250v299h-1554z" />
    <glyph glyph-name="uni042A" unicode="&#x42a;" horiz-adv-x="1564" 
d="M80 1192v242h573v-471h342q220 0 354 -132.5t134 -349.5t-134 -349t-354 -132h-585v1192h-330zM973 737h-320v-512h320q119 0 189.5 70t70.5 186t-70.5 186t-189.5 70z" />
    <glyph glyph-name="uni042B" unicode="&#x42b;" horiz-adv-x="1843" 
d="M170 0v1434h244v-471h342q220 0 353.5 -132.5t133.5 -349.5t-133.5 -349t-353.5 -132h-586zM731 737h-317v-512h317q119 0 189.5 70t70.5 186t-70.5 186t-189.5 70zM1421 1434h252v-1434h-252v1434z" />
    <glyph glyph-name="uni042C" unicode="&#x42c;" horiz-adv-x="1325" 
d="M170 0v1434h244v-471h342q220 0 353.5 -132.5t133.5 -349.5t-133.5 -349t-353.5 -132h-586zM731 737h-317v-512h317q119 0 189.5 70t70.5 186t-70.5 186t-189.5 70z" />
    <glyph glyph-name="uni042D" unicode="&#x42d;" horiz-adv-x="1558" 
d="M709 -33q-221 0 -389.5 104.5t-253.5 290.5l225 115q61 -131 169.5 -200.5t250.5 -69.5q185 0 312.5 110.5t160.5 292.5h-674v230h670q-36 175 -162 281t-307 106q-142 0 -250.5 -69.5t-169.5 -201.5l-225 115q85 186 253.5 290.5t389.5 104.5q160 0 298.5 -57t236 -156
t153 -238t55.5 -298q0 -213 -94.5 -384t-264.5 -268.5t-384 -97.5z" />
    <glyph glyph-name="uni042E" unicode="&#x42e;" horiz-adv-x="2285" 
d="M1450 1219q-205 0 -339 -143t-134 -359q0 -217 134 -359.5t339 -142.5q206 0 339.5 142.5t133.5 359.5q0 216 -133.5 359t-339.5 143zM1450 1462q209 0 376 -97t260 -267t93 -381q0 -158 -54.5 -296t-150.5 -237t-232 -156t-292 -57q-294 0 -495.5 186.5t-229.5 475.5
h-303v-633h-252v1434h252v-560h313q50 261 245.5 424.5t469.5 163.5z" />
    <glyph glyph-name="uni042F" unicode="&#x42f;" horiz-adv-x="1337" 
d="M612 721h312v487h-312q-112 0 -179.5 -67.5t-67.5 -175.5t67.5 -176t179.5 -68zM1167 1434v-1434h-243v496h-285l-322 -496h-274l350 532q-130 50 -204 164t-74 269q0 211 133 340t350 129h569z" />
    <glyph glyph-name="uni0430" unicode="&#x430;" horiz-adv-x="1122" 
d="M768 446v17l-197 -8q-272 -11 -272 -156q0 -63 49 -100t131 -37q124 0 206.5 80t82.5 204zM989 639v-639h-221v154q-53 -89 -140.5 -136t-203.5 -47q-162 0 -256 88t-94 226q0 152 119 241.5t344 96.5l231 10v10q0 99 -62.5 159t-168.5 60q-179 0 -254 -157l-181 90
q56 123 169.5 190.5t271.5 67.5q205 0 325.5 -111.5t120.5 -302.5z" />
    <glyph glyph-name="uni0431" unicode="&#x431;" horiz-adv-x="1216" 
d="M625 178q124 0 203 84.5t79 218.5t-79 217.5t-203 83.5q-127 0 -207 -83.5t-80 -217.5q0 -135 80.5 -219t206.5 -84zM629 -29q-248 0 -390.5 176t-142.5 478q0 383 142.5 568.5t466.5 211.5l321 25l12 -220l-317 -22q-216 -15 -313.5 -108t-110.5 -298q59 98 153 150.5
t214 52.5q209 0 341 -141t132 -363q0 -226 -140.5 -368t-367.5 -142z" />
    <glyph glyph-name="uni0432" unicode="&#x432;" horiz-adv-x="1056" 
d="M350 436v-254h279q61 0 98 36t37 93q0 56 -37 90.5t-98 34.5h-279zM350 842v-228h254q56 0 88.5 33.5t32.5 81.5q0 49 -32 81t-89 32h-254zM655 0h-522v1024h506q144 0 225.5 -75t81.5 -187q0 -78 -42 -137t-124 -84q101 -29 153 -96t52 -158q0 -127 -92.5 -207
t-237.5 -80z" />
    <glyph glyph-name="uni0433" unicode="&#x433;" horiz-adv-x="847" 
d="M141 0v1024h668v-209h-438v-815h-230z" />
    <glyph glyph-name="uni0434" unicode="&#x434;" horiz-adv-x="1247" 
d="M395 209h414v606h-350v-92q0 -197 -15.5 -314t-48.5 -200zM274 -252h-219v461h111q40 66 59 200t19 402v213h794v-815h154v-461h-219v252h-699v-252z" />
    <glyph glyph-name="uni0435" unicode="&#x435;" 
d="M319 623h566q-12 105 -85.5 168t-185.5 63q-111 0 -189.5 -62.5t-105.5 -168.5zM627 -29q-241 0 -394 152t-153 391q0 237 152 388t386 151q224 0 362 -139.5t138 -364.5q0 -51 -8 -103h-799q20 -123 105 -196.5t213 -73.5q185 0 276 148l166 -131q-75 -108 -189 -165
t-255 -57z" />
    <glyph glyph-name="uni0436" unicode="&#x436;" horiz-adv-x="1536" 
d="M297 1024l246 -395h110v395h230v-395h116l240 395h252l-320 -487l330 -537h-262l-244 432h-112v-432h-230v432h-108l-248 -432h-262l330 537l-320 487h252z" />
    <glyph glyph-name="uni0437" unicode="&#x437;" horiz-adv-x="1013" 
d="M508 -29q-332 0 -457 271l180 90q74 -170 273 -170q97 0 157 38.5t60 106.5q0 57 -45 92t-125 35h-201v189h203q69 0 109 30.5t40 81.5q0 60 -55 95.5t-143 35.5q-175 0 -246 -149l-170 100q126 236 424 236q183 0 295.5 -83t112.5 -218q0 -160 -172 -230
q192 -53 192 -233q0 -142 -119 -230t-313 -88z" />
    <glyph glyph-name="uni0438" unicode="&#x438;" horiz-adv-x="1193" 
d="M133 1024h229v-692l465 692h234v-1024h-230v692l-464 -692h-234v1024z" />
    <glyph glyph-name="uni0439" unicode="&#x439;" horiz-adv-x="1210" 
d="M141 1024h230v-692l465 692h233v-1024h-229v692l-465 -692h-234v1024zM604 1206q-155 0 -252.5 85t-109.5 233h192q9 -68 55.5 -108t114.5 -40q70 0 117.5 40t56.5 108h193q-12 -147 -111 -232.5t-256 -85.5z" />
    <glyph glyph-name="uni043A" unicode="&#x43a;" horiz-adv-x="1105" 
d="M803 0l-305 426h-136v-426h-227v1024h227v-391h142l299 391h260l-389 -489l397 -535h-268z" />
    <glyph glyph-name="uni043B" unicode="&#x43b;" horiz-adv-x="1155" 
d="M43 -12v223h16q70 0 106.5 37.5t52 128.5t15.5 268v379h789v-1024h-229v815h-344v-211q0 -172 -17 -284.5t-59.5 -189t-113.5 -109.5t-181 -33h-35z" />
    <glyph glyph-name="uni043C" unicode="&#x43c;" horiz-adv-x="1402" 
d="M412 1024l293 -616l292 616h273v-1024h-213v731l-293 -596h-125l-293 596v-731h-213v1024h279z" />
    <glyph glyph-name="uni043D" unicode="&#x43d;" horiz-adv-x="1181" 
d="M819 1024h230v-1024h-230v436h-457v-436h-229v1024h229v-379h457v379z" />
    <glyph glyph-name="uni043E" unicode="&#x43e;" horiz-adv-x="1239" 
d="M621 -29q-235 0 -387 154t-152 387t152 387t387 154t386.5 -154t151.5 -387t-151.5 -387t-386.5 -154zM621 186q132 0 217.5 92.5t85.5 233.5t-85.5 233.5t-217.5 92.5t-218 -92.5t-86 -233.5t86 -233.5t218 -92.5z" />
    <glyph glyph-name="uni043F" unicode="&#x43f;" horiz-adv-x="1171" 
d="M133 0v1024h903v-1024h-229v815h-445v-815h-229z" />
    <glyph glyph-name="uni0440" unicode="&#x440;" horiz-adv-x="1304" 
d="M674 186q132 0 217.5 93.5t85.5 234.5t-85.5 232.5t-217.5 91.5t-217.5 -91.5t-85.5 -232.5t85.5 -234.5t217.5 -93.5zM729 -29q-236 0 -358 195v-576h-230v1434h230v-166q122 195 358 195q141 0 252 -70.5t172 -194t61 -276.5t-61 -276.5t-172 -194t-252 -70.5z" />
    <glyph glyph-name="uni0441" unicode="&#x441;" horiz-adv-x="1155" 
d="M621 -29q-236 0 -387.5 153t-151.5 388t151.5 388t387.5 153q162 0 284 -76.5t182 -214.5l-200 -105q-38 88 -107.5 134.5t-161.5 46.5q-133 0 -217 -92t-84 -234t84 -234t217 -92q92 0 161.5 46.5t107.5 134.5l200 -105q-60 -138 -182 -214.5t-284 -76.5z" />
    <glyph glyph-name="uni0442" unicode="&#x442;" horiz-adv-x="956" 
d="M39 1024h879v-209h-326v-815h-230v815h-323v209z" />
    <glyph glyph-name="uni0443" unicode="&#x443;" horiz-adv-x="1095" 
d="M274 -410l166 422l-405 1012h241l277 -741l268 741h240l-555 -1434h-232z" />
    <glyph glyph-name="uni0444" unicode="&#x444;" horiz-adv-x="1462" 
d="M621 1051v428h221v-428q244 -15 392 -163t148 -376t-148 -376t-392 -163v-383h-221v383q-244 15 -392.5 163t-148.5 376t148.5 376t392.5 163zM842 842v-660q137 8 224 99.5t87 230.5t-87 230.5t-224 99.5zM621 182v660q-137 -8 -224.5 -99.5t-87.5 -230.5t87.5 -230.5
t224.5 -99.5z" />
    <glyph glyph-name="uni0445" unicode="&#x445;" horiz-adv-x="1081" 
d="M1024 1024l-344 -502l367 -522h-267l-241 377l-244 -377h-260l366 522l-344 502h258l230 -358l227 358h252z" />
    <glyph glyph-name="uni0446" unicode="&#x446;" horiz-adv-x="1247" 
d="M973 0h-840v1024h229v-815h447v815h229v-815h154v-461h-219v252z" />
    <glyph glyph-name="uni0447" unicode="&#x447;" horiz-adv-x="1126" 
d="M993 1024v-1024h-229v410q-120 -68 -279 -68q-184 0 -287.5 103t-103.5 292v287h230v-231q0 -124 53 -184t162 -60q130 0 225 72v403h229z" />
    <glyph glyph-name="uni0448" unicode="&#x448;" horiz-adv-x="1570" 
d="M1436 0h-1303v1024h229v-815h308v815h229v-815h307v815h230v-1024z" />
    <glyph glyph-name="uni0449" unicode="&#x449;" horiz-adv-x="1644" 
d="M1370 0h-1237v1024h229v-815h308v815h229v-815h307v815h230v-815h155v-461h-221v252z" />
    <glyph glyph-name="uni044A" unicode="&#x44a;" horiz-adv-x="1206" 
d="M39 1024h471v-311h262q164 0 265.5 -100t101.5 -257q0 -156 -101 -256t-264 -100h-479v813h-256v211zM510 516v-319h238q79 0 125.5 44t46.5 115t-46.5 115.5t-125.5 44.5h-238z" />
    <glyph glyph-name="uni044B" unicode="&#x44b;" horiz-adv-x="1505" 
d="M1133 0v1024h229v-1024h-229zM358 516v-319h236q79 0 125.5 44t46.5 115t-46.5 115.5t-125.5 44.5h-236zM621 0h-480v1024h217v-311h263q163 0 263.5 -100t100.5 -257t-100.5 -256.5t-263.5 -99.5z" />
    <glyph glyph-name="uni044C" unicode="&#x44c;" horiz-adv-x="1054" 
d="M358 516v-319h236q79 0 125.5 44t46.5 115t-46.5 115.5t-125.5 44.5h-236zM621 0h-480v1024h217v-311h263q163 0 263.5 -100t100.5 -257t-100.5 -256.5t-263.5 -99.5z" />
    <glyph glyph-name="uni044D" unicode="&#x44d;" horiz-adv-x="1153" 
d="M535 -29q-162 0 -283.5 76t-183.5 213l190 96q38 -85 111 -131.5t168 -46.5q113 0 193.5 66t105.5 176h-457v192h455q-27 107 -106.5 170.5t-190.5 63.5q-95 0 -168 -46.5t-111 -131.5l-190 96q62 137 183.5 213t283.5 76q235 0 386.5 -153.5t151.5 -387.5t-151.5 -387.5
t-386.5 -153.5z" />
    <glyph glyph-name="uni044E" unicode="&#x44e;" horiz-adv-x="1699" 
d="M1085 186q128 0 212.5 93.5t84.5 234.5t-84.5 232.5t-212.5 91.5t-212.5 -91.5t-84.5 -232.5t84.5 -234.5t212.5 -93.5zM1092 -29q-204 0 -346 122t-175 317h-200v-410h-230v1024h230v-403h200q34 192 176.5 312t344.5 120q230 0 379 -154t149 -387t-149 -387t-379 -154z
" />
    <glyph glyph-name="uni044F" unicode="&#x44f;" horiz-adv-x="1071" 
d="M715 524v303h-234q-79 0 -125.5 -41.5t-46.5 -109.5t46.5 -110t125.5 -42h234zM453 1024h485v-1024h-223v328h-213l-199 -328h-258l231 365q-90 41 -140 122.5t-50 188.5q0 153 102 250.5t265 97.5z" />
    <glyph glyph-name="uni0450" unicode="&#x450;" 
d="M319 623h566q-12 105 -85.5 168t-185.5 63q-111 0 -189.5 -62.5t-105.5 -168.5zM627 -29q-241 0 -394 152t-153 391q0 237 152 388t386 151q224 0 362 -139.5t138 -364.5q0 -51 -8 -103h-799q20 -123 105 -196.5t213 -73.5q185 0 276 148l166 -131q-75 -108 -189 -165
t-255 -57zM528 1202l-229 328h258l188 -328h-217z" />
    <glyph glyph-name="uni0451" unicode="&#x451;" 
d="M319 623h566q-12 105 -85.5 168t-185.5 63q-111 0 -189.5 -62.5t-105.5 -168.5zM627 -29q-241 0 -394 152t-153 391q0 237 152 388t386 151q224 0 362 -139.5t138 -364.5q0 -51 -8 -103h-799q20 -123 105 -196.5t213 -73.5q185 0 276 148l166 -131q-75 -108 -189 -165
t-255 -57zM254 1356q0 61 40.5 101t100.5 40t101 -40t41 -101q0 -60 -41 -99.5t-101 -39.5t-100.5 39.5t-40.5 99.5zM698 1356q0 61 41.5 101t100.5 40q60 0 99.5 -40t39.5 -101q0 -60 -39.5 -99.5t-99.5 -39.5q-59 0 -100.5 40t-41.5 99z" />
    <glyph glyph-name="uni0452" unicode="&#x452;" horiz-adv-x="1251" 
d="M55 1083v187h156v164h229v-164h322v-187h-322v-268q95 174 303 174q172 0 276.5 -113t104.5 -298v-582q0 -204 -97 -311t-284 -107h-69v219h41q100 0 140 53.5t40 176.5v489q0 125 -54.5 193.5t-156.5 68.5q-108 0 -176 -72.5t-68 -189.5v-516h-229v1083h-156z" />
    <glyph glyph-name="uni0453" unicode="&#x453;" horiz-adv-x="839" 
d="M133 0v1024h668v-209h-439v-815h-229zM340 1202l180 328h258l-221 -328h-217z" />
    <glyph glyph-name="uni0454" unicode="&#x454;" horiz-adv-x="1153" 
d="M621 -29q-237 0 -389 153.5t-152 387.5t152 387.5t389 153.5q160 0 281 -76t183 -213l-190 -96q-38 85 -111 131.5t-168 46.5q-112 0 -191.5 -64t-105.5 -172h455v-188h-457q25 -111 105.5 -177.5t193.5 -66.5q95 0 168 46.5t111 131.5l190 -96q-62 -137 -183 -213
t-281 -76z" />
    <glyph glyph-name="uni0455" unicode="&#x455;" horiz-adv-x="1040" 
d="M539 -29q-163 0 -282.5 68.5t-182.5 198.5l174 106q90 -178 295 -178q89 0 144.5 34t55.5 89q0 41 -34 68.5t-88.5 44t-120.5 30.5t-132 35.5t-120.5 52t-88.5 86t-34 131.5q0 140 108 228t293 88q149 0 257 -60t167 -176l-174 -104q-79 149 -256 149q-82 0 -131 -32.5
t-49 -81.5q0 -38 34.5 -63.5t89.5 -40.5t121.5 -28.5t133.5 -35t122 -53t89.5 -88.5t34.5 -136q0 -151 -116.5 -241.5t-309.5 -90.5z" />
    <glyph glyph-name="uni0456" unicode="&#x456;" horiz-adv-x="497" 
d="M133 0v1024h229v-1024h-229zM106 1356q0 61 41.5 101t102.5 40q59 0 99 -40t40 -101q0 -60 -40 -99.5t-99 -39.5q-61 0 -102.5 39.5t-41.5 99.5z" />
    <glyph glyph-name="uni0457" unicode="&#x457;" horiz-adv-x="497" 
d="M133 0v1024h229v-1024h-229zM-82 1356q0 60 40.5 100.5t100.5 40.5q59 0 99.5 -40.5t40.5 -100.5t-40.5 -101t-99.5 -41q-60 0 -100.5 41t-40.5 101zM297 1356q0 60 40 100.5t99 40.5q60 0 101 -40.5t41 -100.5t-41 -101t-101 -41q-59 0 -99 41t-40 101z" />
    <glyph glyph-name="uni0458" unicode="&#x458;" horiz-adv-x="497" 
d="M133 27v997h229v-1028q0 -205 -96.5 -311.5t-283.5 -106.5h-70v219h41q100 0 140 53.5t40 176.5zM109 1356q0 -60 40.5 -99.5t100.5 -39.5t99.5 39.5t39.5 99.5q0 61 -39.5 101t-99.5 40t-100.5 -40t-40.5 -101z" />
    <glyph glyph-name="uni0459" unicode="&#x459;" horiz-adv-x="1685" 
d="M989 516v-319h217q80 0 126 43.5t46 115.5t-46 116t-126 44h-217zM78 -12h-35v223h16q70 0 106.5 37.5t52 128.5t15.5 268v379h756v-311h244q163 0 264.5 -100.5t101.5 -256.5q0 -157 -101 -256.5t-265 -99.5h-459v815h-328v-211q0 -138 -10.5 -235.5t-35.5 -172.5
t-68 -119.5t-105 -66.5t-149 -22z" />
    <glyph glyph-name="uni045A" unicode="&#x45a;" horiz-adv-x="1740" 
d="M829 686v338h218v-338h260q154 0 251 -96t97 -246t-97 -247t-251 -97h-478v489h-450v-489h-229v1024h229v-338h450zM1047 489v-292h233q69 0 112.5 41t43.5 106q0 66 -43.5 105.5t-112.5 39.5h-233z" />
    <glyph glyph-name="uni045B" unicode="&#x45b;" horiz-adv-x="1269" 
d="M59 1083v187h156v164h229v-164h322v-187h-322v-268q95 174 304 174q171 0 275.5 -113t104.5 -298v-578h-229v516q0 125 -54.5 193.5t-156.5 68.5q-108 0 -176 -72.5t-68 -189.5v-516h-229v1083h-156z" />
    <glyph glyph-name="uni045C" unicode="&#x45c;" horiz-adv-x="1112" 
d="M811 0l-305 426h-135v-426h-228v1024h228v-391h141l299 391h260l-389 -489l397 -535h-268zM440 1202l181 328h258l-222 -328h-217z" />
    <glyph glyph-name="uni045D" unicode="&#x45d;" horiz-adv-x="1210" 
d="M141 1024h230v-692l465 692h233v-1024h-229v692l-465 -692h-234v1024zM543 1202l-230 328h258l189 -328h-217z" />
    <glyph glyph-name="uni045E" unicode="&#x45e;" horiz-adv-x="1095" 
d="M274 -410l166 422l-405 1012h241l277 -741l268 741h240l-555 -1434h-232zM545 1206q-156 0 -253.5 85.5t-109.5 232.5h195q7 -70 53.5 -110t114.5 -40q70 0 117.5 40t54.5 110h194q-12 -147 -110.5 -232.5t-255.5 -85.5z" />
    <glyph glyph-name="uni045F" unicode="&#x45f;" horiz-adv-x="1204" 
d="M492 0h-342v1024h229v-815h446v815h230v-1024h-342v-252h-221v252z" />
    <glyph glyph-name="uni0490" unicode="&#x490;" horiz-adv-x="1134" 
d="M180 0v1434h627v274h246v-506h-621v-1202h-252z" />
    <glyph glyph-name="uni0491" unicode="&#x491;" horiz-adv-x="847" 
d="M592 1024v248h217v-457h-438v-815h-230v1024h451z" />
    <glyph glyph-name="uni04DE" unicode="&#x4de;" horiz-adv-x="1286" 
d="M637 -33q-433 0 -598 367l215 115q109 -246 385 -246q139 0 225 62.5t86 166.5q0 90 -64.5 140.5t-178.5 50.5h-285v227h283q99 0 158 48.5t59 131.5q0 96 -78 152.5t-205 56.5q-242 0 -348 -213l-209 115q168 325 563 325q237 0 383 -113t146 -300q0 -113 -57 -195
t-159 -119q118 -40 182 -127t64 -209q0 -195 -156.5 -315.5t-410.5 -120.5zM264 1741q0 63 43 105t105 42q63 0 106 -42t43 -105q0 -62 -43 -104t-106 -42q-62 0 -105 42.5t-43 103.5zM727 1741q0 63 42.5 105t104.5 42q63 0 106.5 -42t43.5 -105q0 -61 -43.5 -103.5
t-106.5 -42.5q-62 0 -104.5 42.5t-42.5 103.5z" />
    <glyph glyph-name="uni04DF" unicode="&#x4df;" horiz-adv-x="1013" 
d="M508 -29q-332 0 -457 271l180 90q74 -170 273 -170q97 0 157 38.5t60 106.5q0 57 -45 92t-125 35h-201v189h203q69 0 109 30.5t40 81.5q0 60 -55 95.5t-143 35.5q-175 0 -246 -149l-170 100q126 236 424 236q183 0 295.5 -83t112.5 -218q0 -160 -172 -230
q192 -53 192 -233q0 -142 -119 -230t-313 -88zM143 1356q0 61 41 101t101 40t100.5 -40t40.5 -101q0 -60 -40.5 -99.5t-100.5 -39.5t-101 39.5t-41 99.5zM588 1356q0 61 41 101t100 40q60 0 99.5 -40t39.5 -101q0 -60 -39.5 -99.5t-99.5 -39.5q-59 0 -100 40t-41 99z" />
    <glyph glyph-name="uni04E2" unicode="&#x4e2;" horiz-adv-x="1529" 
d="M1360 0h-250v1051l-668 -1051h-274v1434h252v-1051l665 1051h275v-1434zM430 1638v181h672v-181h-672z" />
    <glyph glyph-name="uni04E3" unicode="&#x4e3;" horiz-adv-x="1193" 
d="M133 1024h229v-692l465 692h234v-1024h-230v692l-464 -692h-234v1024zM297 1231v182h600v-182h-600z" />
    <glyph glyph-name="uni04E4" unicode="&#x4e4;" horiz-adv-x="1529" 
d="M1360 0h-250v1051l-668 -1051h-274v1434h252v-1051l665 1051h275v-1434zM387 1741q0 63 43 105t105 42q63 0 106 -42t43 -105q0 -62 -43 -104t-106 -42q-62 0 -105 42.5t-43 103.5zM850 1741q0 63 42.5 105t104.5 42q63 0 106.5 -42t43.5 -105q0 -61 -43.5 -103.5
t-106.5 -42.5q-62 0 -104.5 42.5t-42.5 103.5z" />
    <glyph glyph-name="uni04E5" unicode="&#x4e5;" horiz-adv-x="1193" 
d="M133 1024h229v-692l465 692h234v-1024h-230v692l-464 -692h-234v1024zM236 1356q0 61 40.5 101t100.5 40t100.5 -40t40.5 -101q0 -60 -40.5 -99.5t-100.5 -39.5t-100.5 39.5t-40.5 99.5zM680 1356q0 61 41 101t100 40q60 0 100 -40t40 -101q0 -60 -40 -99.5t-100 -39.5
q-59 0 -100 40t-41 99z" />
    <glyph glyph-name="uni04E6" unicode="&#x4e6;" horiz-adv-x="1695" 
d="M850 -33q-214 0 -384 97t-265 268t-95 385t95 385t265 267.5t384 96.5q212 0 381 -96.5t263.5 -268t94.5 -384.5q0 -214 -94.5 -385t-263.5 -268t-381 -97zM852 207q210 0 343.5 143.5t133.5 368.5q0 222 -133.5 365t-343.5 143q-216 0 -351.5 -143t-135.5 -365
q0 -225 135.5 -368.5t351.5 -143.5zM469 1741q0 63 42.5 105t104.5 42q63 0 106.5 -42t43.5 -105q0 -61 -43.5 -103.5t-106.5 -42.5q-62 0 -104.5 42.5t-42.5 103.5zM932 1741q0 63 42.5 105t104.5 42q63 0 106.5 -42t43.5 -105q0 -61 -43.5 -103.5t-106.5 -42.5
q-62 0 -104.5 42.5t-42.5 103.5z" />
    <glyph glyph-name="uni04E7" unicode="&#x4e7;" horiz-adv-x="1239" 
d="M621 -29q-235 0 -387 154t-152 387t152 387t387 154t386.5 -154t151.5 -387t-151.5 -387t-386.5 -154zM621 186q132 0 217.5 92.5t85.5 233.5t-85.5 233.5t-217.5 92.5t-218 -92.5t-86 -233.5t86 -233.5t218 -92.5zM258 1356q0 61 40.5 101t100.5 40t101 -40t41 -101
q0 -60 -41 -99.5t-101 -39.5t-100.5 39.5t-40.5 99.5zM702 1356q0 61 41.5 101t100.5 40q60 0 99.5 -40t39.5 -101q0 -60 -39.5 -99.5t-99.5 -39.5q-59 0 -100.5 40t-41.5 99z" />
    <glyph glyph-name="uni04F8" unicode="&#x4f8;" horiz-adv-x="1843" 
d="M170 0v1434h244v-471h342q220 0 353.5 -132.5t133.5 -349.5t-133.5 -349t-353.5 -132h-586zM731 737h-317v-512h317q119 0 189.5 70t70.5 186t-70.5 186t-189.5 70zM1421 1434h252v-1434h-252v1434zM543 1741q0 63 42.5 105t104.5 42q63 0 106.5 -42t43.5 -105
q0 -61 -43.5 -103.5t-106.5 -42.5q-62 0 -104.5 42.5t-42.5 103.5zM1006 1741q0 63 42.5 105t104.5 42q63 0 106.5 -42t43.5 -105q0 -61 -43.5 -103.5t-106.5 -42.5q-62 0 -104.5 42.5t-42.5 103.5z" />
    <glyph glyph-name="uni04F9" unicode="&#x4f9;" horiz-adv-x="1509" 
d="M1133 0v1024h229v-1024h-229zM358 516v-319h236q79 0 125.5 44t46.5 115t-46.5 115.5t-125.5 44.5h-236zM621 0h-480v1024h217v-311h263q163 0 263.5 -100t100.5 -257t-100.5 -256.5t-263.5 -99.5zM393 1356q0 61 41 101t101 40t100.5 -40t40.5 -101q0 -60 -40.5 -99.5
t-100.5 -39.5t-101 39.5t-41 99.5zM838 1356q0 61 41 101t100 40q60 0 99.5 -40t39.5 -101q0 -60 -39.5 -99.5t-99.5 -39.5q-59 0 -100 40t-41 99z" />
    <glyph glyph-name="endash" unicode="&#x2013;" horiz-adv-x="1212" 
d="M100 449v198h1012v-198h-1012z" />
    <glyph glyph-name="emdash" unicode="&#x2014;" horiz-adv-x="1499" 
d="M100 449v198h1299v-198h-1299z" />
    <glyph glyph-name="quoteleft" unicode="&#x2018;" horiz-adv-x="534" 
d="M424 977q0 -62 -43 -104t-107 -42q-72 0 -116.5 57.5t-44.5 151.5q0 203 209 406l100 -96q-116 -118 -150 -226q65 0 108.5 -41t43.5 -106z" />
    <glyph glyph-name="quoteright" unicode="&#x2019;" horiz-adv-x="534" 
d="M111 1352q0 62 42.5 103.5t106.5 41.5q72 0 117 -57.5t45 -151.5q0 -202 -209 -405l-100 96q115 117 149 225q-65 0 -108 41.5t-43 106.5z" />
    <glyph glyph-name="quotesinglbase" unicode="&#x201a;" horiz-adv-x="497" 
d="M111 135q0 62 42.5 104t106.5 42q72 0 117 -57.5t45 -151.5q0 -203 -209 -406l-100 96q114 117 149 226q-65 0 -108 41t-43 106z" />
    <glyph glyph-name="quotedblleft" unicode="&#x201c;" horiz-adv-x="915" 
d="M416 977q0 -62 -43 -104t-107 -42q-72 0 -117 57.5t-45 151.5q0 203 209 406l101 -96q-116 -118 -150 -226q65 0 108.5 -41t43.5 -106zM815 977q0 -62 -42.5 -104t-106.5 -42q-72 0 -117 57.5t-45 151.5q0 203 209 406l100 -96q-114 -117 -149 -226q65 0 108 -41t43 -106
z" />
    <glyph glyph-name="quotedblright" unicode="&#x201d;" horiz-adv-x="915" 
d="M100 1300q0 62 43 104t107 42q72 0 117 -57.5t45 -151.5q0 -203 -209 -406l-101 97q116 119 150 225q-65 0 -108.5 41t-43.5 106zM502 1300q0 62 42.5 104t106.5 42q72 0 117 -57.5t45 -151.5q0 -203 -209 -406l-100 97q115 117 149 225q-65 0 -108 41t-43 106z" />
    <glyph glyph-name="quotedblbase" unicode="&#x201e;" horiz-adv-x="915" 
d="M502 135q0 62 42.5 104t106.5 42q72 0 117 -57.5t45 -151.5q0 -203 -209 -406l-100 96q114 117 149 226q-65 0 -108 41t-43 106zM100 135q0 62 43 104t107 42q72 0 117 -57.5t45 -151.5q0 -203 -209 -406l-101 96q116 118 150 226q-65 0 -108.5 41t-43.5 106z" />
    <glyph glyph-name="ellipsis" unicode="&#x2026;" horiz-adv-x="1286" 
d="M111 133q0 63 42.5 105.5t104.5 42.5t105 -42.5t43 -105.5q0 -61 -43 -103t-105 -42t-104.5 42t-42.5 103zM494 133q0 63 42.5 105.5t104.5 42.5t104.5 -42.5t42.5 -105.5q0 -61 -42.5 -103t-104.5 -42t-104.5 42t-42.5 103zM879 133q0 63 42.5 105.5t104.5 42.5
t105 -42.5t43 -105.5q0 -61 -43 -103t-105 -42t-104.5 42t-42.5 103z" />
    <glyph glyph-name="perthousand" unicode="&#x2030;" horiz-adv-x="2414" 
d="M283 53l151 -102l996 1450l-152 100zM426 729q-147 0 -237.5 104t-90.5 261q0 155 90.5 258.5t237.5 103.5t237.5 -103.5t90.5 -258.5q0 -157 -90.5 -261t-237.5 -104zM426 907q63 0 103 51.5t40 135.5q0 83 -40 134.5t-103 51.5t-103 -51.5t-40 -134.5q0 -84 40 -135.5
t103 -51.5zM1288 -23q-145 0 -236 104t-91 259q0 156 91 260.5t236 104.5q147 0 237.5 -104t90.5 -261q0 -155 -90.5 -259t-237.5 -104zM1288 154q63 0 103.5 51.5t40.5 134.5q0 84 -40 135t-104 51q-62 0 -102.5 -51t-40.5 -135q0 -82 40.5 -134t102.5 -52zM2040 -23
q-147 0 -237.5 104t-90.5 259q0 157 90.5 261t237.5 104t237 -104t90 -261q0 -155 -90.5 -259t-236.5 -104zM2040 154q63 0 103 51.5t40 134.5q0 84 -39.5 135t-103.5 51t-104 -51t-40 -135q0 -83 40.5 -134.5t103.5 -51.5z" />
    <glyph glyph-name="guilsinglleft" unicode="&#x2039;" horiz-adv-x="749" 
d="M500 -23l-428 535l428 535l168 -123l-334 -412l334 -412z" />
    <glyph glyph-name="guilsinglright" unicode="&#x203a;" horiz-adv-x="749" 
d="M252 1047l428 -535l-428 -535l-170 123l336 412l-334 412z" />
    <glyph glyph-name="Euro" unicode="&#x20ac;" horiz-adv-x="1456" 
d="M256 465h-193v172h158q-2 27 -2 80t2 80h-158v172h193q72 226 257 361.5t437 135.5q244 0 426 -131l-102 -209q-133 115 -322 115q-159 0 -273 -72t-171 -200h622v-172h-667q-4 -27 -4 -80t4 -80h667v-172h-622q57 -128 171.5 -200t274.5 -72q214 0 344 133l119 -193
q-189 -166 -467 -166q-251 0 -436.5 136t-257.5 362z" />
    <glyph glyph-name="uni20B4" unicode="&#x20b4;" horiz-adv-x="1257" 
d="M1210 793h-1155v178h824q18 52 18 88q0 91 -76 149t-196 58q-211 0 -314 -181l-168 132q175 247 488 247q216 0 346.5 -106t130.5 -279q0 -57 -21 -108h123v-178zM639 -33q-235 0 -374.5 110.5t-139.5 297.5q0 52 16 108h-86v179h1155v-179h-854q-18 -49 -18 -86
q0 -102 84 -164.5t217 -62.5q244 0 348 207l182 -111q-162 -299 -530 -299z" />
    <glyph glyph-name="uni20BD" unicode="&#x20bd;" horiz-adv-x="1306" 
d="M471 1219v-441h266q114 0 181 60.5t67 162.5q0 99 -67.5 158.5t-180.5 59.5h-266zM244 217h-181v186h181v170h-181v205h181v656h499q213 0 343.5 -118t130.5 -312q0 -195 -131 -313t-345 -118h-270v-170h475v-186h-475v-217h-227v217z" />
    <glyph glyph-name="a.ss01" horiz-adv-x="1286" 
d="M618 186q131 0 217.5 93.5t86.5 234.5t-86.5 232.5t-217.5 91.5t-217 -91.5t-86 -232.5t86.5 -234.5t216.5 -93.5zM563 -29q-212 0 -347.5 153.5t-135.5 387.5t135.5 387.5t347.5 153.5q119 0 210.5 -52t148.5 -145v168h229v-1024h-229v168q-57 -93 -148.5 -145
t-210.5 -52z" />
    <glyph glyph-name="acyr.ss01" horiz-adv-x="1320" 
d="M637 186q130 0 216.5 93.5t86.5 234.5t-86 232.5t-217 91.5t-217 -91.5t-86 -232.5t86.5 -234.5t216.5 -93.5zM582 -29q-212 0 -348 154t-136 387t136 387t348 154q119 0 210 -52t148 -145v168h229v-1024h-229v168q-57 -93 -148 -145t-210 -52z" />
    <glyph glyph-name="g.ss02" horiz-adv-x="1243" 
d="M598 240q126 0 207.5 86t81.5 221q0 130 -81.5 214.5t-207.5 84.5t-207.5 -84.5t-81.5 -214.5q0 -135 81.5 -221t207.5 -86zM547 33q-204 0 -335.5 145t-131.5 365t131.5 365t335.5 145q111 0 197.5 -47.5t142.5 -133.5v152h223v-926q0 -239 -147 -387.5t-390 -148.5
q-159 0 -279.5 66t-189.5 192l181 112q105 -163 290 -163q142 0 227 92t85 245v107q-55 -85 -142 -132.5t-198 -47.5z" />
    <glyph glyph-name="J.1" horiz-adv-x="790" 
d="M377 539v895h250v-938q0 -249 -119.5 -380.5t-345.5 -131.5h-94v235h65q128 0 186 78t58 242z" />
    <glyph glyph-name="grave.case" horiz-adv-x="630" 
d="M571 1606h-245l-265 309h283z" />
    <glyph glyph-name="dieresis.case" horiz-adv-x="882" 
d="M61 1741q0 63 43 105t105 42q63 0 106 -42t43 -105q0 -62 -43 -104t-106 -42q-62 0 -105 42.5t-43 103.5zM524 1741q0 63 43 105t105 42q63 0 106 -42t43 -105q0 -62 -43 -104t-106 -42q-62 0 -105 42.5t-43 103.5z" />
    <glyph glyph-name="macron.case" horiz-adv-x="794" 
d="M61 1638v181h672v-181h-672z" />
    <glyph glyph-name="acute.case" horiz-adv-x="630" 
d="M61 1606l228 309h282l-264 -309h-246z" />
    <glyph glyph-name="circumflex.case" horiz-adv-x="987" 
d="M61 1606l336 309h193l336 -309h-244l-188 155l-187 -155h-246z" />
    <glyph glyph-name="caron.case" horiz-adv-x="987" 
d="M61 1917h244l189 -154l188 154h244l-336 -311h-193z" />
    <glyph glyph-name="breve.case" horiz-adv-x="948" 
d="M473 1597q-175 0 -283 85.5t-127 234.5h211q8 -68 60.5 -109t138.5 -41t140 41.5t63 108.5h209q-17 -149 -126 -234.5t-286 -85.5z" />
    <glyph glyph-name="dotaccent.case" horiz-adv-x="419" 
d="M61 1776q0 63 43 105t105 42q63 0 106 -42t43 -105t-43 -105.5t-106 -42.5q-62 0 -105 42.5t-43 105.5z" />
    <glyph glyph-name="ring.case" horiz-adv-x="624" 
d="M313 1595q-108 0 -179 69.5t-71 176.5q0 105 71 174.5t179 69.5q106 0 178 -69.5t72 -174.5q0 -107 -71.5 -176.5t-178.5 -69.5zM313 1739q41 0 70 29.5t29 72.5q0 42 -29.5 71.5t-69.5 29.5t-69 -29.5t-29 -71.5q0 -44 29 -73t69 -29z" />
    <glyph glyph-name="tilde.case" horiz-adv-x="931" 
d="M242 1622h-181q0 153 73 225t185 72q48 0 86.5 -13.5t62 -32.5t44 -37.5t43.5 -32t49 -13.5q86 0 86 129h178q0 -156 -70 -228.5t-182 -72.5q-48 0 -86.5 13.5t-62.5 33t-44 38.5t-43 32.5t-48 13.5q-43 0 -66.5 -33.5t-23.5 -93.5z" />
    <glyph glyph-name="agrave.ss01" horiz-adv-x="1286" 
d="M618 186q131 0 217.5 93.5t86.5 234.5t-86.5 232.5t-217.5 91.5t-217 -91.5t-86 -232.5t86.5 -234.5t216.5 -93.5zM563 -29q-212 0 -347.5 153.5t-135.5 387.5t135.5 387.5t347.5 153.5q119 0 210.5 -52t148.5 -145v168h229v-1024h-229v168q-57 -93 -148.5 -145
t-210.5 -52zM774 1202h-217l-229 328h258z" />
    <glyph glyph-name="aacute.ss01" horiz-adv-x="1286" 
d="M618 186q131 0 217.5 93.5t86.5 234.5t-86.5 232.5t-217.5 91.5t-217 -91.5t-86 -232.5t86.5 -234.5t216.5 -93.5zM563 -29q-212 0 -347.5 153.5t-135.5 387.5t135.5 387.5t347.5 153.5q119 0 210.5 -52t148.5 -145v168h229v-1024h-229v168q-57 -93 -148.5 -145
t-210.5 -52zM725 1202h-217l180 328h258z" />
    <glyph glyph-name="acircumflex.ss01" horiz-adv-x="1286" 
d="M618 186q131 0 217.5 93.5t86.5 234.5t-86.5 232.5t-217.5 91.5t-217 -91.5t-86 -232.5t86.5 -234.5t216.5 -93.5zM563 -29q-212 0 -347.5 153.5t-135.5 387.5t135.5 387.5t347.5 153.5q119 0 210.5 -52t148.5 -145v168h229v-1024h-229v168q-57 -93 -148.5 -145
t-210.5 -52zM457 1202h-213l291 328h172l290 -328h-213l-163 172z" />
    <glyph glyph-name="atilde.ss01" horiz-adv-x="1286" 
d="M618 186q131 0 217.5 93.5t86.5 234.5t-86.5 232.5t-217.5 91.5t-217 -91.5t-86 -232.5t86.5 -234.5t216.5 -93.5zM563 -29q-212 0 -347.5 153.5t-135.5 387.5t135.5 387.5t347.5 153.5q119 0 210.5 -52t148.5 -145v168h229v-1024h-229v168q-57 -93 -148.5 -145
t-210.5 -52zM504 1325q-37 0 -57.5 -31.5t-20.5 -91.5h-152q0 149 61 218t157 69q42 0 75 -12.5t53.5 -30.5t38 -36.5t37.5 -31t43 -12.5q74 0 74 123h152q0 -149 -59.5 -219t-155.5 -70q-42 0 -74.5 13t-53 31t-38 36.5t-37.5 31.5t-43 13z" />
    <glyph glyph-name="adieresis.ss01" horiz-adv-x="1286" 
d="M618 186q131 0 217.5 93.5t86.5 234.5t-86.5 232.5t-217.5 91.5t-217 -91.5t-86 -232.5t86.5 -234.5t216.5 -93.5zM563 -29q-212 0 -347.5 153.5t-135.5 387.5t135.5 387.5t347.5 153.5q119 0 210.5 -52t148.5 -145v168h229v-1024h-229v168q-57 -93 -148.5 -145
t-210.5 -52zM258 1356q0 61 40.5 101t100.5 40t101 -40t41 -101q0 -60 -41 -99.5t-101 -39.5t-100.5 39.5t-40.5 99.5zM702 1356q0 61 41.5 101t100.5 40q60 0 99.5 -40t39.5 -101q0 -60 -39.5 -99.5t-99.5 -39.5q-59 0 -100.5 40t-41.5 99z" />
    <glyph glyph-name="aring.ss01" horiz-adv-x="1286" 
d="M639 1186q-107 0 -177.5 67t-70.5 172t70.5 172.5t177.5 67.5q105 0 175.5 -67.5t70.5 -172.5t-70.5 -172t-175.5 -67zM639 1321q43 0 71.5 29.5t28.5 74.5q0 46 -28.5 75.5t-71.5 29.5q-44 0 -73 -29.5t-29 -75.5t29 -75t73 -29zM618 186q131 0 217.5 93.5t86.5 234.5
t-86.5 232.5t-217.5 91.5t-217 -91.5t-86 -232.5t86.5 -234.5t216.5 -93.5zM563 -29q-212 0 -347.5 153.5t-135.5 387.5t135.5 387.5t347.5 153.5q119 0 210.5 -52t148.5 -145v168h229v-1024h-229v168q-57 -93 -148.5 -145t-210.5 -52z" />
    <glyph glyph-name="amacron.ss01" horiz-adv-x="1286" 
d="M618 186q131 0 217.5 93.5t86.5 234.5t-86.5 232.5t-217.5 91.5t-217 -91.5t-86 -232.5t86.5 -234.5t216.5 -93.5zM563 -29q-212 0 -347.5 153.5t-135.5 387.5t135.5 387.5t347.5 153.5q119 0 210.5 -52t148.5 -145v168h229v-1024h-229v168q-57 -93 -148.5 -145
t-210.5 -52zM938 1233h-600v182h600v-182z" />
    <glyph glyph-name="abreve.ss01" horiz-adv-x="1286" 
d="M618 186q131 0 217.5 93.5t86.5 234.5t-86.5 232.5t-217.5 91.5t-217 -91.5t-86 -232.5t86.5 -234.5t216.5 -93.5zM563 -29q-212 0 -347.5 153.5t-135.5 387.5t135.5 387.5t347.5 153.5q119 0 210.5 -52t148.5 -145v168h229v-1024h-229v168q-57 -93 -148.5 -145
t-210.5 -52zM635 1206q-156 0 -253.5 85.5t-109.5 232.5h195q7 -70 53.5 -110t114.5 -40q70 0 117.5 40t54.5 110h194q-12 -147 -110.5 -232.5t-255.5 -85.5z" />
    <glyph glyph-name="aogonek.ss01" horiz-adv-x="1286" 
d="M621 186q130 0 216.5 93.5t86.5 234.5t-86 232.5t-217 91.5t-217.5 -91.5t-86.5 -232.5t86.5 -234.5t217.5 -93.5zM563 -29q-211 0 -347 154t-136 387t136 387t347 154q119 0 210.5 -52t150.5 -145v168h229v-1024q-117 -55 -164 -97.5t-47 -97.5q0 -51 31 -79.5t84 -28.5
q66 0 112 39l50 -154q-76 -49 -185 -49q-121 0 -193.5 64.5t-72.5 171.5q0 72 37.5 131t118.5 114v154q-59 -93 -150.5 -145t-210.5 -52z" />
    <glyph glyph-name="gcircumflex.ss02" horiz-adv-x="1243" 
d="M598 240q126 0 207.5 86t81.5 221q0 130 -81.5 214.5t-207.5 84.5t-207.5 -84.5t-81.5 -214.5q0 -135 81.5 -221t207.5 -86zM547 33q-204 0 -335.5 145t-131.5 365t131.5 365t335.5 145q111 0 197.5 -47.5t142.5 -133.5v152h223v-926q0 -239 -147 -387.5t-390 -148.5
q-159 0 -279.5 66t-189.5 192l181 112q105 -163 290 -163q142 0 227 92t85 245v107q-55 -85 -142 -132.5t-198 -47.5zM457 1202h-213l291 328h172l290 -328h-213l-163 172z" />
    <glyph glyph-name="gbreve.ss02" horiz-adv-x="1243" 
d="M598 240q126 0 207.5 86t81.5 221q0 130 -81.5 214.5t-207.5 84.5t-207.5 -84.5t-81.5 -214.5q0 -135 81.5 -221t207.5 -86zM547 33q-204 0 -335.5 145t-131.5 365t131.5 365t335.5 145q111 0 197.5 -47.5t142.5 -133.5v152h223v-926q0 -239 -147 -387.5t-390 -148.5
q-159 0 -279.5 66t-189.5 192l181 112q105 -163 290 -163q142 0 227 92t85 245v107q-55 -85 -142 -132.5t-198 -47.5zM635 1206q-156 0 -253.5 85.5t-109.5 232.5h195q7 -70 53.5 -110t114.5 -40q70 0 117.5 40t54.5 110h194q-12 -147 -110.5 -232.5t-255.5 -85.5z" />
    </font>
</defs>
</svg>
