<?xml version="1.0" encoding="UTF-8"?>
<svg width="106.14018px" height="32px" viewBox="0 0 106.14018 32" version="1.1" xmlns="http://www.w3.org/2000/svg" xmlns:xlink="http://www.w3.org/1999/xlink">
    <title>amazon-ar21</title>
    <g id="Page-1" stroke="none" stroke-width="1" fill="none" fill-rule="evenodd">
        <g id="amazon-ar21">
            <path d="M65.8511958,25.0261718 C59.694696,29.5724284 50.7422961,32 43.0445484,32 C32.2515673,32 22.5338508,28.0088898 15.1832023,21.3683617 C14.6057651,20.8461207 15.1226988,20.1349388 15.8158357,20.5404186 C23.7492288,25.1577935 33.5582313,27.9335257 43.6899194,27.9335257 C50.5236342,27.9335257 58.0409328,26.5196537 64.953196,23.5857631 C65.997678,23.1420705 66.8702027,24.2693469 65.8490729,25.0272332 M68.4156964,22.0933426 C67.630212,21.0849504 63.2145155,21.6178061 61.2168375,21.8534514 C60.6118022,21.927754 60.5194547,21.4002057 61.0639865,21.0212625 C64.5880519,18.5395562 70.3730388,19.2560454 71.0491923,20.0871729 C71.7253458,20.9183003 70.8740505,26.7213321 67.5612167,29.4896341 C67.0517133,29.9142203 66.567685,29.6881282 66.7937772,29.12449 C67.536803,27.2669254 69.2054267,23.1038578 68.4156964,22.0922812" id="Shape" fill="#FF9900"></path>
            <path d="M61.3558895,3.50389757 L61.3558895,1.09224798 C61.3514565,0.929056408 61.4143356,0.771224359 61.5297721,0.655787922 C61.6452085,0.540351484 61.8030406,0.477472316 61.9662321,0.481905331 L72.7634591,0.481905331 C73.1094968,0.481905331 73.3876008,0.73134972 73.3876008,1.09224798 L73.3876008,3.15679835 C73.3833549,3.5028361 73.0903904,3.95608187 72.5745182,4.67257107 L66.9805951,12.6611603 C69.0610674,12.61021 71.2540551,12.9201579 73.1392178,13.9826848 C73.563804,14.222576 73.6699506,14.5739211 73.7124092,14.9210203 L73.7124092,17.4950741 C73.7124092,17.8453577 73.3239128,18.2572064 72.9163101,18.0449133 C69.5939231,16.3041099 65.1814111,16.1130461 61.5087405,18.0629582 C61.1340432,18.2667595 60.741301,17.8591568 60.741301,17.5088732 L60.741301,15.0643182 C60.741301,14.6715759 60.7455468,14.0028527 61.1382891,13.4052476 L67.6206588,4.1089329 L61.9895844,4.1089329 C61.6435466,4.1089329 61.3654427,3.86479583 61.3654427,3.50389757 M21.9659668,18.5533552 L18.6817925,18.5533552 C18.3675988,18.530003 18.1192158,18.2943576 18.0948021,17.9939629 L18.0948021,1.13364514 C18.0948021,0.796099114 18.377152,0.528609812 18.7274356,0.528609812 L21.790825,0.528609812 C22.1092646,0.542408863 22.3640163,0.78760739 22.3873686,1.09118652 L22.3873686,3.29478887 L22.4478721,3.29478887 C23.2471556,1.16442764 24.7491293,0.170895943 26.7722825,0.170895943 C28.8283411,0.170895943 30.1127144,1.16442764 31.0372508,3.29478887 C31.8333499,1.16442764 33.6378412,0.170895943 35.5750158,0.170895943 C36.9517365,0.170895943 38.457956,0.738779978 39.3771851,2.01466149 C40.4174213,3.43277938 40.2051282,5.49414535 40.2051282,7.30075961 L40.1976979,17.9430126 C40.1976979,18.2805586 39.9153481,18.5533552 39.5650645,18.5533552 L36.2745215,18.5533552 C35.9560819,18.530003 35.6832852,18.2667595 35.6832852,17.9430126 L35.6832852,8.99485853 C35.6832852,8.28367665 35.7469732,6.50890636 35.5909377,5.83487578 C35.3468007,4.70335357 34.6112051,4.38385246 33.6590706,4.38385246 C32.8629714,4.38385246 32.0329054,4.9145852 31.6953594,5.76588052 C31.3578134,6.61717584 31.3907188,8.03953959 31.3907188,8.99591999 L31.3907188,17.9334594 C31.3907188,18.2710054 31.108369,18.543802 30.7580854,18.543802 L27.4675424,18.543802 C27.1353037,18.5204498 26.8763061,18.2572064 26.8763061,17.9334594 L26.8720602,8.99591999 C26.8720602,7.11500315 27.1820082,4.34670116 24.8478456,4.34670116 C22.4871463,4.34670116 22.5794938,7.04494643 22.5794938,8.99591999 L22.5794938,17.9334594 C22.5794938,18.2710054 22.297144,18.543802 21.9468604,18.543802 M82.6839155,0.184694995 C87.558165,0.184694995 90.1969682,4.37111487 90.1969682,9.69330282 C90.1969682,14.8361031 87.2811225,18.915315 82.6839155,18.915315 C77.9073208,18.915315 75.2908084,14.7288951 75.2908084,9.51285368 C75.2908084,4.26390686 77.9296116,0.171957409 82.6839155,0.171957409 M82.7115136,3.61428998 C80.2913723,3.61428998 80.1374413,6.91332471 80.1374413,8.96938335 C80.1374413,11.025442 80.1056158,15.4284008 82.682854,15.4284008 C85.2282483,15.4284008 85.3492553,11.8799217 85.3492553,9.71771652 C85.3492553,8.29535277 85.2887518,6.5938236 84.8609812,5.24470097 C84.4915912,4.07072014 83.7570571,3.61322851 82.712575,3.61322851 M96.5190566,18.5533552 L93.24762,18.5533552 C92.9291803,18.530003 92.6563837,18.2667595 92.6563837,17.9430126 L92.6521379,1.07844893 C92.679736,0.768501012 92.9525326,0.528609812 93.2847713,0.528609812 L96.3311772,0.528609812 C96.6177729,0.542408863 96.8534183,0.736657047 96.9181676,0.999900488 L96.9181676,3.57926162 L96.9786712,3.57926162 C97.8979003,1.27375858 99.1865194,0.17408034 101.455933,0.17408034 C102.941984,0.17408034 104.366471,0.704813083 105.291007,2.16114373 C106.14018,3.5092049 106.14018,5.7786181 106.14018,7.41009056 L106.14018,18.0247454 C106.103028,18.3219558 105.830232,18.5554782 105.507546,18.5554782 L102.219126,18.5554782 C101.918732,18.5321259 101.669287,18.3113411 101.637443,18.0247454 L101.637443,8.86748267 C101.637443,7.02371712 101.849736,4.32441039 99.5813845,4.32441039 C98.782101,4.32441039 98.0475669,4.86045046 97.6707467,5.67247156 C97.2090092,6.70209308 97.1485057,7.7285302 97.1485057,8.86535974 L97.1485057,17.9451355 C97.1442598,18.2826815 96.8576641,18.5554782 96.506319,18.5554782 M52.7474044,10.4883405 C52.7474044,11.7684678 52.7792483,12.8235645 52.1317544,13.9720702 C51.6095134,14.8955452 50.7783859,15.4644907 49.8580953,15.4644907 C48.5970743,15.4644907 47.8572329,14.5038644 47.8572329,13.084685 C47.8572329,10.2845391 50.3665373,9.77609712 52.7452815,9.77609712 L52.7452815,10.487279 M56.0570538,18.4949746 C55.8394533,18.6892228 55.526321,18.7030219 55.282184,18.5735231 C54.1920589,17.668093 53.9935649,17.2466912 53.3970213,16.3837198 C51.5946529,18.222178 50.315587,18.7720171 47.9814244,18.7720171 C45.2141838,18.7720171 43.0647162,17.0673035 43.0647162,13.6525691 C43.0647162,10.9861678 44.5061864,9.1710618 46.5675523,8.28367665 C48.3508143,7.49819219 50.8410124,7.36020168 52.7452815,7.14260125 L52.7452815,6.71801506 C52.7452815,5.93677646 52.805785,5.01330149 52.3419246,4.33820944 C51.9449365,3.73317411 51.1774969,3.48372972 50.498159,3.48372972 C49.2456297,3.48372972 48.131091,4.12591634 47.8593558,5.45805553 C47.8041596,5.75526586 47.5865592,6.04504594 47.2861645,6.05884499 L44.101768,5.71705311 C43.8342787,5.65654957 43.533884,5.44107208 43.6134939,5.02710054 C44.3437821,1.16336617 47.8381265,0 50.958835,0 C52.5574021,0 54.6463661,0.424586194 55.9073871,1.63465685 C57.5059542,3.12707732 57.3531031,5.11838657 57.3531031,7.28589909 L57.3531031,12.4053471 C57.3531031,13.9444721 57.9899824,14.6185027 58.5918333,15.4517531 C58.7998806,15.7489634 58.8465851,16.1034929 58.5780343,16.3253392 L56.066607,18.5162039 L56.0623611,18.5055893 M9.68056523,10.4989551 C9.68056523,11.7790825 9.71240919,12.8341792 9.06491525,13.9826848 C8.54267423,14.9061598 7.71685408,15.4751053 6.79125618,15.4751053 C5.53023518,15.4751053 4.79570106,14.5144791 4.79570106,13.0952997 C4.79570106,10.2951537 7.30500547,9.78671178 9.6784423,9.78671178 L9.6784423,10.4978937 M12.9902146,18.5055893 C12.7726142,18.6998375 12.4594819,18.7136365 12.2153448,18.5841377 C11.1252198,17.6787077 10.9415862,17.2573059 10.3301821,16.3943344 C8.52781371,18.2327926 7.2519322,18.7826323 4.9145852,18.7826323 C2.15265201,18.7836932 0,17.0789797 0,13.6653067 C0,10.9989054 1.44571599,9.18379938 3.5028361,8.29641424 C5.28609812,7.51092978 7.77629615,7.37293926 9.68056523,7.15533884 L9.68056523,6.73075265 C9.68056523,5.94951405 9.74106876,5.02603908 9.28357714,4.35094703 C8.88022025,3.7459117 8.1159651,3.49646731 7.43981159,3.49646731 C6.18728232,3.49646731 5.06955916,4.13865393 4.78614788,5.47079311 C4.73095167,5.76800345 4.51335125,6.05778353 4.21826384,6.07158258 L1.02962152,5.72979069 C0.762132219,5.66928716 0.467044814,5.45380967 0.541347398,5.03983813 C1.27588151,1.17610376 4.76598003,0.0127375858 7.88668856,0.0127375858 C9.48525558,0.0127375858 11.5742197,0.43732378 12.8352407,1.64739443 C14.4338077,3.13981491 14.2809566,5.13112416 14.2809566,7.29863668 L14.2809566,12.4180847 C14.2809566,13.9572097 14.9178359,14.6312403 15.5196869,15.4644907 C15.73198,15.761701 15.7786844,16.1162305 15.5090722,16.3380768 L13.0040137,18.5162039 L12.993399,18.5055893" id="Shape" fill="#221F1F"></path>
        </g>
    </g>
</svg>