<?xml version="1.0" encoding="UTF-8"?>
<svg width="36px" height="36px" viewBox="0 0 36 36" version="1.1" xmlns="http://www.w3.org/2000/svg" xmlns:xlink="http://www.w3.org/1999/xlink">
    <title>Group 4</title>
    <defs>
        <rect id="path-1" x="0" y="0" width="18" height="18"></rect>
    </defs>
    <g id="Page-1" stroke="none" stroke-width="1" fill="none" fill-rule="evenodd">
        <g id="Individual-page-with-Sidebar" transform="translate(-1334, -244)">
            <g id="Group-279" transform="translate(910, 244)">
                <g id="Group-4" transform="translate(424, 0)">
                    <rect id="Rectangle-3" fill="#F1EFE9" fill-rule="nonzero" x="0" y="0" width="36" height="36" rx="18"></rect>
                    <g id="icons" transform="translate(9, 10)">
                        <mask id="mask-2" fill="white">
                            <use xlink:href="#path-1"></use>
                        </mask>
                        <g id="Clip" fill-rule="nonzero"></g>
                        <path d="M12.75,6.87750007 C12.6094782,6.73781186 12.4193894,6.65940571 12.2212501,6.65940571 C12.0231108,6.65940571 11.8330219,6.73781186 11.6925001,6.87750007 L9,9.53250017 L6.34500003,6.87750007 C6.20447819,6.73781186 6.01438938,6.65940571 5.81625009,6.65940571 C5.61811079,6.65940571 5.42802198,6.73781186 5.28750014,6.87750007 C5.21720382,6.94722231 5.16140794,7.03017307 5.12333143,7.12156751 C5.08525492,7.21296196 5.06565142,7.31099121 5.06565142,7.41000012 C5.06565142,7.50900904 5.08525492,7.60703829 5.12333143,7.69843274 C5.16140794,7.78982718 5.21720382,7.87277794 5.28750014,7.94250018 L8.46749997,11.1225002 C8.53722221,11.1927965 8.62017296,11.248592 8.7115674,11.2866685 C8.80296184,11.324745 8.90099109,11.3443489 9,11.3443489 C9.09900891,11.3443489 9.19703816,11.324745 9.2884326,11.2866685 C9.37982704,11.248592 9.46277779,11.1927965 9.53250003,11.1225002 L12.75,7.94250018 C12.8202963,7.87277794 12.8760918,7.78982718 12.9141684,7.69843274 C12.9522449,7.60703829 12.9718494,7.50900904 12.9718494,7.41000012 C12.9718494,7.31099121 12.9522449,7.21296196 12.9141684,7.12156751 C12.8760918,7.03017307 12.8202963,6.94722231 12.75,6.87750007 Z" id="Vector" fill="#000000" fill-rule="nonzero" mask="url(#mask-2)"></path>
                    </g>
                </g>
            </g>
        </g>
    </g>
</svg>