<?xml version="1.0" encoding="UTF-8"?>
<svg width="44px" height="44px" viewBox="0 0 44 44" version="1.1" xmlns="http://www.w3.org/2000/svg" xmlns:xlink="http://www.w3.org/1999/xlink">
    <title>Group 4</title>
    <defs>
        <rect id="path-1" x="0" y="0" width="18" height="18"></rect>
    </defs>
    <g id="Page-1" stroke="none" stroke-width="1" fill="none" fill-rule="evenodd">
        <g id="Group-190" transform="translate(-911, -20)">
            <g id="Group-4" transform="translate(911, 20)">
                <rect id="Rectangle-3" fill="#F1EFE9" fill-rule="nonzero" x="0" y="0" width="44" height="44" rx="22"></rect>
                <g id="icons" transform="translate(13, 13)">
                    <mask id="mask-2" fill="white">
                        <use xlink:href="#path-1"></use>
                    </mask>
                    <g id="Clip" fill-rule="nonzero"></g>
                    <path d="M10.0574999,8.99999976 L14.7824993,4.28249996 C14.9237271,4.14127217 15.0030684,3.94972616 15.0030684,3.74999991 C15.0030684,3.55027366 14.9237271,3.35872765 14.7824993,3.21749986 C14.6412715,3.07627207 14.4497262,2.99693108 14.25,2.99693108 C14.0502738,2.99693108 13.8587285,3.07627207 13.7175007,3.21749986 L9,7.94250019 L4.28250003,3.21749986 C4.14127225,3.07627207 3.94972625,2.99693108 3.75,2.99693108 C3.55027375,2.99693108 3.35872775,3.07627207 3.21749997,3.21749986 C3.07627219,3.35872765 2.99693138,3.55027366 2.99693137,3.74999991 C2.99693137,3.94972616 3.07627219,4.14127217 3.21749997,4.28249996 L7.94250011,8.99999976 L3.21749997,13.7175006 C3.14720365,13.7872229 3.09140812,13.8701729 3.05333161,13.9615674 C3.01525511,14.0529618 2.99565125,14.1509911 2.99565125,14.25 C2.99565125,14.3490089 3.01525511,14.4470381 3.05333161,14.5384326 C3.09140812,14.629827 3.14720365,14.7127771 3.21749997,14.7824993 C3.28722221,14.8527956 3.37017296,14.9085926 3.4615674,14.9466691 C3.55296184,14.9847456 3.65099109,15.0043488 3.75,15.0043488 C3.84900891,15.0043488 3.94703816,14.9847456 4.0384326,14.9466691 C4.12982704,14.9085926 4.21277779,14.8527956 4.28250003,14.7824993 L9,10.0574997 L13.7175007,14.7824993 C13.7872229,14.8527956 13.870173,14.9085926 13.9615674,14.9466691 C14.0529618,14.9847456 14.1509911,15.0043488 14.25,15.0043488 C14.3490089,15.0043488 14.4470382,14.9847456 14.5384326,14.9466691 C14.629827,14.9085926 14.7127771,14.8527956 14.7824993,14.7824993 C14.8527956,14.7127771 14.9085926,14.629827 14.9466691,14.5384326 C14.9847456,14.4470381 15.0043488,14.3490089 15.0043488,14.25 C15.0043488,14.1509911 14.9847456,14.0529618 14.9466691,13.9615674 C14.9085926,13.8701729 14.8527956,13.7872229 14.7824993,13.7175006 L10.0574999,8.99999976 Z" id="Vector" fill="#000000" fill-rule="nonzero" mask="url(#mask-2)"></path>
                </g>
            </g>
        </g>
    </g>
</svg>