<?xml version="1.0" encoding="UTF-8"?>
<svg width="106.186704px" height="23px" viewBox="0 0 106.186704 23" version="1.1" xmlns="http://www.w3.org/2000/svg" xmlns:xlink="http://www.w3.org/1999/xlink">
    <title>conair</title>
    <g id="Page-1" stroke="none" stroke-width="1" fill="none" fill-rule="evenodd">
        <g id="conair" transform="translate(0, -0)" fill="#000000" fill-rule="nonzero">
            <path d="M30.5781624,0.176530095 C24.3068486,0.219122156 19.2178316,5.31107648 19.2104882,11.6323258 C19.2178316,17.8727971 24.3083173,22.9647514 30.5781624,23 C36.8685692,22.9647514 41.9605235,17.8727971 41.9458683,11.6323258 C41.9605235,5.31107648 36.8700379,0.219122156 30.5781624,0.176530095 L30.5781624,0.176530095 Z M30.5781624,17.8008312 C27.1472984,17.8228616 24.3582528,15.0323472 24.3215355,11.6323258 C24.3567841,8.15152634 27.1472984,5.35954331 30.5781624,5.37562916 C34.0310567,5.35954331 36.8201023,8.15152634 36.8347893,11.6323258 C36.8097328,15.063126 34.0089729,17.8244386 30.5781624,17.8008312 Z" id="Shape"></path>
            <path d="M0,11.5442043 C0.0220303764,15.6124805 2.05910584,22.8722238 9.69483429,22.9104098 C16.214357,22.9926565 19.2986097,18.6409229 19.5644429,14.3640925 L14.1875624,14.3640925 C13.6808637,17.6495559 11.3118639,17.7597078 10.0458516,17.8008312 C8.77983932,17.7611765 5.3636623,17.6495559 5.37541183,11.5442043 C5.3636623,5.42269705 8.77983932,5.0937101 10.0458516,5.1113344 C11.3118639,5.0937101 13.6808637,5.42269705 14.1875624,8.72431612 L19.5629742,8.72431612 C19.2986097,4.43279881 17.5361796,-0.0290867506 9.86960861,0.00014283755 C2.22506801,-0.0290867506 0.0220303764,7.46124121 0,11.5442043 Z M42.9151731,1.14586666 L42.9151731,22.647514 L48.0262205,22.647514 L48.0262205,10.3986247 L54.0184828,22.647514 L59.8345022,22.647514 L59.8345022,1.14586666 L54.8115764,1.14586666 L54.8115764,13.4828774 L48.643071,1.14586666 L42.9151731,1.14586666 Z M79.0449904,1.14586666 L84.3322807,1.14586666 L84.3322807,9.42928816 L79.0449904,9.42928816 L79.0449904,1.14586666 Z M79.0449904,9.9580172 L84.3322807,9.9580172 L84.3322807,12.5135409 L79.0449904,12.5135409 L79.0449904,9.9580172 Z M79.0449904,13.2185129 L84.3322807,13.2185129 L84.3322807,15.0690645 L79.0449904,15.0690645 L79.0449904,13.2185129 Z M79.0449904,16.1265226 L84.3322807,16.1265226 L84.3322807,17.7127097 L79.0449904,17.7127097 L79.0449904,16.1265226 Z M79.0449904,19.0345323 L84.3322807,19.0345323 L84.3322807,20.2682333 L79.0449904,20.2682333 L79.0449904,19.0345323 Z M79.0449904,22.0306634 L84.3322807,22.0306634 L84.3322807,22.647514 L79.0449904,22.647514 L79.0449904,22.0306634 Z M102.044703,15.0690645 L85.7422248,15.0690645 L85.7422248,13.2185129 L100.458516,13.2185129 C101.473382,13.1891391 102.132825,14.5653032 102.044703,15.0690645 Z M85.7422248,16.1265226 L91.0309838,16.1265226 L91.0309838,17.7127097 L85.7422248,17.7127097 L85.7422248,16.1265226 Z M85.7422248,19.0345323 L91.0309838,19.0345323 L91.0309838,20.2682333 L85.7422248,20.2682333 L85.7422248,19.0345323 Z M85.7422248,22.0306634 L91.0309838,22.0306634 L91.0309838,22.647514 L85.7422248,22.647514 L85.7422248,22.0306634 Z M63.7118484,9.42928816 L68.7347742,9.42928816 L69.2635033,7.49061505 L69.8803538,9.42928816 L74.9032796,9.42928816 L72.1715129,1.14586666 L66.3554936,1.14586666 L63.7118484,9.42928816 Z M63.5356054,9.9580172 L62.6543904,12.5135409 L67.7654377,12.5135409 L68.5585312,9.9580172 L63.5356054,9.9580172 Z M62.4781473,13.2185129 L61.8612968,15.0690645 L76.7538312,15.0690645 L76.1369807,13.2185129 L62.4781473,13.2185129 Z M61.5088108,16.1265226 L60.9815504,17.7127097 L77.6350463,17.7127097 L77.1063172,16.1265226 L61.5088108,16.1265226 Z M60.5394742,19.0345323 L60.0988667,20.2682333 L65.4742785,20.2682333 L65.8267646,19.0345323 L60.5394742,19.0345323 Z" id="Shape"></path>
            <path d="M59.5716064,22.0306634 L65.033671,22.0306634 L64.857428,22.647514 L59.3938947,22.647514 L59.5716064,22.0306634 Z M75.0795226,9.9580172 L75.8726162,12.5135409 L70.7615689,12.5135409 L70.0565968,9.9580172 L75.0795226,9.9580172 Z M78.0756538,19.0345323 L78.4281398,20.2682333 L73.052728,20.2682333 L72.700242,19.0345323 L78.0756538,19.0345323 Z M79.0449904,22.0306634 L73.5829257,22.0306634 L73.7577,22.647514 L79.2212334,22.647514 L79.0449904,22.0306634 Z M102.839266,6.16879246 C102.629243,3.49577347 99.8754456,1.23839424 96.757413,1.14586666 L85.7422248,1.14586666 L85.7422248,12.5135409 L98.9604506,12.5135409 C101.527724,11.2607468 102.959698,8.89321567 102.839266,6.16879246 Z M95.5237119,9.9580172 L91.0295151,9.9580172 L91.0295151,5.90442795 L95.6118334,5.90442795 C98.0586739,5.91911487 98.4434711,9.99473449 95.5237119,9.9580172 L95.5237119,9.9580172 Z M96.933656,16.1265226 L102.222415,16.1265226 L102.222415,17.7127097 L96.933656,17.7127097 L96.933656,16.1265226 Z M96.933656,19.0345323 L102.222415,19.0345323 L102.222415,20.2682333 L96.933656,20.2682333 L96.933656,19.0345323 Z M102.749675,22.0306634 C102.793736,22.275935 102.959698,22.4418971 103.278404,22.647514 L97.991114,22.647514 C97.6724079,22.4418971 97.5064458,22.2774037 97.462385,22.0306634 L102.749675,22.0306634 Z M104.335862,2.29144623 L104.77647,2.29144623 C105.027616,2.25619762 105.261138,2.33550698 105.217077,2.64393225 C105.25967,2.90976546 104.971806,2.9376706 104.688348,2.90829676 L104.335862,2.90829676 L104.335862,3.08453977 L104.77647,3.08453977 L105.305199,3.87763332 L105.481442,3.87763332 L104.952713,3.08453977 C105.209734,3.03166687 105.410945,2.89360985 105.39332,2.64393225 C105.410945,2.29291492 105.237639,2.12548406 104.86606,2.11667191 L104.161088,2.11667191 L104.161088,3.87763332 L104.337331,3.87763332 L104.337331,2.29144623 L104.335862,2.29144623 Z" id="Shape"></path>
            <path d="M104.688348,1.49835268 C105.54019,1.52038305 106.201101,2.17982565 106.186414,2.99641827 C106.20257,3.82035434 105.541658,4.47979694 104.688348,4.49448386 C104.301339,4.48690981 103.933693,4.32377312 103.6684,4.04189919 C103.403107,3.76002526 103.262531,3.38317579 103.278404,2.99641827 C103.264954,2.61031182 103.406344,2.23483812 103.671128,1.95350485 C103.935912,1.67217159 104.302136,1.50830595 104.688348,1.49835268 L104.688348,1.67459569 C103.961346,1.65109662 103.392962,2.23710463 103.366526,2.99641827 C103.392962,3.74838845 103.970158,4.34908338 104.688348,4.31824085 C105.046291,4.34437151 105.397899,4.21352332 105.651676,3.95974623 C105.905453,3.70596915 106.036302,3.35436073 106.010171,2.99641827 C106.051294,2.24004201 105.485848,1.65109662 104.688348,1.67459569 L104.688348,1.49835268 Z" id="Path"></path>
        </g>
    </g>
</svg>