<?xml version="1.0" encoding="UTF-8"?>
<svg width="32px" height="36px" viewBox="0 0 32 36" version="1.1" xmlns="http://www.w3.org/2000/svg" xmlns:xlink="http://www.w3.org/1999/xlink">
    <title>objects</title>
    <defs>
        <rect id="path-1" x="0" y="0" width="32" height="36"></rect>
    </defs>
    <g id="Page-1" stroke="none" stroke-width="1" fill="none" fill-rule="evenodd">
        <g id="Individual-page-with-Sidebar" transform="translate(-1233, -1515)">
            <g id="objects" transform="translate(1233, 1515)">
                <mask id="mask-2" fill="white">
                    <use xlink:href="#path-1"></use>
                </mask>
                <g id="Clip" fill-rule="nonzero"></g>
                <path d="M16.6624715,35.8295504 L19.9631457,34.0172185 C27.3770786,29.947409 32,22.0552978 32,13.4705288 L32,4.80416412 C32,4.12964009 31.4759548,3.56934967 30.8143818,3.5512173 C23.0139325,3.33544214 18.1752805,1.03988491 16.5824715,0.151398957 C16.2202243,-0.0507769267 15.7806741,-0.0507769267 15.4184269,0.151398957 C13.8256179,1.03988491 8.98606727,3.33544214 1.18561794,3.5512173 C0.524044894,3.56934967 0,4.12964009 0,4.80416412 L0,13.471435 C0,22.0562039 4.62292138,29.9474097 12.0368543,34.018126 L15.3375285,35.8304551 C15.7510117,36.0571097 16.2489883,36.0571097 16.6624715,35.8304551 L16.6624715,35.8295504 Z" id="Vector" fill="#DADADB" fill-rule="nonzero" mask="url(#mask-2)"></path>
                <path d="M30.4179772,5.8241158 L30.4179772,13.178604 C30.4179772,21.3653678 26.0305623,28.8594757 18.9680902,32.7370823 L16.6265169,34.0217617 C16.4314607,34.1287427 16.2157302,34.1831397 15.9999999,34.1831397 C15.7842695,34.1831397 15.5685391,34.1287427 15.3734829,34.0217617 L13.0319102,32.7370823 C5.96943817,28.8594757 1.58202255,21.3653678 1.58202255,13.178604 L1.58202255,5.8241158 C1.58202255,5.47597437 1.85528087,5.1912969 2.19865166,5.1668182 C8.84314604,4.71078916 13.4058431,2.93563016 15.7141578,1.79782414 C15.8058432,1.7515866 15.9029212,1.72982776 15.9999999,1.72982776 C16.0970785,1.72982776 16.1932577,1.75249322 16.2858419,1.79782414 C18.5941566,2.93563016 23.1577533,4.71078916 29.8013493,5.1668182 C30.145619,5.1912969 30.4179772,5.47597437 30.4179772,5.8241158 Z" id="Vector" fill="#000000" fill-rule="nonzero" mask="url(#mask-2)"></path>
                <path d="M30.4179773,5.8241158 L30.4179773,13.178604 C30.4179773,21.3653678 26.0305624,28.8594757 18.9680903,32.7370823 L16.626517,34.0217617 C16.4314608,34.1287427 16.2157304,34.1831397 16,34.1831397 L16,1.72982776 C16.0970787,1.72982776 16.1932578,1.75249322 16.285842,1.79782414 C18.5941567,2.93563016 23.1577534,4.71078916 29.8013494,5.1668182 C30.1456191,5.1912969 30.4179773,5.47597437 30.4179773,5.8241158 Z" id="Vector" fill="#000000" fill-rule="nonzero" mask="url(#mask-2)"></path>
                <path d="M21.4831454,15.0471449 L10.5177529,15.0471449 C9.86516863,15.0471449 9.33483124,15.58205 9.33483124,16.240255 L9.33483124,25.0589308 C9.33483124,25.7171357 9.86516863,26.2520409 10.5177529,26.2520409 L21.4831454,26.2520409 C22.1357297,26.2520409 22.6660671,25.7171357 22.6660671,25.0589308 L22.6660671,16.240255 C22.6660671,15.58205 22.1357297,15.0471449 21.4831454,15.0471449 Z M17.0579779,21.2085225 L17.0579779,22.0897556 C17.0579779,22.6790576 16.5842697,23.1568458 16,23.1568458 C15.4157303,23.1568458 14.9420221,22.6790576 14.9420221,22.0897556 L14.9420221,21.2085225 C14.4925839,20.87942 14.2013488,20.345422 14.2013488,19.7425208 C14.2013488,18.7407075 15.0067415,17.9283779 16,17.9283779 C16.9932584,17.9283779 17.7986512,18.7407075 17.7986512,19.7425208 C17.7986512,20.345422 17.5074161,20.8803267 17.0579779,21.2085225 Z" id="Vector" fill="#FFFFFF" fill-rule="nonzero" mask="url(#mask-2)"></path>
                <path d="M19.914607,11.7425212 L19.914607,13.1251142 C19.914607,13.5965558 19.5352814,13.9791486 19.0678656,13.9791486 C18.6004499,13.9791486 18.2211242,13.5965558 18.2211242,13.1251142 L18.2211242,11.7969175 C18.2211242,10.5829555 17.2871913,9.54850436 16.0844946,9.50226683 C14.8206743,9.45421606 13.777079,10.4768811 13.777079,11.7416137 L13.777079,14.192203 L12.0844946,14.192203 L12.0844946,11.8059842 C12.0844946,9.65457891 13.7653929,7.84859526 15.8984265,7.79419816 C17.0202243,7.76609299 18.0359544,8.2121492 18.7676399,8.95013658 C19.4768533,9.66545845 19.914607,10.6509519 19.914607,11.7416137 L19.914607,11.7425212 Z" id="Vector" fill="#FFFFFF" fill-rule="nonzero" mask="url(#mask-2)"></path>
            </g>
        </g>
    </g>
</svg>