<?xml version="1.0" encoding="UTF-8"?>
<svg width="223.550325px" height="32.9999924px" viewBox="0 0 223.550325 32.9999924" version="1.1" xmlns="http://www.w3.org/2000/svg" xmlns:xlink="http://www.w3.org/1999/xlink">
    <title>Group 56</title>
    <g id="Page-1" stroke="none" stroke-width="1" fill="none" fill-rule="evenodd">
        <g id="Individual-page-with-Sidebar" transform="translate(-69, -26)" fill-rule="nonzero">
            <g id="Group-56" transform="translate(69, 26)">
                <g id="Group-55">
                    <path d="M18.3913201,18.0326863 C17.7271948,16.9492192 16.7062571,16.2052258 15.3285066,15.8007043 L15.3285066,15.7295561 C16.2710695,15.1827406 17.0073826,14.4143534 17.5395078,13.4264266 C18.071633,12.4384997 18.3356333,11.3956875 18.3356333,10.3020565 C18.3356333,8.15951551 17.5333203,6.50890513 15.9266321,5.35429105 C14.319944,4.19967698 12.1873176,3.62236979 9.53081644,3.62236979 L1.83768826,3.62236979 C0.822937809,3.62033702 0,2.81129408 0,1.81117058 L0,27.1943851 C0,28.5034898 0.664125244,29.1580429 1.99237583,29.1580429 L9.53081644,29.1580429 C12.3811926,29.1580429 14.736569,28.5380478 16.5969449,27.30009 C18.4573208,26.0621323 19.3875084,24.1452304 19.3875084,21.5493813 C19.3875084,20.2870303 19.0554454,19.1141187 18.3913201,18.0306516" id="Vector" fill="#5B31DD"></path>
                    <path d="M27.5570689,23.1796936 L23.8610685,16.6077429 C23.4506309,15.8922073 23.1247547,15.3819825 22.8834421,15.0730013 L22.8834421,15.0018546 C24.1147548,14.383892 25.0696936,13.4244232 25.7461938,12.127515 C26.4226939,10.8306067 26.7609436,9.46661728 26.7609436,8.03757885 C26.7609436,6.20401883 26.3381307,4.6509814 25.4925055,3.37643365 C24.6468803,2.1018859 23.4753799,1.17900748 21.9780045,0.607798692 C20.9158168,0.203277154 19.2348793,0 16.9413788,0 L1.83768789,0 C0.822937641,0 0,0.811075797 0,1.81119941 C0,2.81132302 0.822937641,3.62239882 1.83768789,3.62239882 L9.53081449,3.62239882 C12.1893777,3.62239882 14.319941,4.19970606 15.9266289,5.35432026 C17.5333168,6.50893446 18.3356295,8.15751221 18.3356295,10.3020862 C18.3356295,11.3977501 18.0695668,12.4385296 17.5395042,13.4264566 C17.0073791,14.4143836 16.2710662,15.1827701 15.3285034,15.7295856 L15.3285034,15.8007339 C16.7062537,16.2052554 17.7251287,16.9492489 18.3913163,18.0327161 C19.0554415,19.1161833 19.3875044,20.289092 19.3875044,21.5514432 C19.3875044,23.1329395 19.041005,24.4603393 18.3521299,25.5377083 L26.1813815,25.5377083 C26.9548192,25.5377083 27.4745699,25.3120714 27.73857,24.8587633 C28.0046325,24.4054553 27.944819,23.8464427 27.5570689,23.1796936 Z" id="Vector" fill="#02D9F4"></path>
                    <path d="M2.75390625,25.6962461 L2.75390625,32.9999924 L5.54446955,31.3310888 L8.33503246,32.9999924 L8.33503246,25.6962461 C8.33503246,25.1738239 7.91840768,24.7510071 7.40484502,24.7510071 L3.68409428,24.7510071 C3.17053162,24.7510071 2.75390625,25.1738239 2.75390625,25.6962461 Z" id="Vector" fill="#FA4AFF"></path>
                </g>
                <path d="M34.5367966,24.0885849 L34.5367966,3.31549644 L44.4139138,3.31549644 C48.422883,3.31549644 50.4273673,4.92754993 50.4273673,8.15349266 C50.4273673,10.5164911 49.1196081,12.2056585 46.505954,13.2228311 C49.296584,13.7369255 50.6918964,15.3104216 50.6918964,17.9433197 C50.6918964,22.041387 48.4973984,24.0885849 44.104671,24.0885849 L34.5386585,24.0885849 L34.5367966,24.0885849 Z M43.9407346,20.74697 C45.6695093,20.74697 46.5338964,19.8748458 46.5338964,18.1324328 C46.5338964,15.973236 45.2410416,14.8936378 42.6571939,14.8936378 L41.4779754,14.8936378 L41.4779754,12.4094601 C44.7212911,11.8770051 46.3420176,10.5403598 46.3420176,8.39952361 C46.3420176,7.23730292 45.6154866,6.65711027 44.1605587,6.65711027 L38.4414444,6.65711027 L38.4414444,20.74697 L43.9407346,20.74697 Z" id="Vector" fill="#000000"></path>
                <path d="M67.5681759,8.83649826 L67.5681759,24.0885782 L64.5185977,24.0885782 L64.0472833,22.1423639 C62.2682102,23.4404523 60.3810934,24.0885782 58.3877865,24.0885782 C55.224576,24.0885782 53.6411057,22.2433466 53.6411057,18.554719 L53.6411057,8.83649826 L57.5476151,8.83649826 L57.5476151,18.4537356 C57.5476151,20.139231 58.2946391,20.9819794 59.788688,20.9819794 C61.0554626,20.9819794 62.3483155,20.4844091 63.6635256,19.4855971 L63.6635256,8.83649826 L67.570035,8.83649826 L67.5681759,8.83649826 Z" id="Vector" fill="#000000"></path>
                <path d="M69.410668,8.83649826 L73.5519052,8.83649826 L77.45655,19.8179227 L81.2736381,8.83649826 L85.3422194,8.83649826 L78.9152012,24.5402477 C77.7751041,27.3090136 75.9531869,29.2809325 73.4457184,30.4523335 L71.5585959,27.823109 C73.2873706,27.077672 74.5448307,25.8622047 75.3309761,24.1785453 L69.4069443,8.838334 L69.410668,8.83649826 Z" id="Vector" fill="#000000"></path>
                <path d="M93.7140781,8.83649826 C98.4104584,8.83649826 100.759582,11.1994968 100.759582,15.9254935 C100.759582,16.5552592 100.71674,17.185025 100.625458,17.8147907 L90.3534038,17.8147907 C90.3534038,19.9648071 91.9554968,21.0388968 95.1578285,21.0388968 C96.7208049,21.0388968 98.2819245,20.8938482 99.8449008,20.6037521 L99.8449008,23.6552703 C98.4793924,23.9453664 96.8176783,24.090415 94.8634922,24.090415 C89.2524259,24.090415 86.4487534,21.4887292 86.4487534,16.2908673 C86.4487534,11.0930055 88.8705283,8.838334 93.7140781,8.838334 M90.3534038,15.1433351 L96.9574,15.1433351 L96.9574,15.0276644 C96.9574,12.9162051 95.8769093,11.8604747 93.7140781,11.8604747 C91.5512469,11.8604747 90.5303796,12.9547616 90.3534038,15.1433351 Z" id="Vector" fill="#000000"></path>
                <path d="M103.691844,24.0885786 L103.691844,8.83649826 L106.71348,8.83649826 L107.199695,10.7827126 C108.555889,9.48462415 109.990321,8.83649826 111.502999,8.83649826 L111.502999,11.9449329 C110.048071,11.9449329 108.745907,12.5398139 107.596495,13.7332474 L107.596495,24.090415 L103.68998,24.090415 L103.691844,24.0885786 Z" id="Vector" fill="#000000"></path>
                <path d="M113.714117,23.3633339 L113.714117,20.166769 C115.43544,20.844272 117.419437,21.1839417 119.667962,21.1839417 C121.350164,21.1839417 122.188476,20.651486 122.188476,19.5865761 C122.188476,18.5216662 121.62401,18.0608177 120.493227,18.0608177 L117.695153,18.0608177 C114.550571,18.0608177 112.978279,16.5368955 112.978279,13.4853778 C112.978279,10.4338601 115.271514,8.69144726 119.859846,8.69144726 C121.804718,8.69144726 123.637808,8.98154338 125.359131,9.56357171 L125.359131,12.7601373 C123.637808,12.0826343 121.771177,11.7429646 119.757378,11.7429646 C117.642982,11.7429646 116.588588,12.2754197 116.588588,13.3403296 C116.588588,14.4052394 117.203337,14.8642528 118.430991,14.8642528 L120.938464,14.8642528 C124.377384,14.8642528 126.09498,16.3900101 126.09498,19.4415278 C126.09498,22.4930456 123.904211,24.2354584 119.522661,24.2354584 C117.369144,24.2354584 115.43544,23.9453623 113.714117,23.3633339 Z" id="Vector" fill="#000000"></path>
                <path d="M135.822876,24.0592074 L135.822876,3.31549644 L145.403789,3.31549644 C149.707097,3.31549644 151.858744,5.1699087 151.858744,8.87873321 C151.858744,11.3886159 150.183999,13.46519 146.834498,15.1121284 L153.511139,24.0885849 L148.58935,24.0885849 L142.177238,15.0386861 L142.177238,13.2815847 C145.910498,12.6518189 147.777127,11.2252072 147.777127,8.9962404 C147.777127,7.46680938 146.903422,6.70301156 145.154155,6.70301156 L139.803901,6.70301156 L139.803901,24.0610438 L135.822876,24.0610438 L135.822876,24.0592074 Z" id="Vector" fill="#000000"></path>
                <path d="M161.513738,8.83649826 C166.210118,8.83649826 168.559241,11.1994968 168.559241,15.9254935 C168.559241,16.5552592 168.516389,17.185025 168.425106,17.8147907 L158.153064,17.8147907 C158.153064,19.9648071 159.755157,21.0388968 162.957488,21.0388968 C164.520465,21.0388968 166.081573,20.8938482 167.644549,20.6037521 L167.644549,23.6552703 C166.279041,23.9453664 164.617332,24.090415 162.663146,24.090415 C157.05208,24.090415 154.248413,21.4887292 154.248413,16.2908673 C154.248413,11.0930055 156.670188,8.838334 161.513738,8.838334 M158.153064,15.1433351 L164.755195,15.1433351 L164.755195,15.0276644 C164.755195,12.9162051 163.674704,11.8604747 161.511873,11.8604747 C159.349042,11.8604747 158.328175,12.9547616 158.151199,15.1433351" id="Vector" fill="#000000"></path>
                <path d="M171.490631,9.46075541 C173.545414,9.04580773 175.715694,8.83649826 178.007066,8.83649826 C183.262318,8.83649826 185.890877,11.2527415 185.890877,16.0852295 C185.890877,21.4226316 183.444891,24.0904159 178.551042,24.0904159 C177.509678,24.0904159 176.459002,23.8480558 175.397147,23.3633382 L175.397147,29.6095867 L171.490631,29.6095867 L171.490631,9.46075541 Z M175.397147,20.1098558 C176.369583,20.6331305 177.416532,20.8938492 178.538,20.8938492 C180.864767,20.8938492 182.030945,19.2817964 182.030945,16.0576898 C182.030945,13.3164646 180.743671,11.9467695 178.169137,11.9467695 C177.058847,11.9467695 176.134847,12.0147036 175.399,12.1505714 L175.399,20.1116908 L175.397147,20.1098558 Z" id="Vector" fill="#000000"></path>
                <path d="M188.103424,16.4634837 C188.103424,11.3500799 190.657468,8.79429531 195.767413,8.79429531 C200.877358,8.79429531 203.431402,11.3500799 203.431402,16.4634837 C203.431402,21.5768875 200.877358,24.1179819 195.767413,24.1179819 C190.657468,24.1179819 188.122053,21.567707 188.103424,16.4634837 Z M195.767413,21.1839722 C198.273019,21.1839722 199.526763,19.5921158 199.526763,16.4047301 C199.526763,13.2173444 198.273019,11.7411587 195.767413,11.7411587 C193.261808,11.7411587 192.008063,13.2944586 192.008063,16.4047301 C192.008063,19.5150016 193.261808,21.1839722 195.767413,21.1839722 Z" id="Vector" fill="#000000"></path>
                <path d="M206.37775,24.0885786 L206.37775,8.83649826 L209.397532,8.83649826 L209.883747,10.7827126 C211.239942,9.48462415 212.674373,8.83649826 214.187051,8.83649826 L214.187051,11.9449329 C212.732123,11.9449329 211.431821,12.5398139 210.280547,13.7332474 L210.280547,24.090415 L206.375885,24.090415 L206.37775,24.0885786 Z" id="Vector" fill="#000000"></path>
                <path d="M216.178802,6.36701202 L219.068168,6.36701202 L219.658717,8.83650194 L223.550325,8.83650194 L223.550325,11.8861831 L220.087194,11.8861831 L220.087194,18.9035736 C220.087194,20.3265136 220.711251,21.0389011 221.957534,21.0389011 L223.548461,21.0389011 L223.548461,24.088583 L220.070411,24.088583 C217.477249,24.088583 216.178802,22.7188887 216.178802,19.9776635 L216.178802,6.36701202 Z" id="Vector" fill="#000000"></path>
            </g>
        </g>
    </g>
</svg>