<?xml version="1.0" encoding="UTF-8"?>
<svg width="180.821092px" height="32px" viewBox="0 0 180.821092 32" version="1.1" xmlns="http://www.w3.org/2000/svg" xmlns:xlink="http://www.w3.org/1999/xlink">
    <title>remington-products-logo-vector</title>
    <g id="Page-1" stroke="none" stroke-width="1" fill="none" fill-rule="evenodd">
        <g id="remington-products-logo-vector" fill-rule="nonzero">
            <rect id="Rectangle" fill="#D9272E" x="170.425612" y="0" width="10.3954802" height="32"></rect>
            <path d="M86.5386064,8.79849341 L86.5386064,25.7627119 L84.7608286,25.7627119 L72.0150659,12.1431262 L72.0150659,25.7627119 L70.6892655,25.7627119 L70.6892655,8.79849341 L72.9792844,8.79849341 L85.2429379,21.8757062 L85.2429379,8.79849341 L86.5386064,8.79849341 Z M157.288136,8.79849341 L157.288136,21.8757062 L145.024482,8.79849341 L142.734463,8.79849341 L142.734463,25.7627119 L144.060264,25.7627119 L144.060264,12.173258 L156.806026,25.7928437 L158.583804,25.7928437 L158.583804,8.79849341 L157.288136,8.79849341 Z M64.2109228,25.7627119 L67.2542373,25.7627119 L67.2542373,8.79849341 L64.2109228,8.79849341 L64.2109228,25.7627119 Z M122.154426,8.79849341 L105.099812,8.79849341 L105.099812,10.1845574 L112.090395,10.0640301 L112.090395,25.7928437 L115.13371,25.7928437 L115.13371,10.0640301 L122.124294,10.1845574 L122.124294,8.79849341 L122.154426,8.79849341 Z M162.018832,4.36911488 C160.783427,4.36911488 159.789077,5.36346516 159.789077,6.56873823 C159.789077,7.7740113 160.783427,8.76836158 162.018832,8.76836158 C163.254237,8.76836158 164.218456,7.7740113 164.218456,6.56873823 C164.218456,5.36346516 163.254237,4.36911488 162.018832,4.36911488 M162.018832,8.31638418 C161.084746,8.31638418 160.33145,7.56308851 160.33145,6.56873823 C160.33145,5.6346516 161.084746,4.85122411 162.018832,4.85122411 C162.922787,4.85122411 163.676083,5.60451977 163.676083,6.56873823 C163.676083,7.56308851 162.922787,8.31638418 162.018832,8.31638418 M162.320151,6.77966102 C162.681733,6.71939736 162.983051,6.50847458 162.983051,6.05649718 C162.983051,5.54425612 162.651601,5.33333333 162.018832,5.33333333 L161.054614,5.33333333 L161.054614,7.86440678 L161.47646,7.86440678 L161.47646,6.77966102 L161.838041,6.77966102 L162.47081,7.86440678 L163.013183,7.86440678 L162.320151,6.77966102 Z M161.47646,6.4180791 L161.47646,5.69491525 L161.958569,5.69491525 C162.199623,5.69491525 162.531073,5.75517891 162.531073,6.05649718 C162.531073,6.4180791 162.229755,6.4180791 161.928437,6.4180791 C161.928437,6.4180791 161.47646,6.4180791 161.47646,6.4180791 Z M35.7664783,25.7627119 L35.7664783,24.4067797 L25.7928437,24.5574388 L25.7928437,17.2354049 L33.2956685,17.2354049 L33.2956685,16.2109228 L25.7928437,16.2109228 L25.7928437,10.0037665 L35.4048964,10.1845574 L35.4048964,8.76836158 L22.779661,8.79849341 L22.779661,25.7928437 L35.7664783,25.7928437 L35.7664783,25.7627119 Z M38.26742,8.76836158 L38.26742,25.7928437 L39.6233522,25.7928437 L39.5932203,12.3841808 L47.6986817,25.7928437 L49.8983051,25.7928437 L57.4915254,11.3295669 L57.4915254,25.7627119 L60.6252354,25.7627119 L60.6252354,8.73822976 L57.4915254,8.73822976 L49.7777778,23.3521657 L41.0998117,8.73822976 C41.0998117,8.76836158 38.26742,8.76836158 38.26742,8.76836158 Z M130.772128,8.49717514 C124.715631,8.49717514 120.73823,12.4143126 120.73823,17.2956685 C120.73823,22.1770245 123.87194,26.1242938 130.772128,26.1242938 C137.672316,26.1242938 140.806026,22.1770245 140.806026,17.2956685 C140.806026,12.4143126 136.798493,8.49717514 130.772128,8.49717514 M130.772128,25.0696798 C125.800377,25.0696798 123.510358,21.6045198 123.510358,17.3258004 C123.510358,13.047081 126.372881,9.5819209 130.772128,9.5819209 C135.141243,9.5819209 138.033898,13.047081 138.033898,17.3258004 C138.033898,21.6045198 135.743879,25.0696798 130.772128,25.0696798 M21.4538606,25.7627119 L11.8719397,17.0546139 C12.2335217,17.0244821 12.6252354,16.9943503 13.0169492,16.9642185 C15.1864407,16.6629002 19.5856874,15.4877589 19.8870056,10.9679849 C19.9774011,5.09227872 10.5461394,5.09227872 8.52730697,5.09227872 L0,5.09227872 L0,25.7928437 L3.55555556,25.7928437 L3.55555556,17.1450094 L8.07532957,17.1450094 L17.7175141,25.7627119 L21.4538606,25.7627119 Z M3.55555556,6.086629 L6.71939736,6.086629 C8.88888889,6.086629 16.9943503,5.99623352 16.9943503,10.9077213 C16.9943503,15.3370998 11.3898305,16.1506591 8.85875706,16.1506591 L3.55555556,16.1506591 L3.55555556,6.086629 Z M103.201507,8.85875706 C101.93597,8.61770245 100.549906,8.46704331 99.0734463,8.46704331 C92.4745763,8.46704331 88.5875706,12.4444444 88.5875706,17.2956685 C88.5875706,22.1770245 91.7212806,26.1242938 98.6214689,26.1242938 C101.815443,26.1242938 104.105461,25.3107345 105.853107,23.8945386 L105.853107,17.6271186 L101.514124,17.6271186 L102.900188,18.8625235 L102.900188,23.9548023 C101.755179,24.7080979 100.399247,25.0998117 98.6516008,25.0998117 C93.6798493,25.0998117 91.3898305,21.6346516 91.3898305,17.3559322 C91.3898305,13.1073446 94.3427495,9.5819209 99.1035782,9.5819209 C101.453861,9.5819209 102.207156,9.913371 103.231638,10.1845574 L103.201507,8.85875706 L103.201507,8.85875706 Z" id="Shape" fill="#000000"></path>
        </g>
    </g>
</svg>